<?xml version="1.0" encoding="UTF-8" standalone="no" ?>
<!DOCTYPE svg PUBLIC "-//W3C//DTD SVG 1.1//EN" "http://www.w3.org/Graphics/SVG/1.1/DTD/svg11.dtd">
<svg xmlns="http://www.w3.org/2000/svg" xmlns:xlink="http://www.w3.org/1999/xlink" version="1.1" width="100" height="60" viewBox="0 0 100 60" xml:space="preserve">
<desc>Created with Fabric.js 4.6.0</desc>
<defs>
</defs>
<g transform="matrix(0.81 0 0 0.81 24.77 38.41)" id="6MUrdTMDqHngA1KUkLLha"  >
<path style="stroke: rgb(255,30,30); stroke-width: 1; stroke-dasharray: none; stroke-linecap: butt; stroke-dashoffset: 0; stroke-linejoin: miter; stroke-miterlimit: 4; fill: rgb(255,30,30); fill-rule: nonzero; opacity: 1;" vector-effect="non-scaling-stroke"  transform=" translate(0, 0)" d="M 0 -9.34579 C 5.15888 -9.34579 9.34579 -5.158869999999999 9.34579 0 C 9.34579 5.15888 5.158869999999999 9.34579 0 9.34579 C -5.15888 9.34579 -9.34579 5.158869999999999 -9.34579 0 C -9.34579 -5.15888 -5.158869999999999 -9.34579 0 -9.34579 z" stroke-linecap="round" />
</g>
<g transform="matrix(1 0 0 1 19.25 11.92)" id="OwgzSl_SfDT5SD85SZ4h7"  >
<path style="stroke: rgb(255,30,30); stroke-width: 1; stroke-dasharray: none; stroke-linecap: butt; stroke-dashoffset: 0; stroke-linejoin: miter; stroke-miterlimit: 4; fill: rgb(255,30,30); fill-rule: nonzero; opacity: 1;" vector-effect="non-scaling-stroke"  transform=" translate(0, 0)" d="M 0 -4.33911 C 2.39519 -4.33911 4.33911 -2.3951899999999995 4.33911 0 C 4.33911 2.39519 2.3951899999999995 4.33911 0 4.33911 C -2.39519 4.33911 -4.33911 2.3951899999999995 -4.33911 0 C -4.33911 -2.39519 -2.3951899999999995 -4.33911 0 -4.33911 z" stroke-linecap="round" />
</g>
<g transform="matrix(0.89 0 0 0.89 41.11 50.3)" id="pRLRt0j-J83xcvGKaNF7W"  >
<path style="stroke: rgb(255,30,30); stroke-width: 1; stroke-dasharray: none; stroke-linecap: butt; stroke-dashoffset: 0; stroke-linejoin: miter; stroke-miterlimit: 4; fill: rgb(255,30,30); fill-rule: nonzero; opacity: 1;" vector-effect="non-scaling-stroke"  transform=" translate(0, 0)" d="M 0 -5.00667 C 2.76368 -5.00667 5.00667 -2.76368 5.00667 0 C 5.00667 2.76368 2.76368 5.00667 0 5.00667 C -2.76368 5.00667 -5.00667 2.76368 -5.00667 0 C -5.00667 -2.76368 -2.76368 -5.00667 0 -5.00667 z" stroke-linecap="round" />
</g>
<g transform="matrix(0.85 0 0 0.85 41.11 23.11)" id="gODkddD3la1TWURfkeFTB"  >
<path style="stroke: rgb(255,30,30); stroke-width: 1; stroke-dasharray: none; stroke-linecap: butt; stroke-dashoffset: 0; stroke-linejoin: miter; stroke-miterlimit: 4; fill: rgb(255,30,30); fill-rule: nonzero; opacity: 1;" vector-effect="non-scaling-stroke"  transform=" translate(0, 0)" d="M 0 -6.00801 C 3.31642 -6.00801 6.00801 -3.3164199999999995 6.00801 0 C 6.00801 3.31642 3.3164199999999995 6.00801 0 6.00801 C -3.31642 6.00801 -6.00801 3.3164199999999995 -6.00801 0 C -6.00801 -3.31642 -3.3164199999999995 -6.00801 0 -6.00801 z" stroke-linecap="round" />
</g>
<g transform="matrix(0.81 0 0 0.81 4.62 30.17)" id="og0hHW4gfckDyN1hL879t"  >
<path style="stroke: rgb(255,30,30); stroke-width: 1; stroke-dasharray: none; stroke-linecap: butt; stroke-dashoffset: 0; stroke-linejoin: miter; stroke-miterlimit: 4; fill: rgb(255,30,30); fill-rule: nonzero; opacity: 1;" vector-effect="non-scaling-stroke"  transform=" translate(0, 0)" d="M 0 -4.6729 C 2.57944 -4.6729 4.6729 -2.5794400000000004 4.6729 0 C 4.6729 2.57944 2.5794400000000004 4.6729 0 4.6729 C -2.57944 4.6729 -4.6729 2.5794400000000004 -4.6729 0 C -4.6729 -2.57944 -2.5794400000000004 -4.6729 0 -4.6729 z" stroke-linecap="round" />
</g>
<g transform="matrix(0.81 0 0 0.81 65.05 43.55)" id="Glz3ApcakAXMWNXOc95kq"  >
<path style="stroke: rgb(255,30,30); stroke-width: 1; stroke-dasharray: none; stroke-linecap: butt; stroke-dashoffset: 0; stroke-linejoin: miter; stroke-miterlimit: 4; fill: rgb(255,30,30); fill-rule: nonzero; opacity: 1;" vector-effect="non-scaling-stroke"  transform=" translate(0, 0)" d="M 0 -8.34446 C 4.60614 -8.34446 8.34446 -4.60614 8.34446 0 C 8.34446 4.60614 4.60614 8.34446 0 8.34446 C -4.60614 8.34446 -8.34446 4.60614 -8.34446 0 C -8.34446 -4.60614 -4.60614 -8.34446 0 -8.34446 z" stroke-linecap="round" />
</g>
<g transform="matrix(0.81 0 0 0.81 65.05 17.19)" id="aw0RiO110ROML6xANo5yr"  >
<path style="stroke: rgb(255,30,30); stroke-width: 1; stroke-dasharray: none; stroke-linecap: butt; stroke-dashoffset: 0; stroke-linejoin: miter; stroke-miterlimit: 4; fill: rgb(255,30,30); fill-rule: nonzero; opacity: 1;" vector-effect="non-scaling-stroke"  transform=" translate(0, 0)" d="M 0 -5.34046 C 2.94793 -5.34046 5.34046 -2.94794 5.34046 0 C 5.34046 2.94793 2.94794 5.34046 0 5.34046 C -2.94793 5.34046 -5.34046 2.94794 -5.34046 0 C -5.34046 -2.94793 -2.94794 -5.34046 0 -5.34046 z" stroke-linecap="round" />
</g>
<g transform="matrix(0.81 0 0 0.81 95.07 15.7)" id="WEsmQoEdIfqX2a10NzdmI"  >
<path style="stroke: rgb(255,30,30); stroke-width: 1; stroke-dasharray: none; stroke-linecap: butt; stroke-dashoffset: 0; stroke-linejoin: miter; stroke-miterlimit: 4; fill: rgb(255,30,30); fill-rule: nonzero; opacity: 1;" vector-effect="non-scaling-stroke"  transform=" translate(0, 0)" d="M 0 -4.6729 C 2.57944 -4.6729 4.6729 -2.5794400000000004 4.6729 0 C 4.6729 2.57944 2.5794400000000004 4.6729 0 4.6729 C -2.57944 4.6729 -4.6729 2.5794400000000004 -4.6729 0 C -4.6729 -2.57944 -2.5794400000000004 -4.6729 0 -4.6729 z" stroke-linecap="round" />
</g>
<g transform="matrix(0.81 0 0 0.81 49.91 4.62)" id="Y_wT0ppZ4vL8FMyPN-lQc"  >
<path style="stroke: rgb(255,30,30); stroke-width: 1; stroke-dasharray: none; stroke-linecap: butt; stroke-dashoffset: 0; stroke-linejoin: miter; stroke-miterlimit: 4; fill: rgb(255,30,30); fill-rule: nonzero; opacity: 1;" vector-effect="non-scaling-stroke"  transform=" translate(0, 0)" d="M 0 -4.33912 C 2.3952 -4.33912 4.33912 -2.3951900000000004 4.33912 0 C 4.33912 2.3952 2.3951900000000004 4.33912 0 4.33912 C -2.3952 4.33912 -4.33912 2.3951900000000004 -4.33912 0 C -4.33912 -2.3952 -2.3951900000000004 -4.33912 0 -4.33912 z" stroke-linecap="round" />
</g>
<g transform="matrix(0.81 0 0 0.81 14.23 54.9)" id="BwvJjKsu9NiPMqV1OwWSo"  >
<path style="stroke: rgb(255,30,30); stroke-width: 1; stroke-dasharray: none; stroke-linecap: butt; stroke-dashoffset: 0; stroke-linejoin: miter; stroke-miterlimit: 4; fill: rgb(255,30,30); fill-rule: nonzero; opacity: 1;" vector-effect="non-scaling-stroke"  transform=" translate(0, 0)" d="M 0 -3.67157 C 2.0267 -3.67157 3.67157 -2.02671 3.67157 0 C 3.67157 2.0267 2.02671 3.67157 0 3.67157 C -2.0267 3.67157 -3.67157 2.02671 -3.67157 0 C -3.67157 -2.0267 -2.02671 -3.67157 0 -3.67157 z" stroke-linecap="round" />
</g>
<g transform="matrix(0.81 0 0 0.81 79.1 55.44)" id="N5XGLme44LtbJAJkbGDpP"  >
<path style="stroke: rgb(255,30,30); stroke-width: 1; stroke-dasharray: none; stroke-linecap: butt; stroke-dashoffset: 0; stroke-linejoin: miter; stroke-miterlimit: 4; fill: rgb(255,30,30); fill-rule: nonzero; opacity: 1;" vector-effect="non-scaling-stroke"  transform=" translate(0, 0)" d="M 0 -4.33911 C 2.39519 -4.33911 4.33911 -2.3951899999999995 4.33911 0 C 4.33911 2.39519 2.3951899999999995 4.33911 0 4.33911 C -2.39519 4.33911 -4.33911 2.3951899999999995 -4.33911 0 C -4.33911 -2.39519 -2.3951899999999995 -4.33911 0 -4.33911 z" stroke-linecap="round" />
</g>
<g transform="matrix(0.81 0 0 0.81 93.71 43.55)" id="hISR1sMZXRnbzU8waMa8Q"  >
<path style="stroke: rgb(255,30,30); stroke-width: 1; stroke-dasharray: none; stroke-linecap: butt; stroke-dashoffset: 0; stroke-linejoin: miter; stroke-miterlimit: 4; fill: rgb(255,30,30); fill-rule: nonzero; opacity: 1;" vector-effect="non-scaling-stroke"  transform=" translate(0, 0)" d="M 0 -3.00401 C 1.65821 -3.00401 3.00401 -1.65821 3.00401 0 C 3.00401 1.65821 1.65821 3.00401 0 3.00401 C -1.65821 3.00401 -3.00401 1.65821 -3.00401 0 C -3.00401 -1.65821 -1.65821 -3.00401 0 -3.00401 z" stroke-linecap="round" />
</g>
<g transform="matrix(0.81 0 0 0.81 34.83 29.76)" id="Cyy_Tr2D2ViNd6J-klRp9"  >
<path style="stroke: rgb(255,30,30); stroke-width: 2; stroke-dasharray: none; stroke-linecap: butt; stroke-dashoffset: 0; stroke-linejoin: miter; stroke-miterlimit: 4; fill: rgb(255,255,255); fill-opacity: 0; fill-rule: nonzero; opacity: 1;" vector-effect="non-scaling-stroke"  transform=" translate(0, 0)" d="M -37.30808 0.50067 L -12.424899999999997 10.680909999999999 L 7.7616900000000015 -8.215390000000001 L 18.616480000000003 -31.04139 L 37.30807 -15.52136 L 37.30807 17.0227 L 7.7616900000000015 25.36717 L -11.74664 11.323990000000002 L -25.442259999999997 31.041400000000003" stroke-linecap="round" />
</g>
<g transform="matrix(0.81 0 0 0.81 49.18 33.68)" id="lGvhSrJUxb5OBtNc7ExoO"  >
<path style="stroke: rgb(255,30,30); stroke-width: 2; stroke-dasharray: none; stroke-linecap: butt; stroke-dashoffset: 0; stroke-linejoin: miter; stroke-miterlimit: 4; fill: rgb(255,255,255); fill-opacity: 0; fill-rule: nonzero; opacity: 1;" vector-effect="non-scaling-stroke"  transform=" translate(0, 0)" d="M -36.95161 -26.86916 L -9.951240000000002 -13.05517 L 19.595139999999997 12.18292 L 36.95162 26.869169999999997" stroke-linecap="round" />
</g>
<g transform="matrix(0.81 0 0 0.81 79.38 30.36)" id="sW7B0UeC8kQhPvx0K_r7l"  >
<path style="stroke: rgb(255,30,30); stroke-width: 2; stroke-dasharray: none; stroke-linecap: butt; stroke-dashoffset: 0; stroke-linejoin: miter; stroke-miterlimit: 4; fill: rgb(255,255,255); fill-opacity: 0; fill-rule: nonzero; opacity: 1;" vector-effect="non-scaling-stroke"  transform=" translate(0, 0)" d="M -17.69025 -16.27203 L 3.1251200000000026 -4.272630000000001 L 17.690260000000002 16.272019999999998" stroke-linecap="round" />
</g>
<g transform="matrix(0.81 0 0 0.81 88.48 21.3)" id="N--bIY_b86fXWwiaOZzws"  >
<path style="stroke: rgb(255,30,30); stroke-width: 2; stroke-dasharray: none; stroke-linecap: butt; stroke-dashoffset: 0; stroke-linejoin: miter; stroke-miterlimit: 4; fill: rgb(255,255,255); fill-opacity: 0; fill-rule: nonzero; opacity: 1;" vector-effect="non-scaling-stroke"  transform=" translate(0, 0)" d="M 8.11701 -6.91726 L -8.11702 6.91726" stroke-linecap="round" />
</g>
<g transform="matrix(1 0 0 1 36.92 20.97)" style="" id="w8RwiYf6Vz2frVOslPZ6N"  >
		<text xml:space="preserve" font-family="Montserrat" font-size="4" font-style="normal" font-weight="700" letter-spacing="0.02" line-height="1.16" style="stroke: none; stroke-width: 1; stroke-dasharray: none; stroke-linecap: butt; stroke-dashoffset: 0; stroke-linejoin: miter; stroke-miterlimit: 4; fill: rgb(210,30,43); fill-rule: nonzero; opacity: 1; visibility: hidden; white-space: pre;" ><tspan x="-11.95" y="1.26" >M</tspan><tspan x="-8.11" y="1.26" >E</tspan><tspan x="-5.4" y="1.26" >T</tspan><tspan x="-2.91" y="1.26" >E</tspan><tspan x="-0.21" y="1.26" >C</tspan><tspan x="2.75" y="1.26" >H</tspan><tspan x="6" y="1.26" >S</tspan><tspan x="8.57" y="1.26" >O</tspan></text>
</g>
<g transform="matrix(1 0 0 1 36.84 23.71)" style="" id="aUmT6lY5ZnyOwrMkzTWu8"  >
		<text xml:space="preserve" font-family="Montserrat" font-size="2" font-style="normal" font-weight="700" line-height="1.16" style="stroke: none; stroke-width: 1; stroke-dasharray: none; stroke-linecap: butt; stroke-dashoffset: 0; stroke-linejoin: miter; stroke-miterlimit: 4; fill: rgb(17,17,17); fill-rule: nonzero; opacity: 1; visibility: hidden; white-space: pre;" ><tspan x="-10.72" y="0.63" >Technology Solution</tspan></text>
</g>
</svg>