<?xml version="1.0" standalone="no"?>
<!DOCTYPE svg PUBLIC "-//W3C//DTD SVG 20010904//EN"
 "http://www.w3.org/TR/2001/REC-SVG-20010904/DTD/svg10.dtd">
<svg version="1.0" xmlns="http://www.w3.org/2000/svg"
 width="700.000000pt" height="700.000000pt" viewBox="0 0 700.000000 700.000000"
 preserveAspectRatio="xMidYMid meet">
<metadata>
Created by potrace 1.14, written by Peter Selinger 2001-2017
</metadata>
<g transform="translate(0.000000,700.000000) scale(0.100000,-0.100000)"
fill="#000000" stroke="none">
<path d="M3112 6989 c7 -4 16 -5 20 -3 4 3 8 0 8 -5 0 -6 -14 -11 -31 -11 -21
0 -28 -4 -23 -12 6 -10 4 -10 -7 -2 -18 15 -61 25 -53 13 3 -5 2 -9 -3 -10 -4
0 -16 -2 -26 -4 -9 -2 -15 0 -12 4 7 13 -28 7 -55 -9 -31 -17 -60 -20 -60 -6
0 6 -4 5 -9 -3 -6 -9 -27 -15 -54 -15 -28 -1 -43 -5 -39 -11 3 -5 -2 -4 -12 4
-15 13 -18 12 -23 -7 -3 -12 -10 -22 -15 -22 -6 0 -8 7 -5 14 4 11 1 13 -10 9
-12 -5 -14 -3 -8 7 5 9 4 11 -4 6 -9 -6 -9 -11 -1 -21 8 -10 4 -12 -22 -10
-22 2 -37 -3 -50 -19 -19 -21 -19 -21 -9 0 8 16 7 21 -4 21 -8 0 -12 -3 -10
-7 8 -13 -14 -33 -39 -35 -14 -2 -24 0 -21 4 2 4 -2 8 -10 8 -8 0 -12 -4 -10
-8 4 -6 -9 -15 -28 -18 -4 0 -23 -8 -43 -16 -30 -12 -34 -13 -25 -1 10 12 8
13 -9 9 -11 -3 -23 -10 -27 -16 -4 -6 -1 -7 7 -2 9 5 11 4 6 -4 -4 -6 -11 -9
-16 -6 -4 3 -11 -1 -14 -7 -3 -7 -3 -2 0 12 5 24 4 24 -8 5 -7 -11 -19 -20
-25 -21 -30 -2 -34 -5 -28 -14 3 -6 -1 -7 -9 -4 -9 3 -14 9 -11 13 2 4 -2 8
-10 8 -11 0 -12 -5 -3 -20 7 -14 7 -17 -1 -13 -6 4 -11 1 -11 -6 0 -10 -3 -9
-9 1 -8 12 -12 12 -25 2 -8 -7 -21 -9 -27 -5 -9 5 -10 2 -6 -9 4 -10 2 -16 -6
-14 -7 1 -11 -3 -10 -10 2 -7 -4 -10 -12 -7 -9 4 -23 0 -33 -7 -15 -13 -16
-12 -3 4 12 15 12 17 -3 11 -9 -3 -16 -11 -16 -16 0 -6 -7 -4 -17 3 -15 13
-15 12 -3 -11 13 -24 12 -24 -5 -10 -17 14 -18 13 -12 -5 7 -18 6 -19 -6 -3
-13 16 -15 16 -27 -7 -7 -13 -16 -22 -21 -20 -4 3 -15 -2 -23 -11 -9 -8 -16
-11 -16 -4 0 6 11 16 25 22 14 6 25 15 25 20 0 10 -51 -21 -67 -42 -6 -8 -9
-18 -7 -22 3 -4 -1 -5 -9 -2 -8 3 -18 1 -21 -5 -4 -5 -17 -8 -31 -5 -13 2 -27
-1 -31 -7 -4 -7 -3 -9 4 -5 6 3 13 2 16 -3 3 -5 -9 -8 -28 -7 -24 1 -33 -3
-32 -14 1 -8 -9 -16 -22 -18 -14 -2 -20 -8 -15 -15 4 -7 -2 -5 -12 3 -10 8
-16 10 -12 4 4 -6 -3 -20 -16 -30 -19 -16 -20 -16 -8 -1 12 15 12 17 -3 11 -9
-3 -16 -14 -17 -23 0 -10 -2 -11 -6 -3 -2 6 -9 12 -14 12 -6 0 -8 -3 -6 -7 3
-5 -4 -17 -15 -28 -19 -20 -19 -20 -12 0 7 20 7 20 -9 0 -8 -10 -12 -25 -9
-33 4 -11 6 -11 13 0 7 10 9 10 9 1 0 -7 10 -13 21 -13 18 0 19 -3 9 -15 -10
-12 -7 -13 19 -5 19 5 33 5 37 -1 3 -5 9 -7 14 -4 5 3 12 1 15 -5 4 -6 1 -9
-6 -8 -6 2 -14 -4 -16 -12 -3 -9 -1 -11 4 -5 13 16 33 16 50 0 12 -13 18 -13
32 -3 9 7 13 8 8 3 -4 -4 0 -16 9 -26 12 -14 21 -16 35 -9 12 7 20 7 24 0 4
-6 10 -8 15 -5 5 3 12 0 16 -6 4 -7 3 -9 -4 -5 -6 3 -14 2 -17 -4 -4 -6 -3
-10 2 -9 4 1 21 1 36 0 20 -1 26 -5 21 -13 -6 -10 -5 -10 8 0 12 10 17 10 27
-1 6 -8 7 -18 3 -23 -4 -4 2 -2 12 6 17 13 18 13 11 1 -6 -11 -4 -13 10 -7 16
6 16 4 4 -10 -13 -16 -12 -16 8 -6 28 15 36 15 27 0 -5 -8 -2 -9 9 -5 9 3 19
1 23 -5 4 -6 3 -8 -4 -4 -6 3 -13 2 -16 -3 -4 -5 2 -8 11 -6 10 1 27 -5 38
-14 18 -15 19 -15 6 2 -12 15 -12 17 3 11 9 -3 16 -11 16 -16 0 -7 5 -6 13 1
17 13 28 4 20 -16 -5 -13 -3 -13 17 -3 15 8 20 8 16 1 -4 -7 1 -11 12 -11 12
0 22 -9 25 -22 5 -18 8 -19 21 -8 12 9 16 9 16 1 0 -7 4 -10 9 -6 6 3 22 -7
37 -22 14 -16 23 -22 20 -15 -5 7 -1 12 9 12 12 0 15 -5 11 -17 -4 -10 -4 -14
0 -10 4 4 14 1 22 -6 10 -8 13 -8 9 -1 -4 7 0 14 8 17 9 4 12 1 9 -7 -3 -7 2
-16 11 -20 9 -3 14 -2 11 3 -4 5 3 7 14 4 11 -3 17 -9 14 -14 -3 -5 1 -9 8 -9
10 0 9 -3 -2 -11 -12 -9 -12 -10 4 -5 10 4 26 1 34 -6 13 -11 15 -10 9 4 -5
15 -4 16 13 6 10 -7 16 -16 13 -22 -4 -5 1 -7 11 -3 9 4 14 3 11 -2 -3 -5 -1
-12 5 -16 5 -3 10 -1 10 4 0 6 5 11 11 11 5 0 7 -5 3 -12 -5 -8 0 -9 15 -5 18
4 20 3 11 -8 -8 -10 -8 -15 1 -21 7 -4 9 -3 6 3 -4 6 0 14 9 17 12 5 15 2 10
-10 -4 -12 -2 -15 9 -10 8 3 15 0 15 -6 0 -7 4 -7 13 0 10 9 19 8 34 -3 17
-12 23 -12 32 -1 6 7 7 17 3 21 -4 5 2 5 13 1 16 -6 18 -5 8 5 -19 19 -16 34
4 18 13 -11 15 -11 9 -1 -6 9 -3 12 10 10 13 -2 20 4 22 20 2 12 8 22 13 22 6
0 7 -5 3 -12 -4 -7 -3 -8 4 -4 7 4 12 14 12 21 0 10 6 12 18 8 15 -6 16 -5 2
12 -8 10 -10 16 -3 12 7 -4 17 0 23 10 10 16 11 16 6 1 -3 -12 -1 -15 9 -11 8
3 12 9 9 14 -3 5 6 9 20 9 27 0 66 31 66 52 0 6 6 4 13 -7 11 -14 16 -15 22
-5 6 9 4 11 -5 5 -9 -5 -11 -4 -6 3 4 7 15 12 25 12 9 0 23 6 30 13 11 10 13
10 7 0 -11 -19 5 -16 21 5 8 9 12 12 9 5 -4 -6 -2 -15 4 -18 6 -4 9 -1 8 6 -2
6 3 14 11 17 9 3 11 0 6 -8 -5 -9 -4 -11 4 -6 9 6 9 12 -1 24 -11 15 -10 15
14 -1 23 -14 26 -15 22 -2 -5 13 -2 14 20 5 18 -6 26 -6 26 1 0 6 4 8 9 4 5
-3 12 3 14 12 3 13 5 11 7 -7 1 -23 2 -23 10 -5 6 13 9 15 9 5 1 -13 2 -13 11
0 8 12 10 12 10 -5 0 -17 2 -17 10 -5 9 15 90 22 90 8 0 -4 14 -6 31 -6 17 1
35 -5 40 -13 7 -11 9 -10 9 5 0 16 2 17 17 5 9 -8 14 -9 10 -2 -8 12 10 12 31
-1 7 -4 16 -5 19 -2 3 3 19 -4 34 -15 16 -11 34 -17 41 -13 8 5 9 2 4 -12 -6
-15 -5 -17 5 -6 18 17 34 15 20 -2 -14 -17 -7 -22 38 -24 20 -2 41 -11 52 -25
16 -19 18 -19 12 -3 -4 13 -3 17 5 12 7 -4 12 -14 12 -21 0 -8 6 -12 13 -9 8
3 20 -3 28 -13 12 -16 12 -17 -1 -8 -9 6 -5 0 9 -12 19 -17 28 -19 38 -11 11
8 12 7 7 -6 -4 -9 -3 -16 2 -14 5 2 20 -5 32 -14 21 -14 21 -17 6 -20 -16 -3
-16 -4 1 -18 11 -9 16 -10 11 -2 -4 6 -3 12 3 12 5 0 12 -6 14 -12 4 -10 8 -9
16 2 9 13 11 12 12 -5 l0 -20 8 20 c5 11 7 23 5 27 -3 4 1 10 7 14 7 4 9 3 6
-2 -3 -6 -2 -16 4 -24 6 -11 9 -12 9 -2 0 7 4 10 10 7 5 -3 7 0 4 9 -4 11 1
14 20 12 20 -3 24 0 16 9 -8 9 -8 15 0 20 5 3 10 3 10 0 0 -3 13 2 29 11 17
10 28 22 25 28 -3 6 2 2 10 -8 14 -17 16 -17 16 -3 0 10 6 14 13 11 8 -3 20 3
28 13 13 16 12 17 -4 4 -15 -12 -17 -12 -11 2 3 8 12 18 20 21 8 3 12 2 9 -3
-3 -5 -1 -12 5 -16 5 -3 10 1 10 9 0 8 5 18 12 22 6 4 8 3 4 -4 -3 -6 -2 -14
4 -17 6 -4 10 -3 9 2 -6 37 14 54 33 28 5 -6 8 -5 8 3 0 8 5 10 13 6 8 -5 7
-2 -2 9 -12 15 -12 17 4 11 13 -5 16 -4 10 5 -6 10 -3 11 13 2 15 -8 23 -7 31
3 6 7 7 16 3 20 -4 5 0 7 8 6 29 -4 40 0 40 18 0 13 2 14 9 3 6 -9 11 -10 15
-2 4 6 4 11 -1 11 -4 0 -2 4 6 9 8 5 22 8 32 6 11 -2 16 1 13 9 -3 9 7 18 26
24 24 9 29 8 23 -1 -4 -8 -1 -7 10 1 9 8 20 11 25 8 5 -3 8 6 6 19 -1 14 2 23
7 19 5 -3 6 -11 2 -17 -5 -8 -2 -8 9 0 8 7 18 9 22 5 5 -4 6 2 4 13 -3 21 21
29 34 10 5 -6 8 -3 8 7 0 11 6 15 20 11 16 -4 19 -2 14 12 -6 15 -4 16 17 5
22 -12 23 -12 10 4 -8 9 -11 19 -7 23 3 3 6 1 6 -4 0 -6 8 -10 18 -8 9 2 21 4
26 4 5 1 4 7 -2 14 -8 10 -6 13 8 13 10 0 16 -5 12 -11 -3 -5 8 4 25 22 22 23
36 30 52 26 12 -3 21 -1 21 6 0 6 5 11 11 11 5 0 8 -4 5 -8 -3 -5 1 -9 8 -9 8
0 12 8 9 21 -4 17 -3 18 6 6 10 -14 16 -7 12 14 -1 5 4 4 12 -2 12 -10 18 -7
31 13 9 14 20 24 24 21 5 -3 14 -1 22 4 9 5 20 5 27 -2 11 -9 12 -6 3 18 -6
16 -8 25 -4 21 4 -4 14 -1 23 6 14 11 14 10 2 -5 -9 -12 -10 -18 -2 -18 6 0
11 5 11 10 0 6 0 12 0 15 0 3 -3 5 -7 4 -3 0 -10 6 -15 15 -7 12 -14 14 -28 6
-24 -13 -40 -13 -20 0 13 9 13 10 0 11 -46 5 -72 19 -66 34 3 8 -2 11 -15 8
-14 -4 -19 0 -20 13 0 18 -1 18 -9 -1 -5 -11 -9 -14 -9 -7 -1 6 -7 12 -15 12
-8 0 -17 6 -19 13 -4 9 -8 9 -15 -2 -8 -11 -11 -9 -17 8 -5 18 -9 20 -21 10
-12 -10 -13 -9 -8 7 7 18 6 18 -15 -1 -12 -11 -22 -15 -21 -10 2 6 2 19 1 30
-1 17 -3 18 -11 5 -8 -13 -10 -12 -10 3 0 9 -5 17 -11 17 -5 0 -8 -4 -4 -9 3
-5 1 -13 -5 -16 -6 -4 -9 -1 -8 6 2 7 -5 15 -16 17 -13 3 -16 0 -11 -9 5 -7 4
-10 -3 -5 -6 4 -9 13 -6 20 3 7 -2 16 -11 20 -9 3 -14 2 -11 -3 3 -5 0 -11 -8
-14 -8 -3 -13 1 -12 11 0 9 -3 17 -9 17 -5 0 -16 4 -24 9 -10 6 -12 5 -7 -2 9
-16 -23 -4 -47 16 -16 15 -17 14 -11 -4 6 -15 5 -17 -7 -8 -8 6 -22 10 -32 9
-9 -2 -15 0 -12 5 8 13 -40 39 -55 30 -8 -5 -19 -2 -29 9 -9 9 -12 11 -7 4 5
-8 4 -13 -2 -13 -6 0 -15 7 -20 15 -4 9 -19 17 -31 20 -13 2 -20 1 -17 -3 4
-4 13 -7 18 -7 6 0 13 -7 15 -15 4 -13 3 -13 -6 0 -6 8 -11 11 -11 6 0 -5 -11
1 -25 14 -14 13 -25 20 -25 15 0 -4 -10 0 -22 11 -12 10 -18 14 -15 8 8 -13
-20 -40 -30 -30 -3 3 -1 6 5 6 7 0 12 5 12 11 0 5 -4 7 -10 4 -5 -3 -10 0 -10
7 0 9 -3 9 -10 -2 -8 -12 -10 -12 -10 -1 0 8 -3 11 -6 8 -4 -3 -15 -2 -25 3
-12 7 -19 6 -22 -3 -3 -7 -6 -4 -6 6 -1 10 -6 15 -11 12 -6 -4 -8 -11 -5 -16
3 -5 -1 -6 -9 -3 -9 3 -13 11 -9 18 4 6 0 5 -9 -2 -14 -11 -17 -10 -20 4 -1
10 -13 18 -25 19 -18 1 -20 -1 -11 -12 9 -11 13 -12 19 -1 6 9 9 9 9 1 0 -16
-17 -26 -25 -13 -4 6 -11 8 -16 5 -5 -4 -9 2 -9 12 0 15 -2 16 -10 3 -6 -10
-10 -11 -10 -2 0 6 -7 12 -16 12 -9 0 -12 -5 -8 -12 5 -9 2 -9 -9 1 -9 7 -37
13 -62 13 -31 -1 -45 3 -45 12 0 19 -665 22 -688 4 -9 -7 -13 -8 -9 -2 4 7
-14 10 -53 10 -33 0 -54 -3 -48 -7z m58 -11 c0 7 5 10 11 6 8 -4 7 -9 -2 -15
-15 -9 -29 -3 -29 14 0 7 4 6 10 -3 7 -11 10 -11 10 -2z m724 1 c3 -3 -4 -5
-14 -6 -11 -1 -20 2 -20 7 0 8 25 8 34 -1z m451 -81 c5 4 5 2 1 -5 -8 -14 -36
-6 -36 9 0 7 5 6 13 -1 8 -6 18 -7 22 -3z m-2460 -538 c3 -5 1 -10 -4 -10 -6
0 -11 5 -11 10 0 6 2 10 4 10 3 0 8 -4 11 -10z m1850 -190 c-3 -5 -12 -10 -18
-10 -7 0 -6 4 3 10 19 12 23 12 15 0z m-705 -9 c0 -14 -29 -21 -36 -9 -4 6 -3
8 4 4 6 -3 13 -2 17 4 8 12 15 13 15 1z m880 -81 c0 -5 -2 -10 -4 -10 -3 0 -8
5 -11 10 -3 6 -1 10 4 10 6 0 11 -4 11 -10z m-1110 -94 c0 -3 -4 -8 -10 -11
-5 -3 -10 -1 -10 4 0 6 5 11 10 11 6 0 10 -2 10 -4z"/>
<path d="M3050 6985 c0 -7 30 -13 34 -7 3 4 -4 9 -15 9 -10 1 -19 0 -19 -2z"/>
<path d="M2903 6953 c0 -9 4 -10 14 -2 7 6 13 12 13 14 0 1 -6 2 -13 2 -8 0
-14 -6 -14 -14z"/>
<path d="M2564 6882 c3 -5 0 -13 -6 -15 -9 -4 -10 -6 -1 -6 17 -1 25 16 12 25
-7 4 -9 3 -5 -4z"/>
<path d="M2460 6850 c-12 -8 -10 -9 7 -7 12 2 26 6 29 10 11 11 -19 8 -36 -3z"/>
<path d="M4545 6840 c3 -5 8 -10 11 -10 2 0 4 5 4 10 0 6 -5 10 -11 10 -5 0
-7 -4 -4 -10z"/>
<path d="M5015 6650 c3 -5 8 -10 11 -10 2 0 4 5 4 10 0 6 -5 10 -11 10 -5 0
-7 -4 -4 -10z"/>
<path d="M1933 6638 c-13 -6 -23 -15 -23 -20 0 -5 11 -1 25 8 37 24 35 30 -2
12z"/>
<path d="M5035 6531 c-3 -5 -2 -12 3 -15 5 -3 9 1 9 9 0 17 -3 19 -12 6z"/>
<path d="M4874 6456 c-10 -8 -16 -17 -13 -20 3 -3 14 3 24 14 21 23 17 26 -11
6z"/>
<path d="M5547 6323 c3 -7 8 -13 12 -13 4 0 8 6 8 13 0 8 -6 14 -13 14 -7 0
-10 -6 -7 -14z"/>
<path d="M5457 6291 c-40 -26 -47 -36 -11 -18 22 12 31 12 31 4 0 -7 -7 -13
-16 -14 -9 0 -26 -3 -39 -6 -13 -4 -20 -2 -17 4 4 5 1 9 -4 9 -6 0 -11 -7 -11
-15 0 -10 -7 -15 -17 -13 -12 2 -18 -3 -17 -15 2 -13 -1 -15 -10 -8 -9 8 -19
5 -34 -10 -14 -13 -22 -15 -22 -7 0 10 -2 10 -9 0 -4 -8 -12 -14 -17 -15 -5
-1 -8 -8 -8 -14 1 -9 -3 -10 -16 -3 -15 8 -23 4 -41 -18 -21 -26 -21 -26 -14
-3 6 21 5 22 -8 10 -8 -8 -14 -18 -14 -23 1 -5 -4 -11 -12 -14 -9 -3 -11 0 -7
9 4 8 1 6 -7 -3 -11 -14 -16 -15 -27 -5 -10 10 -12 8 -6 -7 5 -14 3 -17 -10
-12 -14 5 -15 4 -4 -9 11 -14 10 -14 -13 -6 -20 8 -30 6 -44 -7 -11 -9 -12
-13 -3 -7 10 6 9 2 -4 -12 -16 -19 -36 -23 -36 -7 0 3 5 2 12 -2 7 -4 8 -3 4
5 -10 15 -26 5 -26 -17 0 -13 -2 -13 -15 4 -14 19 -14 18 -9 -2 4 -14 0 -23
-10 -27 -9 -4 -16 -2 -16 2 0 5 6 12 13 14 9 4 9 6 0 6 -7 1 -20 -11 -28 -26
-9 -16 -14 -20 -11 -10 7 23 -6 22 -24 -3 -10 -14 -17 -17 -27 -8 -11 8 -12 7
-7 -7 5 -12 4 -16 -3 -12 -6 4 -13 0 -17 -8 -3 -8 -10 -15 -16 -15 -6 0 -8 5
-4 12 5 7 3 8 -5 4 -7 -5 -10 -15 -7 -23 4 -9 2 -11 -7 -6 -21 13 -39 12 -33
-2 7 -20 -17 -38 -32 -23 -9 9 -12 9 -12 -1 0 -7 -5 -9 -12 -5 -9 5 -8 2 1 -9
12 -15 12 -17 -4 -11 -11 5 -21 1 -27 -10 -8 -14 -12 -15 -26 -4 -13 11 -14
11 -7 -1 6 -11 4 -13 -10 -7 -15 5 -16 4 -6 -8 10 -12 8 -13 -10 -9 -17 5 -21
3 -17 -9 5 -11 0 -14 -19 -10 -18 3 -24 1 -19 -7 5 -7 0 -11 -13 -11 -12 0
-21 -4 -21 -9 0 -8 -57 -25 -74 -22 -5 1 -4 -5 3 -13 11 -13 9 -15 -9 -11 -17
3 -19 1 -11 -9 8 -10 4 -12 -19 -8 -23 3 -30 0 -30 -12 0 -9 -5 -16 -11 -16
-5 0 -7 5 -3 12 4 7 3 8 -5 4 -9 -6 -9 -11 1 -24 12 -14 10 -14 -11 -3 -13 7
-21 9 -17 3 3 -5 -1 -13 -10 -16 -8 -3 -12 -11 -8 -17 4 -8 0 -8 -15 0 -19 11
-25 8 -22 -11 0 -4 -9 -5 -20 -3 -17 4 -19 2 -8 -11 10 -12 9 -13 -6 -8 -14 6
-16 4 -11 -7 4 -8 0 -5 -8 5 -16 19 -16 19 -16 -2 0 -12 -6 -22 -12 -22 -9 0
-8 -4 2 -10 12 -8 12 -10 1 -10 -10 0 -11 -3 -2 -13 8 -10 7 -17 -2 -27 -9
-10 -9 -11 1 -6 15 9 16 -6 0 -22 -7 -7 -8 -12 -2 -12 5 0 15 5 21 11 8 8 13
7 18 -2 5 -8 4 -10 -4 -5 -13 8 -31 -32 -24 -51 3 -7 -1 -13 -8 -14 -8 0 0 -7
16 -14 17 -8 24 -14 17 -15 -8 0 -10 -5 -6 -12 6 -9 3 -9 -9 0 -14 12 -15 11
-7 -16 6 -23 5 -30 -4 -26 -7 3 -13 -2 -13 -11 0 -9 6 -14 14 -11 7 3 13 1 13
-4 0 -6 -5 -10 -11 -10 -8 0 -7 -5 1 -16 8 -8 9 -14 4 -13 -21 4 -28 -2 -14
-11 10 -6 11 -10 3 -10 -7 0 -13 -5 -13 -11 0 -5 6 -7 13 -3 6 4 3 -3 -8 -16
-11 -13 -15 -21 -9 -17 6 3 11 0 11 -9 0 -9 -7 -13 -21 -9 -12 3 -15 2 -8 -1
6 -3 10 -10 6 -15 -3 -5 0 -9 6 -9 6 0 8 -5 4 -12 -4 -7 -3 -8 5 -4 6 4 8 12
5 18 -5 7 -2 8 5 3 7 -4 11 -15 8 -24 -3 -12 3 -17 17 -19 11 0 22 -6 24 -12
3 -7 9 -7 20 2 9 7 13 8 9 2 -4 -7 5 -17 23 -24 17 -7 30 -17 30 -22 0 -6 -7
-5 -15 2 -10 9 -15 9 -15 1 0 -11 13 -15 38 -12 6 1 12 -5 12 -13 0 -10 7 -12
22 -8 17 4 20 2 15 -11 -3 -9 -1 -19 5 -23 6 -4 8 -3 4 4 -3 6 -2 13 4 17 9 5
14 -7 12 -26 -1 -4 8 -5 18 -2 12 3 20 0 20 -6 0 -7 -6 -9 -12 -5 -7 4 -9 3
-5 -2 4 -4 22 -9 39 -9 22 0 32 -6 34 -19 1 -10 8 -24 15 -30 9 -8 10 -8 5 2
-10 17 2 15 21 -3 8 -8 19 -12 25 -9 7 4 8 2 4 -4 -4 -7 -1 -12 8 -12 9 0 16
-5 16 -11 0 -5 -5 -7 -12 -3 -7 4 -8 3 -4 -5 5 -7 16 -9 28 -5 15 4 18 3 13
-6 -5 -9 -1 -10 16 -5 15 4 19 3 12 -2 -9 -7 -5 -16 17 -35 29 -25 43 -25 18
1 -11 10 -10 11 5 6 9 -4 17 -13 17 -20 0 -7 7 -16 16 -19 15 -6 15 -4 3 11
-13 16 -12 17 4 4 11 -9 16 -22 12 -35 -3 -12 -2 -15 1 -8 8 18 22 15 29 -8 3
-11 11 -20 17 -20 6 0 5 7 -3 18 -12 15 -12 16 2 5 9 -7 19 -9 23 -5 4 4 6 0
4 -8 -2 -8 2 -14 8 -13 7 1 11 -5 10 -15 -1 -11 5 -16 16 -14 9 1 20 -3 24 -9
5 -8 3 -9 -6 -4 -9 5 -11 4 -6 -3 4 -7 16 -12 27 -12 10 0 19 -5 19 -11 0 -5
5 -7 10 -4 9 5 15 -16 11 -38 -1 -5 3 -6 9 -2 6 3 8 10 6 14 -3 4 1 8 9 8 8 0
13 -5 12 -11 -1 -6 8 -10 21 -10 12 1 20 -1 17 -4 -2 -3 1 -12 7 -21 9 -11 6
-10 -9 2 -17 15 -23 16 -29 5 -4 -7 -4 -10 1 -6 7 7 76 -38 83 -54 7 -16 21
-7 16 10 -5 16 -5 16 6 -1 6 -9 15 -15 21 -12 5 3 6 -1 3 -9 -4 -11 0 -16 10
-16 9 0 16 -5 16 -11 0 -5 4 -7 10 -4 5 3 7 0 4 -8 -3 -8 2 -17 10 -20 11 -4
13 -1 9 11 -6 14 -5 15 9 2 9 -8 14 -23 12 -33 -3 -15 -1 -17 11 -7 12 10 15
8 16 -11 0 -22 1 -23 9 -4 6 15 9 16 9 4 1 -21 32 -47 53 -44 12 2 15 -2 10
-13 -5 -14 -3 -15 10 -4 13 10 15 9 13 -11 -2 -15 2 -24 11 -24 11 0 11 3 2
16 -8 10 -4 9 9 -3 13 -10 20 -23 17 -27 -3 -5 2 -9 11 -9 10 0 13 -5 9 -12
-5 -9 -2 -9 9 1 9 7 17 9 17 4 0 -5 7 -10 15 -10 8 0 15 4 15 9 0 4 -6 8 -12
8 -10 0 -9 3 1 9 7 5 11 14 7 20 -5 7 -1 8 10 4 14 -5 16 -3 11 12 -7 16 -5
16 9 4 16 -13 16 -12 5 10 -11 19 -11 22 0 16 9 -6 11 -3 6 8 -3 9 -1 19 5 23
6 4 8 3 4 -4 -3 -6 -2 -13 4 -17 6 -4 10 6 10 24 0 32 25 65 42 55 6 -4 6 2
-1 14 -10 18 -8 20 9 17 11 -2 23 1 26 7 4 7 2 8 -4 4 -7 -4 -12 -2 -12 3 0 6
5 11 11 11 8 0 7 5 -1 15 -11 13 -10 14 6 8 16 -6 17 -4 6 9 -10 13 -9 15 13
12 22 -2 24 0 14 12 -9 11 -8 14 2 14 11 0 11 2 -1 10 -11 7 -11 10 -2 10 7 0
10 5 6 11 -5 8 -1 8 13 0 18 -9 20 -7 15 16 -4 21 -2 25 12 20 14 -6 15 -4 5
16 -11 20 -11 21 5 8 14 -12 16 -12 10 4 -6 14 -4 16 7 10 12 -8 12 -6 0 8
-11 14 -11 18 3 23 10 4 15 13 12 20 -3 8 0 11 10 7 8 -3 14 -2 13 3 -1 5 3
20 9 34 6 14 11 21 12 15 0 -12 20 16 20 30 0 6 -5 3 -11 -5 -9 -12 -10 -12
-5 3 3 10 6 21 6 23 0 3 5 2 10 -1 6 -3 10 -1 10 4 0 6 6 10 13 8 7 -1 11 7 9
22 -3 17 0 21 10 15 10 -6 10 -4 -1 9 -12 15 -12 17 3 11 12 -5 15 -2 9 12 -4
12 -3 15 6 10 8 -6 10 0 7 21 -5 27 -5 27 11 8 13 -16 15 -17 10 -2 -4 10 -1
17 6 17 8 0 6 4 -3 10 -13 8 -12 10 4 10 15 0 16 3 7 14 -14 16 -4 25 22 21
15 -3 16 -1 6 11 -9 11 -8 14 2 14 11 0 11 2 -1 10 -13 8 -12 10 3 10 9 0 17
5 17 11 0 5 -5 7 -11 4 -6 -4 -5 2 3 14 7 12 18 21 25 21 7 0 13 5 13 10 0 6
-6 10 -12 10 -9 0 -8 3 2 10 9 6 17 5 23 -3 5 -7 5 -2 2 12 -6 20 -4 23 11 17
18 -6 18 -5 0 9 -19 14 -11 21 18 16 5 -1 3 5 -4 14 -11 14 -11 16 1 13 8 -2
15 7 17 20 2 16 8 22 18 18 8 -3 12 -1 9 4 -3 5 -1 19 6 31 8 17 8 20 -1 14
-7 -4 -4 4 5 19 10 14 21 26 25 26 4 0 10 9 13 20 3 11 1 18 -3 15 -5 -3 -2 8
6 25 17 33 26 40 18 13 -5 -17 -5 -17 6 0 6 9 8 22 5 27 -3 6 -2 10 4 10 6 0
7 7 4 17 -4 10 -2 14 4 10 6 -4 14 0 17 9 9 22 8 26 -5 19 -6 -4 -5 2 3 14 7
12 17 21 22 21 4 0 3 -6 -3 -14 -9 -11 -9 -16 0 -22 7 -4 9 -3 5 4 -3 6 -2 13
3 17 5 3 8 14 6 25 -2 11 1 20 7 20 5 0 7 7 4 16 -5 12 -2 15 9 10 9 -3 13 -2
10 3 -3 5 -1 12 4 15 20 13 -5 67 -27 58 -15 -5 -15 -4 -3 11 12 15 12 17 -3
11 -12 -5 -19 0 -23 15 -3 11 -9 18 -14 15 -5 -2 -11 6 -15 20 -4 15 -11 23
-20 19 -9 -3 -12 2 -9 17 4 18 2 20 -11 9 -8 -7 -14 -8 -13 -3 1 5 1 18 0 29
-1 17 -3 18 -11 5 -8 -13 -10 -12 -10 3 0 9 -5 17 -11 17 -5 0 -7 4 -4 10 3 5
0 7 -8 4 -8 -3 -18 0 -23 7 -5 8 -3 10 7 5 8 -4 6 -1 -3 7 -10 8 -14 18 -10
22 4 4 -3 2 -15 -4 -19 -10 -22 -9 -17 4 7 17 -21 49 -35 41 -5 -3 -7 3 -4 13
4 16 0 19 -20 17 -19 -2 -24 1 -19 12 4 10 1 13 -7 8 -8 -5 -11 -3 -10 5 2 8
-14 31 -34 52 -20 21 -34 32 -31 24 3 -8 0 -18 -6 -22 -6 -3 -10 -3 -9 2 4 23
-2 35 -16 30 -8 -4 -17 -1 -21 5 -4 7 -3 8 4 4 7 -4 12 -2 12 3 0 6 -7 11 -15
11 -8 0 -15 5 -15 10 0 6 -6 10 -13 10 -7 0 -22 7 -33 16 -18 15 -18 15 3 5
32 -16 42 -13 13 4 -14 8 -34 12 -45 9 -15 -4 -17 -3 -6 4 12 9 11 13 -4 29
-17 16 -18 16 -12 1 3 -10 2 -18 -3 -18 -6 0 -10 7 -10 16 0 9 -5 12 -12 8
-10 -6 -10 -5 0 8 11 13 6 15 -35 13 -27 -1 -57 -6 -67 -10 -14 -6 -17 -5 -12
3 9 15 7 14 -27 -7z m353 -172 c0 -6 -4 -7 -10 -4 -5 3 -10 11 -10 16 0 6 5 7
10 4 6 -3 10 -11 10 -16z m40 -24 c0 -12 -19 -12 -23 0 -4 9 -1 12 9 8 7 -3
14 -7 14 -8z m-1624 -643 c-17 -16 -18 -16 -5 5 7 12 15 20 18 17 3 -2 -3 -12
-13 -22z m824 -842 c0 -5 -2 -10 -4 -10 -3 0 -8 5 -11 10 -3 6 -1 10 4 10 6 0
11 -4 11 -10z m220 -171 c0 -6 -4 -7 -10 -4 -5 3 -10 11 -10 16 0 6 5 7 10 4
6 -3 10 -11 10 -16z"/>
<path d="M4550 6279 c0 -5 5 -7 10 -4 6 3 10 8 10 11 0 2 -4 4 -10 4 -5 0 -10
-5 -10 -11z"/>
<path d="M3375 6230 c-3 -5 -1 -10 4 -10 6 0 11 5 11 10 0 6 -2 10 -4 10 -3 0
-8 -4 -11 -10z"/>
<path d="M3570 6220 c0 -5 5 -10 11 -10 5 0 7 5 4 10 -3 6 -8 10 -11 10 -2 0
-4 -4 -4 -10z"/>
<path d="M3604 6209 c-3 -6 -3 -13 0 -16 3 -4 6 -1 6 7 0 10 3 10 15 0 9 -7
17 -11 20 -9 2 3 -4 10 -15 17 -13 8 -21 8 -26 1z"/>
<path d="M1234 6177 c-6 -7 -10 -20 -8 -30 1 -9 -2 -17 -7 -17 -5 0 -9 5 -9
11 0 5 -4 8 -10 4 -5 -3 -8 -11 -6 -18 1 -7 1 -9 -1 -4 -8 13 -25 7 -20 -8 4
-8 1 -17 -5 -21 -7 -5 -8 -2 -4 7 4 8 -1 3 -12 -10 -11 -14 -24 -21 -31 -17
-6 4 -11 4 -10 -1 3 -19 -2 -33 -12 -33 -5 0 -7 6 -3 13 4 6 -2 3 -14 -7 -16
-14 -19 -22 -11 -32 8 -10 6 -12 -9 -9 -12 2 -26 -3 -33 -11 -6 -8 -8 -14 -4
-14 4 0 2 -6 -4 -13 -6 -8 -7 -18 -3 -23 4 -4 -2 -2 -12 6 -17 13 -18 13 -11
1 6 -11 4 -13 -11 -7 -10 4 -15 4 -11 0 4 -4 1 -14 -7 -23 -8 -9 -16 -25 -18
-36 -2 -12 -10 -19 -21 -17 -12 2 -17 -4 -17 -19 0 -19 -2 -20 -17 -8 -15 13
-15 12 -4 -9 12 -23 12 -23 -11 -11 -21 11 -22 11 -9 -4 12 -15 11 -17 -5 -18
-11 0 -14 -3 -6 -6 6 -2 9 -9 6 -14 -4 -6 -11 -6 -19 1 -10 8 -15 8 -21 -1 -4
-8 -3 -9 4 -5 7 4 12 3 12 -2 0 -6 -7 -12 -15 -16 -8 -3 -15 -16 -15 -28 0
-19 -2 -20 -10 -8 -9 13 -14 7 -11 -12 0 -5 -3 -8 -8 -8 -5 0 -12 -9 -16 -19
-4 -14 -11 -18 -23 -14 -15 6 -16 5 -2 -12 8 -10 10 -16 4 -12 -7 4 -15 0 -18
-9 -4 -10 -2 -13 6 -8 7 4 8 3 4 -4 -4 -7 -16 -12 -27 -12 -10 0 -19 -5 -19
-11 0 -5 4 -8 8 -5 5 3 9 -2 9 -10 0 -8 -6 -13 -14 -10 -7 3 -13 -1 -13 -9 0
-8 -8 -15 -17 -15 -13 0 -14 -3 -6 -8 10 -6 10 -12 -2 -28 -15 -19 -15 -19 -9
1 5 18 5 18 -6 2 -6 -9 -14 -15 -18 -13 -4 2 -7 -11 -7 -30 1 -29 -1 -32 -14
-21 -12 10 -14 9 -8 -5 3 -10 2 -18 -4 -18 -6 0 -7 -5 -3 -12 4 -7 3 -8 -4 -4
-11 7 -17 -6 -13 -27 1 -5 -4 -5 -10 -1 -9 5 -10 2 -6 -10 5 -12 2 -16 -10
-14 -9 2 -18 -3 -21 -11 -3 -9 0 -11 9 -7 8 4 6 1 -5 -8 -10 -8 -15 -20 -10
-27 4 -8 3 -10 -4 -5 -7 4 -12 2 -12 -4 0 -6 -4 -9 -9 -6 -10 7 -9 -13 2 -30
4 -7 -2 -10 -17 -9 -20 3 -23 -1 -22 -35 1 -30 -1 -36 -11 -28 -10 8 -13 5
-13 -11 0 -12 -4 -19 -10 -16 -5 3 -10 1 -10 -4 0 -6 6 -11 13 -11 8 0 7 -4
-3 -10 -8 -5 -11 -10 -6 -10 5 0 1 -9 -9 -20 -9 -10 -15 -26 -11 -35 3 -10 2
-14 -5 -10 -6 4 -19 -1 -30 -11 -14 -13 -16 -20 -8 -31 9 -10 8 -13 -1 -13 -7
0 -10 -7 -6 -15 3 -8 1 -15 -5 -15 -6 0 -7 -6 -3 -12 6 -10 4 -10 -8 0 -14 11
-16 11 -14 -2 1 -9 5 -19 9 -22 4 -4 2 -13 -4 -21 -8 -9 -8 -13 -1 -13 6 0 13
-9 17 -19 3 -11 16 -21 28 -23 17 -2 22 -9 21 -29 -1 -21 3 -25 22 -23 16 1
21 -2 17 -12 -3 -8 0 -14 7 -14 6 0 9 -4 6 -9 -3 -5 1 -12 10 -15 8 -3 12 -2
9 3 -3 5 -1 12 4 15 10 7 9 -20 -2 -30 -4 -4 -7 -12 -7 -18 0 -6 4 -5 9 3 8
13 12 13 26 1 9 -7 14 -21 12 -30 -2 -9 2 -17 9 -17 7 0 10 5 7 10 -4 6 -1 7
6 3 7 -5 10 -14 7 -21 -6 -17 13 -35 38 -35 17 0 18 -2 6 -10 -13 -9 -13 -10
0 -11 8 -1 22 0 29 1 12 1 13 -1 2 -13 -10 -12 -8 -18 8 -29 12 -8 18 -18 13
-22 -4 -4 -2 -7 3 -6 21 4 53 -12 49 -25 -3 -7 0 -16 7 -21 8 -4 10 -3 5 4 -4
7 -3 12 3 12 5 0 13 -10 16 -21 6 -17 9 -19 17 -8 7 10 8 8 5 -9 -4 -18 -3
-21 7 -13 10 8 18 5 32 -12 19 -22 19 -22 -2 -4 -17 14 -21 14 -21 3 0 -8 3
-14 6 -13 3 1 16 -4 27 -11 12 -6 25 -8 30 -4 5 4 3 0 -4 -10 -15 -18 -7 -25
26 -22 12 0 22 -3 22 -8 0 -6 -8 -7 -18 -3 -14 5 -15 4 -4 -7 7 -7 17 -14 23
-14 5 -1 15 -2 22 -3 8 -1 7 -4 -3 -11 -13 -8 -12 -10 3 -10 10 0 16 -4 13 -8
-3 -5 1 -9 9 -9 8 0 15 4 15 9 0 4 5 8 11 8 5 0 8 -4 5 -8 -7 -11 31 -8 41 3
5 4 2 5 -4 1 -7 -4 -13 -2 -13 3 0 6 7 11 15 11 9 0 18 7 22 16 3 8 12 13 19
10 8 -3 19 3 26 13 7 11 18 17 26 13 11 -4 13 -1 7 8 -5 8 -4 11 3 6 6 -3 18
1 26 10 12 11 16 12 16 2 0 -10 2 -10 8 -1 5 7 20 14 35 15 21 2 24 5 14 17
-10 12 -9 13 12 1 20 -10 23 -10 18 2 -3 8 1 15 9 15 7 0 11 -4 8 -9 -3 -4 -1
-8 5 -8 5 0 12 6 14 13 4 8 6 8 6 -2 1 -11 5 -10 17 5 8 10 13 13 9 7 -4 -9 2
-12 20 -11 16 2 24 7 21 15 -3 7 0 15 6 19 7 4 8 3 4 -4 -4 -7 -3 -12 3 -12 5
0 12 4 16 10 3 5 12 7 20 4 8 -4 12 -11 8 -17 -3 -6 -1 -7 5 -3 7 4 12 15 12
24 0 10 3 13 8 7 12 -17 47 -41 38 -27 -8 13 -6 14 36 16 23 2 25 0 15 -13
-10 -12 -9 -13 11 -2 14 7 22 8 22 1 0 -5 7 -10 16 -10 14 0 15 2 3 18 -12 15
-12 16 2 5 9 -7 20 -9 24 -5 5 4 5 2 2 -4 -12 -21 61 -39 75 -20 9 13 40 -13
31 -27 -3 -6 -1 -7 6 -3 6 4 9 12 6 17 -4 5 -1 9 4 9 6 0 12 -4 12 -10 1 -5 2
-14 3 -19 0 -5 5 -13 10 -18 5 -5 6 -3 2 5 -9 15 9 16 37 0 21 -11 21 -10 7 8
-14 19 -14 19 8 0 15 -13 22 -15 22 -6 0 7 3 10 6 7 4 -4 1 -14 -7 -23 -12
-15 -12 -17 1 -12 8 3 21 -2 28 -11 11 -14 11 -14 6 4 -5 19 -5 19 9 3 8 -10
17 -15 20 -11 4 3 7 -2 7 -12 0 -15 2 -16 17 -4 11 10 14 10 9 1 -8 -14 28
-12 41 3 5 4 2 5 -6 0 -10 -6 -12 -4 -7 4 5 7 15 10 23 6 14 -5 14 -3 2 11
-13 16 -12 16 10 5 13 -7 21 -8 17 -3 -3 6 4 19 17 29 13 10 22 23 20 29 -2 7
3 14 12 17 8 4 15 1 15 -5 0 -6 3 -8 6 -5 4 4 1 13 -6 22 -11 13 -10 14 4 9
10 -4 18 0 22 11 4 9 13 14 20 11 9 -3 11 0 7 11 -5 12 -2 15 9 11 11 -5 14 0
12 18 -2 22 0 23 14 12 10 -8 13 -9 9 -1 -4 6 -3 14 3 18 6 4 8 10 5 14 -2 5
7 7 20 5 14 -1 23 2 19 7 -3 5 0 9 7 9 8 0 8 4 -1 15 -11 13 -10 14 3 10 8 -4
18 -1 22 4 3 6 12 8 18 4 7 -4 5 2 -3 12 -9 11 -10 16 -2 11 6 -4 12 -2 12 3
0 6 5 11 11 11 5 0 7 -5 3 -12 -4 -7 -3 -8 4 -4 6 4 9 13 5 22 -6 16 17 16 28
1 3 -5 9 -1 12 8 4 9 3 13 -3 10 -6 -3 -10 1 -10 10 0 11 5 15 14 12 13 -5 28
13 30 36 1 4 4 7 9 7 4 0 10 0 14 0 3 0 0 -8 -8 -18 -8 -10 -4 -7 9 6 12 13
20 28 17 33 -6 9 8 13 33 10 7 -1 11 3 10 10 -2 6 3 14 11 17 9 3 11 0 6 -8
-5 -9 -4 -11 4 -6 9 6 9 11 -1 24 -7 9 -8 13 -2 9 6 -3 17 4 23 17 9 16 20 22
37 20 20 -2 22 0 14 17 -8 15 -7 17 5 13 8 -4 21 -1 29 5 7 6 17 7 21 3 5 -4
5 -1 1 6 -6 11 -11 11 -24 0 -15 -12 -16 -11 -4 4 8 9 20 14 28 11 10 -4 12 0
8 11 -3 9 -1 16 5 16 6 0 11 -4 11 -10 0 -5 4 -10 9 -10 4 0 8 10 7 22 -1 15
5 23 16 23 9 0 24 9 33 20 9 11 13 14 9 6 -5 -9 -3 -12 4 -7 9 5 9 13 0 29
-10 20 -9 21 5 9 13 -11 15 -10 10 7 -3 11 -11 17 -17 15 -7 -3 -13 2 -13 10
0 8 4 13 9 10 4 -3 8 0 8 5 0 6 -7 11 -15 11 -9 0 -12 6 -8 17 5 12 3 14 -8 8
-11 -6 -12 -5 -1 6 6 7 12 18 12 24 0 5 -5 3 -11 -5 -8 -12 -10 -8 -6 17 3 25
1 30 -9 22 -8 -7 -14 -7 -19 1 -3 5 -1 10 6 10 8 0 7 5 -2 17 -8 9 -9 14 -4
11 7 -4 11 5 10 21 0 20 -4 27 -14 23 -10 -4 -12 -1 -6 9 12 18 14 49 3 43 -8
-5 -9 1 -11 44 -1 9 -6 21 -12 25 -6 6 -3 7 6 4 13 -4 16 -1 11 16 -2 12 -9
28 -15 35 -6 8 -6 12 2 12 6 0 11 7 11 16 0 8 4 13 9 9 5 -3 13 0 17 6 5 8 3
9 -5 5 -15 -10 -11 25 4 36 6 5 5 8 -2 8 -7 0 -13 5 -13 11 0 5 4 8 8 5 5 -3
9 1 9 9 0 8 -5 11 -10 8 -6 -4 -8 0 -5 9 4 8 -3 20 -14 27 -19 12 -20 11 -14
-5 7 -17 5 -17 -12 1 -11 11 -17 25 -14 30 3 6 -1 5 -9 -2 -12 -10 -20 -8 -42
11 -15 13 -23 27 -19 31 4 5 1 5 -6 1 -7 -5 -10 -13 -5 -20 4 -7 1 -4 -8 5
-13 14 -19 15 -29 6 -9 -9 -11 -9 -6 0 3 7 -6 17 -23 24 -16 7 -27 18 -23 24
3 5 -2 4 -11 -4 -11 -8 -17 -9 -17 -3 0 6 -7 9 -15 6 -11 -5 -13 -2 -8 12 4
12 3 15 -5 10 -7 -4 -12 -2 -12 6 0 9 -3 9 -10 -2 -8 -12 -10 -12 -10 -1 0 10
-3 11 -13 2 -14 -11 -27 -5 -27 13 0 6 5 4 10 -4 5 -8 10 -10 10 -4 0 19 -11
23 -37 13 -16 -6 -22 -6 -18 1 3 6 -1 13 -9 16 -9 3 -13 11 -9 17 3 5 1 7 -5
4 -15 -10 -43 3 -35 17 4 6 -1 5 -10 -3 -15 -12 -17 -11 -17 3 0 14 -4 15 -20
6 -14 -8 -20 -8 -20 0 0 6 -6 8 -12 4 -9 -5 -8 -2 1 9 8 10 11 20 7 24 -3 3
-6 2 -6 -4 0 -16 -28 -24 -36 -11 -5 7 -2 8 6 3 9 -5 11 -4 6 4 -6 9 -11 9
-22 0 -11 -9 -16 -6 -24 17 -8 20 -14 24 -22 16 -8 -8 -17 -8 -30 -1 -10 5
-24 7 -30 3 -7 -5 -8 -3 -3 6 6 10 3 12 -14 7 -18 -4 -20 -3 -10 9 6 8 9 17 5
21 -3 3 -6 1 -6 -5 0 -6 -7 -9 -17 -5 -12 5 -14 3 -8 -8 5 -8 5 -11 -1 -6 -5
5 -10 13 -10 18 -1 5 -2 12 -3 16 0 4 -8 -2 -16 -13 -15 -19 -15 -19 -8 0 5
16 3 18 -12 13 -15 -6 -16 -5 -6 7 10 12 5 14 -30 12 -28 -2 -48 4 -63 16 -21
19 -21 19 7 2 25 -15 27 -15 21 0 -3 9 -10 14 -14 11 -5 -3 -12 -1 -15 5 -5 8
-11 7 -21 -1 -13 -11 -19 -5 -15 15 1 5 -5 3 -14 -4 -12 -10 -18 -11 -28 -1
-9 10 -8 11 8 5 25 -9 18 -1 -14 16 -15 7 -21 8 -17 1 12 -19 -28 1 -46 24
-10 11 -17 16 -18 12 0 -4 -9 -3 -19 3 -14 7 -21 6 -24 -3 -4 -9 -6 -9 -6 1
-1 7 -5 10 -11 7 -5 -3 -10 0 -10 7 0 9 -3 9 -10 -2 -8 -12 -10 -11 -10 8 0
12 -5 22 -11 22 -5 0 -8 -4 -5 -8 3 -5 -9 -8 -27 -7 -18 1 -33 7 -33 13 -1 7
-2 16 -3 21 0 5 -10 7 -21 4 -13 -3 -20 0 -20 8 0 11 -2 11 -10 -1 -8 -12 -10
-12 -10 -1 0 11 -3 11 -17 0 -12 -10 -15 -11 -9 -1 6 9 1 11 -18 8 -18 -3 -23
-1 -19 10 6 17 2 17 -13 1z m-144 -147 c0 -5 -5 -10 -11 -10 -5 0 -7 5 -4 10
3 6 8 10 11 10 2 0 4 -4 4 -10z m-36 -38 c3 -5 -1 -9 -9 -9 -8 0 -12 4 -9 9 3
4 7 8 9 8 2 0 6 -4 9 -8z m-67 -77 c0 -8 -4 -12 -9 -9 -5 3 -6 10 -3 15 9 13
12 11 12 -6z m984 -28 c-10 -9 -11 -8 -5 6 3 10 9 15 12 12 3 -3 0 -11 -7 -18z
m-1190 -220 c-10 -9 -11 -8 -5 6 3 10 9 15 12 12 3 -3 0 -11 -7 -18z m1794
-337 c3 -6 -1 -7 -9 -4 -18 7 -21 14 -7 14 6 0 13 -4 16 -10z m-2098 -95 c0
-8 -4 -12 -9 -9 -5 3 -6 10 -3 15 9 13 12 11 12 -6z m-102 -195 c-3 -5 -12
-10 -18 -10 -7 0 -6 4 3 10 19 12 23 12 15 0z m172 -365 c0 -8 -4 -12 -9 -9
-5 3 -6 10 -3 15 9 13 12 11 12 -6z m108 -104 c-6 -5 -25 10 -25 20 0 5 6 4
14 -3 8 -7 12 -15 11 -17z m935 -81 c0 -5 -2 -10 -4 -10 -3 0 -8 5 -11 10 -3
6 -1 10 4 10 6 0 11 -4 11 -10z m390 -34 c0 -2 -8 -10 -17 -17 -16 -13 -17
-12 -4 4 13 16 21 21 21 13z m-955 -45 c3 -5 2 -12 -3 -15 -5 -3 -9 1 -9 9 0
17 3 19 12 6z m-55 -31 c0 -5 -2 -10 -4 -10 -3 0 -8 5 -11 10 -3 6 -1 10 4 10
6 0 11 -4 11 -10z"/>
<path d="M1265 6180 c-3 -6 1 -7 9 -4 18 7 21 14 7 14 -6 0 -13 -4 -16 -10z"/>
<path d="M1386 6132 c-2 -4 4 -8 14 -8 10 0 16 4 14 8 -3 4 -9 8 -14 8 -5 0
-11 -4 -14 -8z"/>
<path d="M4160 6060 c-9 -6 -10 -10 -3 -10 6 0 15 5 18 10 8 12 4 12 -15 0z"/>
<path d="M3925 6029 c-4 -6 -4 -13 -1 -16 3 -4 6 -1 6 6 0 7 5 9 12 5 7 -4 8
-3 4 4 -9 15 -13 15 -21 1z"/>
<path d="M3375 5840 c-3 -5 -1 -10 4 -10 6 0 11 5 11 10 0 6 -2 10 -4 10 -3 0
-8 -4 -11 -10z"/>
<path d="M3402 5845 c12 -13 -12 -35 -29 -28 -12 5 -14 3 -8 -8 7 -10 1 -9
-18 4 -18 12 -25 13 -21 4 3 -8 -2 -14 -10 -14 -8 0 -13 4 -11 8 7 10 -22 5
-32 -6 -4 -4 -2 -5 6 0 10 6 12 4 7 -4 -6 -8 -12 -9 -20 -2 -9 8 -18 6 -32 -5
-18 -14 -18 -15 3 -4 18 8 21 8 18 -3 -5 -11 -19 -16 -63 -19 -7 -1 -30 -17
-51 -37 -20 -20 -24 -25 -8 -11 17 14 26 18 22 10 -5 -8 -17 -21 -27 -28 -10
-7 -16 -18 -13 -23 9 -14 -2 -11 -18 6 -13 13 -15 10 -12 -20 2 -20 0 -33 -5
-30 -5 3 -6 13 -3 23 4 13 2 13 -10 -3 -20 -24 -22 -39 -4 -30 6 4 3 -1 -8
-10 -11 -9 -20 -19 -20 -23 0 -4 -3 -6 -7 -5 -4 2 -5 -4 -2 -12 4 -8 11 -12
17 -8 6 3 7 1 3 -6 -5 -8 -12 -9 -20 -2 -8 7 -12 4 -13 -10 -1 -11 2 -17 7
-14 6 3 7 -1 4 -9 -3 -9 -11 -16 -17 -16 -7 0 -7 -4 1 -12 17 -17 15 -28 -4
-28 -8 0 -12 -5 -9 -10 4 -6 10 -8 14 -6 4 3 8 -1 8 -9 0 -8 -5 -15 -11 -15
-6 0 -4 -5 4 -10 8 -5 10 -10 4 -10 -8 0 -9 -11 -4 -35 5 -23 4 -36 -4 -39 -6
-2 -3 -5 7 -5 9 -1 17 -6 17 -12 0 -5 5 -7 12 -3 7 4 8 3 4 -5 -4 -6 -11 -9
-16 -6 -5 3 -12 0 -16 -6 -4 -8 -3 -9 4 -5 7 4 12 3 12 -3 0 -5 11 -22 25 -37
13 -14 22 -32 18 -38 -4 -6 0 -5 9 2 14 11 16 10 14 -12 -2 -14 0 -25 3 -24
20 2 31 -4 31 -16 0 -8 10 -16 23 -18 15 -2 21 -9 19 -21 -2 -9 1 -17 5 -16
29 5 53 -2 47 -13 -5 -10 -4 -10 6 -1 14 13 40 7 40 -9 0 -6 -7 -5 -15 2 -13
11 -14 10 -9 -3 6 -16 40 -20 59 -7 10 7 58 -13 50 -21 -2 -3 11 -4 30 -4 18
0 31 3 29 7 -2 3 3 5 12 4 8 -1 20 -9 25 -17 7 -11 9 -11 9 -1 0 7 4 11 9 7 5
-3 12 -1 16 4 3 6 -4 8 -15 6 -11 -2 -18 0 -15 5 3 5 15 6 28 4 24 -6 26 -6
72 -1 20 2 29 8 28 18 -2 9 6 15 19 16 13 1 24 7 26 13 2 5 9 7 15 3 6 -4 8 0
5 9 -4 10 -1 15 10 14 10 0 18 2 20 7 4 14 37 44 45 40 4 -2 7 5 7 16 0 15 4
19 18 14 15 -6 15 -5 3 11 -8 9 -10 16 -5 15 24 -4 32 2 26 23 -3 14 -2 19 6
14 7 -4 12 -2 12 4 0 6 5 8 12 4 7 -4 8 -3 4 5 -4 6 -12 9 -17 6 -5 -4 -9 -1
-9 4 0 6 5 11 10 11 6 0 10 7 10 15 0 8 3 15 8 15 4 0 7 20 8 45 0 24 -3 42
-7 40 -4 -3 -5 4 -2 15 3 11 9 18 12 15 4 -2 8 2 8 10 0 8 -4 12 -10 8 -5 -3
-7 5 -5 18 2 13 -4 32 -14 43 -9 10 -14 24 -11 32 3 8 -1 14 -8 14 -12 0 -11
2 0 9 11 7 10 12 -8 22 -11 8 -21 17 -21 22 0 4 5 5 12 1 6 -4 3 4 -8 18 -10
14 -21 24 -23 22 -2 -2 2 -12 10 -21 13 -17 13 -17 -4 -4 -11 9 -16 22 -13 33
3 15 2 17 -9 8 -10 -8 -15 -6 -20 9 -3 12 -13 21 -21 21 -9 0 -12 5 -8 11 4 8
-1 9 -17 4 -21 -7 -22 -6 -11 7 10 13 10 17 -3 22 -11 4 -14 2 -10 -7 4 -6 0
-4 -8 5 -8 11 -17 14 -23 8 -6 -6 -20 0 -38 15 -22 19 -32 22 -42 14 -11 -9
-15 -7 -20 5 -3 9 -11 16 -16 16 -6 0 -7 -7 -4 -16 5 -13 4 -14 -7 -6 -8 7
-17 9 -20 5 -4 -3 -7 -1 -7 6 0 9 -5 9 -22 0 -20 -11 -22 -11 -10 3 11 13 11
18 0 24 -7 4 -10 4 -6 -1z m-212 -99 c0 -3 -4 -8 -10 -11 -5 -3 -10 -1 -10 4
0 6 5 11 10 11 6 0 10 -2 10 -4z m390 -662 c0 -2 -9 0 -20 6 -11 6 -20 13 -20
16 0 2 9 0 20 -6 11 -6 20 -13 20 -16z"/>
<path d="M6115 5840 c-3 -5 -1 -10 4 -10 6 0 11 5 11 10 0 6 -2 10 -4 10 -3 0
-8 -4 -11 -10z"/>
<path d="M3560 5806 c0 -2 7 -9 15 -16 13 -11 14 -10 9 4 -5 14 -24 23 -24 12z"/>
<path d="M2487 5679 c7 -7 15 -10 18 -7 3 3 -2 9 -12 12 -14 6 -15 5 -6 -5z"/>
<path d="M3790 5565 c0 -2 6 -8 13 -14 10 -8 14 -7 14 2 0 8 -6 14 -14 14 -7
0 -13 -1 -13 -2z"/>
<path d="M2570 5483 c0 -5 5 -15 10 -23 7 -12 9 -10 7 8 -1 19 -17 33 -17 15z"/>
<path d="M2575 5380 c3 -5 8 -10 11 -10 2 0 4 5 4 10 0 6 -5 10 -11 10 -5 0
-7 -4 -4 -10z"/>
<path d="M6440 5338 c0 -5 6 -6 13 -2 7 4 9 3 4 -2 -5 -5 -14 -9 -19 -9 -6 0
-13 -6 -16 -13 -2 -8 3 -10 15 -6 17 5 17 5 0 -6 -9 -6 -14 -16 -11 -22 5 -7
1 -9 -9 -5 -9 3 -19 2 -22 -3 -4 -6 -1 -10 5 -10 6 0 8 -5 5 -10 -4 -6 -12 -7
-18 -3 -7 4 -6 -1 2 -10 12 -15 12 -17 -1 -12 -11 4 -15 -1 -15 -17 -1 -42 -4
-63 -10 -50 -2 6 -9 12 -14 12 -4 0 -5 -7 -2 -17 5 -11 3 -14 -6 -8 -10 6 -11
2 -6 -15 5 -17 4 -21 -6 -15 -9 6 -11 4 -6 -8 4 -12 2 -14 -11 -10 -14 6 -15
4 -4 -9 10 -13 10 -18 1 -24 -8 -5 -9 -3 -4 6 5 9 4 11 -3 6 -7 -4 -12 -16
-12 -28 0 -13 -5 -18 -13 -15 -10 4 -13 -2 -9 -18 2 -12 -2 -26 -9 -30 -8 -6
-10 -4 -4 5 5 9 4 11 -4 6 -9 -6 -9 -11 -1 -21 12 -14 -11 -40 -26 -27 -4 4
-2 -1 5 -11 12 -15 12 -17 -4 -11 -12 5 -16 4 -12 -3 4 -6 0 -19 -9 -27 -12
-13 -13 -20 -5 -30 9 -11 8 -14 -5 -12 -9 0 -23 -10 -32 -24 -10 -13 -11 -21
-5 -17 9 6 11 3 7 -7 -7 -19 -21 -21 -27 -3 -2 6 -4 -3 -5 -21 0 -18 -5 -39
-11 -46 -6 -7 -7 -17 -3 -22 4 -4 0 -3 -10 4 -12 10 -18 10 -24 1 -4 -7 -3 -9
3 -6 6 4 14 0 17 -9 4 -10 2 -13 -6 -8 -7 5 -9 0 -6 -14 5 -19 3 -20 -13 -12
-15 9 -17 7 -12 -5 3 -10 -3 -24 -16 -36 -11 -11 -21 -23 -21 -26 0 -4 5 -2
12 5 20 20 30 14 11 -6 -11 -12 -22 -16 -29 -10 -8 6 -11 3 -10 -9 0 -10 6
-21 11 -25 6 -4 0 -8 -12 -8 -12 0 -25 -5 -29 -12 -5 -7 -2 -8 7 -3 8 5 11 5
7 0 -4 -4 -3 -14 4 -22 6 -8 7 -13 2 -12 -21 4 -34 -2 -34 -15 0 -8 -5 -18
-12 -22 -7 -5 -8 -2 -3 7 5 8 4 11 -1 6 -4 -4 -8 -20 -9 -35 0 -16 -6 -27 -14
-27 -8 0 -16 -6 -19 -14 -3 -8 0 -11 7 -7 6 4 11 5 11 1 0 -3 -15 -14 -32 -25
-18 -11 -27 -20 -20 -20 6 0 12 -5 12 -11 0 -5 -5 -7 -12 -3 -8 5 -9 0 -5 -15
4 -18 3 -20 -8 -11 -10 8 -15 8 -21 -1 -4 -8 -3 -9 4 -5 7 4 12 2 12 -3 0 -6
-5 -11 -11 -11 -5 0 -7 -4 -4 -10 3 -5 1 -10 -5 -10 -7 0 -10 -7 -6 -17 5 -16
4 -15 -9 1 -13 18 -14 16 -12 -16 2 -26 0 -35 -10 -31 -7 3 -13 0 -13 -7 0 -7
-7 -10 -16 -6 -8 3 -12 2 -9 -4 11 -18 14 -51 4 -45 -5 4 -6 11 -3 17 5 7 2 8
-5 4 -7 -5 -10 -10 -7 -14 3 -3 -2 -11 -12 -19 -9 -8 -11 -12 -4 -8 6 3 12 2
12 -3 0 -6 -7 -13 -16 -16 -8 -3 -13 -10 -9 -15 3 -5 0 -13 -6 -17 -8 -5 -9
-3 -4 6 5 9 4 11 -4 6 -9 -6 -9 -11 0 -22 13 -16 33 -19 24 -4 -3 6 -1 10 4
10 14 0 14 -13 -1 -28 -9 -9 -9 -12 3 -13 7 -1 17 -1 22 0 7 1 11 -15 8 -33
-1 -5 6 -3 15 5 10 8 15 9 11 2 -4 -7 1 -14 13 -18 17 -5 18 -10 9 -28 -9 -18
-9 -20 2 -9 19 18 34 15 18 -4 -11 -13 -11 -15 2 -13 19 3 49 -11 49 -23 0 -5
-4 -6 -10 -3 -5 3 -10 1 -10 -4 0 -15 13 -14 29 2 10 10 12 9 9 -3 -2 -9 3
-14 11 -12 11 2 12 0 3 -11 -16 -18 -4 -29 18 -17 19 10 47 -10 33 -23 -3 -4
-1 -7 5 -7 7 0 12 -5 12 -11 0 -5 -5 -7 -12 -3 -7 4 -8 3 -4 -4 4 -6 13 -9 21
-5 8 3 15 0 15 -7 0 -6 4 -9 9 -5 6 3 8 -6 5 -22 -5 -27 -5 -27 11 -8 14 17
16 18 11 2 -4 -12 -2 -16 6 -11 7 5 9 2 5 -8 -4 -12 0 -15 17 -14 13 2 23 -3
23 -10 0 -7 -7 -10 -16 -6 -13 5 -14 4 -1 -10 8 -8 24 -13 35 -10 20 4 20 4 0
-12 -17 -13 -17 -15 -2 -10 12 4 27 -4 47 -25 17 -17 30 -35 30 -41 0 -5 6
-10 14 -10 7 0 20 -8 27 -17 13 -17 13 -17 -6 -3 -19 14 -19 14 -6 -3 8 -10
21 -15 30 -12 13 5 14 4 4 -6 -7 -7 -13 -18 -13 -23 0 -6 5 -4 11 4 7 11 12
12 15 3 3 -7 13 -9 22 -6 13 4 12 2 -3 -10 -20 -16 -20 -16 3 -12 21 4 22 2
10 -12 -9 -12 -9 -15 0 -9 6 4 12 3 12 -3 0 -6 7 -8 15 -5 11 5 13 2 8 -12 -5
-13 -3 -15 7 -9 10 6 12 4 6 -10 -5 -15 -4 -16 9 -5 13 11 16 11 13 -1 -2 -8
-7 -18 -13 -22 -6 -5 -3 -7 8 -3 27 9 50 -4 36 -20 -9 -10 -6 -12 11 -9 13 2
20 1 16 -2 -3 -4 1 -17 9 -29 11 -17 12 -24 2 -28 -6 -3 0 -3 15 -1 15 2 31
-1 34 -7 4 -7 2 -8 -4 -4 -18 11 -14 -3 7 -25 12 -13 25 -18 33 -14 10 6 11 5
1 -6 -16 -16 -17 -29 -2 -29 5 0 8 4 5 9 -3 5 0 11 8 14 7 3 13 0 13 -6 -1
-29 4 -50 9 -44 9 9 49 -32 49 -51 0 -10 9 -18 23 -20 14 -2 22 -10 22 -23 0
-16 5 -19 23 -15 12 3 16 3 10 0 -7 -3 -13 -10 -13 -15 0 -5 6 -9 13 -9 6 -1
26 -18 42 -39 17 -21 34 -36 39 -33 5 3 6 0 2 -7 -5 -8 -21 2 -48 31 l-40 43
38 -47 c21 -27 42 -48 46 -48 4 0 8 -8 8 -17 0 -16 2 -16 11 -3 9 12 10 11 6
-7 -3 -13 0 -26 5 -30 7 -3 8 -1 4 5 -4 7 -2 12 3 12 6 0 11 -5 11 -11 0 -5 6
-7 13 -3 8 5 8 2 -2 -9 -11 -14 -2 -25 12 -14 2 1 11 -4 21 -12 13 -11 14 -16
4 -29 -11 -13 -11 -14 1 -7 11 6 13 4 8 -7 -8 -22 3 -30 21 -15 13 9 14 9 8 0
-4 -8 -2 -13 5 -13 8 0 8 -4 -1 -15 -7 -9 -10 -18 -6 -22 3 -3 6 -1 6 5 0 6 6
9 14 6 8 -3 17 0 22 7 4 8 3 10 -4 5 -7 -4 -12 -3 -12 2 0 6 7 13 16 16 8 3
12 10 9 16 -3 5 -1 10 6 10 7 0 4 7 -7 15 -18 14 -18 14 6 15 19 0 22 2 10 9
-8 6 -18 7 -24 4 -5 -3 -6 -1 -2 6 4 6 11 9 16 6 5 -3 12 0 16 6 4 8 3 9 -4 5
-7 -4 -12 -2 -12 3 0 6 6 11 13 11 8 0 7 4 -3 11 -11 8 -12 12 -2 16 6 2 12 9
12 14 0 6 -4 8 -9 5 -11 -7 -9 13 2 32 5 7 3 12 -5 12 -10 0 -10 2 -1 8 8 5
12 26 10 56 -1 26 1 49 5 52 4 2 5 13 3 24 -2 11 0 20 4 20 5 0 8 -13 7 -29 0
-16 -4 -27 -8 -25 -4 3 -5 -2 -2 -11 4 -9 9 -14 11 -11 10 10 11 71 1 90 -7
13 -7 16 1 12 8 -5 11 75 10 283 -1 173 -5 291 -11 291 -5 0 -6 -5 -2 -12 4
-6 3 -8 -3 -5 -11 7 -10 43 2 54 4 5 5 3 1 -4 -3 -6 -2 -14 3 -17 11 -7 9 13
-2 32 -5 7 -3 12 4 12 7 0 9 3 5 7 -4 5 -14 0 -21 -10 -12 -17 -13 -16 -11 6
1 17 6 23 16 20 9 -3 8 1 -4 11 -11 9 -15 16 -8 16 6 0 9 7 6 15 -4 8 0 23 7
33 10 12 7 12 -10 -3 l-24 -20 12 23 c6 12 9 22 5 22 -3 0 -1 7 6 16 8 8 9 14
4 13 -23 -4 -26 2 -8 16 19 15 19 15 -1 8 -18 -6 -19 -5 -5 12 14 17 13 18 -4
11 -19 -6 -19 -6 -3 12 16 17 16 20 -4 40 -14 15 -18 29 -14 43 5 15 3 19 -4
15 -8 -5 -8 0 -1 19 7 17 7 24 0 20 -6 -3 -10 -1 -10 4 0 6 5 11 11 11 8 0 9
4 0 13 -6 8 -8 17 -4 20 3 4 1 7 -5 7 -7 0 -12 5 -12 11 0 5 4 7 10 4 6 -3 7
1 4 10 -6 14 -7 14 -18 0 -10 -14 -12 -13 -11 9 1 14 4 29 8 32 4 4 -1 13 -11
21 -15 13 -15 14 -1 10 14 -5 15 -2 6 23 -6 16 -15 27 -19 24 -4 -3 -8 2 -8
11 0 9 5 13 10 10 6 -3 10 -2 10 3 0 5 -8 12 -18 14 -10 3 -19 12 -19 21 0 9
4 14 8 11 4 -2 11 0 14 6 4 6 1 9 -6 8 -8 -2 -13 6 -14 19 0 12 -4 25 -9 30
-5 4 -6 3 -2 -4 3 -6 1 -15 -6 -19 -7 -4 -10 -4 -6 1 4 4 2 15 -5 23 -8 11 -8
14 0 9 6 -4 14 -3 18 3 3 5 -2 10 -12 10 -15 0 -16 2 -3 10 12 8 12 10 1 10
-11 0 -11 3 -2 14 10 12 7 18 -16 31 -15 9 -20 14 -10 11 11 -3 15 -2 12 4 -3
6 -14 10 -23 11 -14 0 -13 2 3 9 11 5 14 9 8 9 -7 1 -13 10 -13 22 0 26 -19
61 -29 55 -5 -3 -8 7 -9 22 0 55 -1 59 -12 42 -5 -8 -10 -10 -10 -4 0 5 6 16
13 23 10 11 9 12 -2 6 -11 -6 -13 -4 -8 8 4 11 1 17 -8 17 -8 0 -14 3 -13 8 5
17 -14 52 -25 45 -7 -4 -6 1 2 10 7 9 9 17 3 17 -5 0 -13 7 -16 16 -5 13 -4
14 7 6 10 -9 14 -8 14 3 0 8 -3 13 -6 11 -3 -2 -15 0 -26 5 l-20 8 20 1 c20 1
20 1 -1 10 -15 6 -20 16 -18 39 2 28 0 30 -20 19 -19 -10 -20 -10 -7 5 9 11
10 17 2 17 -6 0 -10 3 -10 8 3 19 -2 32 -12 30 -6 -2 -13 5 -14 15 -2 9 1 15
6 11 5 -3 6 -11 3 -17 -4 -7 -3 -8 1 -4 11 9 16 37 7 36 -23 -3 -32 4 -32 25
0 13 -7 29 -15 36 -8 7 -13 16 -10 20 3 5 -4 15 -16 24 -14 9 -18 19 -13 28 5
9 2 8 -11 -2 -17 -14 -18 -14 -6 9 12 22 12 23 -7 19 -14 -4 -19 -1 -18 11 0
9 5 19 10 22 4 4 -4 7 -18 7 -14 0 -26 -5 -26 -10z m90 -98 c0 -5 -4 -10 -10
-10 -5 0 -10 5 -10 10 0 6 5 10 10 10 6 0 10 -4 10 -10z m28 -55 c-3 -3 -9 2
-12 12 -6 14 -5 15 5 6 7 -7 10 -15 7 -18z m-371 -350 c0 -8 -4 -12 -9 -9 -5
3 -6 10 -3 15 9 13 12 11 12 -6z m-27 -69 c0 -3 -4 -8 -10 -11 -5 -3 -10 -1
-10 4 0 6 5 11 10 11 6 0 10 -2 10 -4z m790 -681 c7 -9 8 -15 2 -15 -5 0 -12
7 -16 15 -3 8 -4 15 -2 15 2 0 9 -7 16 -15z m-13 -1230 c0 -8 -4 -12 -9 -9 -5
3 -6 10 -3 15 9 13 12 11 12 -6z"/>
<path d="M5905 5171 c-3 -5 -2 -12 3 -15 5 -3 9 1 9 9 0 17 -3 19 -12 6z"/>
<path d="M394 5132 c3 -6 -2 -15 -11 -21 -10 -5 -15 -12 -12 -15 3 -4 14 2 23
13 13 14 14 21 5 27 -7 4 -10 3 -5 -4z"/>
<path d="M3310 5076 c0 -2 8 -10 18 -17 15 -13 16 -12 3 4 -13 16 -21 21 -21
13z"/>
<path d="M2445 4881 c-3 -5 0 -13 6 -17 7 -4 9 -3 5 4 -3 5 0 13 6 15 9 4 10
6 1 6 -6 1 -14 -3 -18 -8z"/>
<path d="M3975 4860 c6 -9 -8 -15 -29 -11 -5 1 -3 -6 5 -15 13 -16 12 -16 -10
-5 -15 8 -21 9 -17 2 4 -6 1 -11 -6 -11 -11 0 -10 -2 0 -9 11 -7 11 -9 -1 -14
-8 -3 -20 0 -26 6 -10 9 -10 6 -2 -16 6 -16 7 -26 2 -23 -5 4 -12 0 -15 -6 -3
-7 -3 -2 0 10 l6 24 -21 -21 c-12 -12 -25 -21 -31 -21 -5 0 -10 -5 -10 -11 0
-8 6 -7 18 2 15 13 16 12 3 -4 -10 -13 -17 -15 -27 -6 -11 9 -14 7 -14 -7 0
-16 -2 -17 -10 -4 -8 12 -10 12 -10 1 0 -8 -7 -11 -20 -8 -10 3 -19 2 -18 -2
0 -3 0 -15 -1 -26 -2 -19 -2 -19 -12 -2 -7 12 -14 15 -22 8 -7 -5 -16 -9 -22
-9 -5 0 -11 -6 -13 -14 -2 -9 0 -8 7 2 7 9 11 10 11 3 0 -15 -15 -25 -24 -16
-12 12 -38 12 -33 -1 3 -6 -3 -12 -13 -12 -10 0 -17 3 -14 7 6 10 -24 5 -33
-6 -4 -4 -2 -5 6 0 10 6 12 4 7 -4 -6 -9 -13 -8 -29 6 -11 10 -17 13 -14 6 10
-17 -23 -47 -36 -34 -13 13 -31 15 -23 3 2 -4 -4 -8 -15 -8 -10 0 -19 5 -19
11 0 5 -5 3 -10 -5 -9 -13 -10 -13 -10 0 0 13 -1 13 -10 0 -9 -13 -10 -13 -10
0 0 13 -1 13 -10 0 -9 -13 -10 -13 -10 0 0 13 -1 13 -10 0 -8 -12 -10 -12 -10
-1 0 10 -3 11 -13 2 -8 -6 -16 -8 -19 -5 -3 2 -18 7 -33 10 -20 3 -25 1 -19
-8 5 -10 4 -11 -7 0 -7 6 -24 12 -37 12 -19 0 -23 4 -18 18 6 16 5 16 -7 0
-12 -15 -14 -15 -25 0 -10 15 -11 15 -6 -3 4 -15 2 -14 -10 5 -8 14 -15 19
-16 11 0 -11 -3 -11 -17 0 -9 8 -14 9 -10 3 3 -6 0 -11 -8 -11 -8 0 -12 4 -9
9 3 4 -2 8 -11 8 -9 0 -14 4 -10 9 3 5 0 13 -6 17 -7 4 -9 3 -5 -4 4 -6 -1
-10 -13 -9 -12 1 -17 6 -13 15 4 12 1 12 -15 3 -17 -8 -24 -7 -34 7 -13 15
-12 16 4 3 9 -7 17 -9 17 -3 0 16 -26 22 -40 9 -10 -9 -11 -7 -5 13 7 22 6 23
-9 11 -13 -11 -16 -11 -16 -1 0 8 -3 10 -7 7 -3 -4 -13 -1 -21 6 -13 10 -14 9
-4 -9 10 -18 8 -20 -19 -18 -25 2 -28 0 -18 -12 9 -11 6 -16 -12 -23 -13 -5
-28 -6 -33 -3 -5 3 -7 -2 -3 -11 3 -10 2 -17 -4 -17 -6 0 -7 -5 -3 -12 4 -7 3
-8 -5 -4 -6 4 -9 13 -5 19 3 7 -1 4 -9 -5 -8 -10 -16 -16 -18 -14 -2 2 -13 -6
-24 -17 -11 -11 -13 -16 -5 -12 12 7 13 6 3 -7 -7 -8 -9 -18 -5 -23 4 -4 -4
-2 -18 5 -22 12 -24 12 -12 -3 11 -13 10 -15 -5 -13 -10 2 -26 -5 -36 -16 -10
-10 -22 -16 -27 -13 -6 3 -7 -1 -4 -9 4 -10 1 -16 -8 -16 -8 0 -25 -11 -38
-25 -12 -13 -26 -22 -31 -20 -4 3 -5 -3 -2 -14 3 -10 -1 -22 -8 -26 -8 -6 -10
-4 -4 6 5 8 -1 5 -13 -5 -27 -23 -27 -27 -4 -20 14 5 14 4 2 -4 -10 -8 -18 -8
-27 0 -11 8 -12 7 -7 -7 5 -13 4 -16 -4 -11 -7 4 -12 2 -12 -3 0 -6 5 -11 12
-11 6 0 9 -3 6 -6 -4 -3 -17 0 -30 7 -22 12 -22 11 -8 -6 14 -17 13 -18 -2
-13 -10 4 -19 1 -22 -8 -3 -9 -11 -12 -17 -8 -8 5 -9 3 -4 -5 5 -9 10 -10 18
-2 19 19 28 12 10 -7 -10 -10 -24 -17 -31 -14 -7 2 -12 -1 -10 -8 2 -7 -3 -15
-11 -18 -10 -3 -11 0 -5 9 7 12 5 12 -9 0 -9 -7 -17 -19 -17 -27 0 -16 -34
-36 -46 -26 -5 4 -2 -2 6 -13 8 -11 11 -17 6 -13 -13 11 -48 -12 -42 -28 3 -7
2 -13 -2 -13 -4 1 -16 1 -27 0 -17 -1 -18 -3 -5 -11 13 -8 12 -10 -2 -10 -10
0 -18 -7 -18 -15 0 -8 -5 -15 -11 -15 -5 0 -7 5 -3 12 4 7 3 8 -5 4 -6 -4 -9
-12 -6 -17 4 -5 1 -9 -4 -9 -6 0 -11 -6 -11 -14 0 -8 -9 -21 -20 -29 -11 -8
-17 -17 -12 -22 4 -4 0 -6 -10 -2 -14 5 -17 -8 -8 -33 1 -3 2 -9 1 -13 -1 -5
4 -5 10 -1 9 5 10 2 6 -9 -3 -9 -1 -19 5 -23 7 -4 8 -3 4 4 -4 7 -2 12 3 12
15 0 14 -17 -1 -26 -7 -5 -5 -11 7 -21 13 -9 14 -13 5 -13 -9 0 -8 -5 6 -16
10 -8 14 -13 9 -10 -6 2 -11 -4 -11 -14 0 -15 3 -17 16 -7 8 6 12 8 8 3 -4 -5
-3 -17 2 -27 7 -12 6 -20 -2 -25 -6 -4 -8 -3 -4 4 3 6 2 13 -3 16 -5 4 -8 -1
-7 -10 1 -8 9 -20 17 -25 8 -5 9 -9 3 -9 -6 0 -11 -7 -11 -15 0 -8 5 -15 10
-15 5 0 3 -8 -4 -17 -10 -11 -10 -14 -1 -9 6 4 12 3 12 -1 0 -5 -6 -15 -12
-22 -10 -11 -10 -13 0 -7 16 9 16 -6 0 -23 -10 -11 -10 -13 0 -7 16 9 16 -6 0
-23 -10 -11 -10 -13 0 -7 15 9 16 -16 1 -31 -8 -8 -8 -13 1 -18 8 -5 6 -11 -7
-21 -14 -11 -14 -13 -2 -9 17 6 19 -14 4 -47 -4 -10 -5 -25 -2 -33 4 -8 2 -17
-4 -20 -5 -4 -6 -11 -3 -17 4 -7 2 -8 -5 -4 -9 6 -9 11 -1 21 8 9 8 15 0 20
-12 8 -15 -19 -8 -82 1 -7 8 -15 15 -17 8 -3 11 -11 7 -17 -4 -8 -3 -9 5 -5 9
6 9 11 0 22 -10 12 -9 13 5 8 9 -3 16 -10 16 -16 0 -5 6 -6 13 -2 9 6 9 5 0
-7 -10 -12 -8 -15 7 -15 10 0 16 5 14 11 -3 5 1 2 9 -7 8 -10 17 -15 20 -11 4
3 7 -2 7 -12 0 -14 3 -15 15 -5 13 11 14 10 8 -6 -6 -17 -5 -18 12 -4 11 9 16
10 11 3 -4 -8 -2 -13 4 -13 6 0 8 -5 4 -11 -4 -7 1 -7 16 1 20 11 21 10 9 -12
-11 -21 -11 -22 4 -9 12 9 17 10 17 2 0 -7 5 -9 10 -6 6 3 10 2 10 -3 0 -6 7
-13 16 -16 13 -5 14 -4 6 7 -9 10 -8 14 3 14 8 0 13 -2 10 -5 -8 -8 16 -43 27
-40 6 2 21 -6 34 -19 13 -13 29 -23 36 -23 7 1 2 7 -12 15 -35 20 -18 19 25
-2 27 -13 34 -21 30 -37 -3 -12 -2 -15 1 -8 3 6 11 9 16 6 7 -4 8 -2 4 4 -5 8
-2 10 8 6 9 -3 13 -10 10 -15 -3 -5 2 -9 11 -9 9 0 14 -4 11 -9 -4 -5 5 -8 19
-6 16 1 25 -3 25 -11 0 -8 5 -14 11 -14 5 0 7 4 4 10 -3 6 1 7 9 4 19 -7 21
-20 4 -28 -9 -4 -8 -5 2 -5 55 4 79 -2 85 -21 3 -11 11 -20 16 -20 6 0 8 4 5
9 -4 5 2 8 11 6 10 -2 21 -4 25 -4 4 -1 4 -9 1 -18 -6 -16 -5 -17 12 -3 15 12
17 12 10 1 -6 -11 -3 -13 13 -9 12 4 25 2 28 -3 3 -5 10 -7 15 -3 5 3 9 2 8
-3 -4 -21 3 -29 23 -30 11 -1 25 -8 29 -15 7 -10 9 -10 9 0 0 6 4 12 9 12 6 0
8 -8 6 -18 -2 -12 3 -18 15 -18 10 0 16 4 14 8 -3 4 0 8 5 8 6 0 11 -6 11 -14
0 -8 9 -12 25 -11 14 2 23 -1 19 -6 -3 -5 -11 -6 -17 -2 -7 4 -6 -1 2 -11 10
-12 17 -14 25 -6 14 14 29 13 20 -2 -5 -7 -2 -9 8 -6 8 4 19 -2 26 -12 7 -12
18 -16 33 -13 17 5 20 3 14 -7 -6 -10 -4 -11 6 -4 8 4 20 9 27 10 11 2 11 0 0
-14 -10 -12 -10 -14 0 -8 6 4 12 3 12 -2 0 -5 10 -12 23 -15 21 -6 21 -6 3 8
-11 8 -16 15 -10 15 16 -1 44 -27 36 -35 -4 -4 4 -2 16 4 13 7 26 10 30 7 3
-3 0 -6 -6 -6 -7 0 -12 -8 -11 -17 0 -11 3 -13 6 -5 2 6 9 12 14 12 6 0 7 -6
4 -12 -4 -7 0 -5 8 4 8 10 17 15 20 11 7 -6 9 1 11 37 1 9 10 15 23 14 22 -1
27 14 8 29 -6 5 -4 7 5 6 25 -2 44 1 37 7 -9 9 33 45 45 38 7 -5 8 -3 3 6 -6
10 -4 12 8 7 11 -4 14 -2 10 9 -3 8 0 21 7 29 10 12 16 13 28 3 13 -11 14 -11
8 0 -5 9 -1 15 12 19 11 3 23 12 26 20 5 12 9 13 20 4 10 -8 16 -9 21 -1 3 6
11 7 17 4 7 -4 8 -2 4 4 -4 7 -2 20 4 29 11 16 11 16 5 -1 -6 -20 -6 -20 16 0
12 10 19 14 16 7 -12 -19 22 -9 39 13 8 10 12 12 8 4 -6 -12 -4 -13 7 -2 7 6
17 12 22 12 4 0 5 -6 2 -12 -4 -7 0 -6 7 4 10 11 19 13 31 7 13 -8 15 -6 11 5
-3 7 0 17 7 22 7 4 10 3 5 -4 -3 -6 -2 -13 4 -17 5 -3 10 1 10 9 0 8 5 18 12
22 7 4 8 3 4 -4 -10 -16 7 -15 23 1 12 10 13 9 7 -7 -5 -15 -4 -17 8 -7 17 14
59 24 51 12 -3 -5 6 -8 19 -7 13 0 22 4 20 7 -2 4 5 9 15 12 15 3 18 1 14 -11
-5 -11 -3 -13 8 -7 24 16 53 13 75 -6 16 -15 21 -16 21 -5 0 8 -4 13 -9 10 -4
-3 -8 -1 -8 5 0 5 9 9 20 8 15 -1 19 -7 15 -22 -3 -11 -2 -14 1 -7 3 6 12 12
20 12 9 0 12 -5 8 -12 -4 -6 -3 -8 4 -4 6 3 13 2 16 -3 4 -6 18 -6 36 -1 16 5
28 5 27 2 -1 -4 1 -7 4 -7 4 0 16 -9 28 -19 12 -11 21 -16 21 -12 0 4 8 2 18
-3 13 -7 23 -6 32 2 8 7 11 8 7 1 -4 -7 3 -11 18 -11 16 0 25 5 25 16 0 13 2
14 9 2 7 -11 13 -8 28 17 11 18 23 29 28 24 4 -4 2 3 -4 16 -12 22 -11 23 9
12 20 -11 21 -10 9 12 -11 21 -11 22 5 9 14 -12 16 -12 11 2 -4 8 -1 18 6 23
8 5 10 3 5 -7 -4 -8 2 -3 13 10 12 13 21 29 21 37 0 8 5 14 11 14 5 0 7 -5 3
-12 -4 -6 -3 -8 4 -4 6 3 9 19 6 34 -3 17 -1 22 4 14 7 -10 12 -9 23 4 12 15
12 17 0 9 -10 -6 -12 -4 -7 4 5 7 15 10 23 6 14 -5 14 -3 2 12 -8 9 -9 14 -4
11 17 -11 37 7 38 35 1 14 4 25 7 25 21 -2 30 5 30 22 0 13 5 18 15 14 11 -5
13 -2 8 12 -5 13 -3 15 7 9 10 -6 12 -4 6 10 -5 15 -4 16 8 6 12 -10 14 -8 12
13 -2 18 1 23 12 18 12 -4 14 -1 9 13 -6 15 -5 16 8 5 13 -11 14 -10 9 5 -5
13 -4 16 5 11 14 -9 11 16 -4 26 -5 4 4 8 20 9 17 0 24 3 18 6 -7 2 -13 9 -13
14 0 4 6 6 14 3 8 -3 17 0 22 7 4 8 3 10 -4 5 -7 -4 -12 -2 -12 3 0 6 6 11 14
11 8 0 18 5 22 12 4 6 3 8 -3 5 -5 -3 -10 0 -10 7 0 8 8 11 21 8 12 -3 18 -1
14 3 -4 4 1 15 10 24 10 9 12 12 5 7 -10 -6 -12 -4 -7 8 3 9 12 16 19 16 8 0
15 10 17 23 2 13 10 22 19 21 12 -1 15 4 11 20 -5 19 -4 20 13 6 17 -14 18
-14 6 8 -10 18 -9 23 4 28 8 3 15 12 15 20 0 8 5 14 11 14 6 0 8 7 5 16 -3 8
-2 12 3 9 6 -3 15 3 21 12 11 16 11 16 6 -2 -6 -20 -6 -20 9 -1 12 16 12 22 2
28 -8 5 -7 8 6 8 9 0 17 7 17 16 0 9 -5 12 -12 8 -7 -4 -8 -3 -4 4 4 6 13 9
20 6 19 -7 32 16 15 27 -8 4 -14 16 -14 26 0 12 -7 18 -23 17 -20 -1 -27 7
-23 30 1 5 -5 3 -14 -4 -9 -7 -15 -9 -14 -4 1 5 1 15 0 23 -1 11 -4 11 -18 0
-11 -10 -14 -10 -9 -1 4 6 2 12 -3 12 -6 0 -11 6 -11 14 0 10 -8 13 -21 11
-20 -4 -20 -3 -5 14 13 15 14 18 1 18 -8 0 -12 -4 -9 -9 3 -4 -2 -8 -11 -8 -9
0 -13 5 -10 10 3 6 -1 10 -9 10 -9 0 -16 8 -16 18 0 14 -2 15 -10 2 -9 -13
-10 -13 -11 0 -1 8 0 19 1 25 1 5 -1 7 -5 3 -10 -10 -34 15 -27 27 3 6 -1 4
-10 -3 -13 -10 -18 -10 -24 -1 -4 7 -3 9 3 6 5 -3 10 0 10 8 0 11 -5 12 -20 4
-17 -10 -18 -8 -12 13 3 12 3 19 -2 13 -15 -19 -33 -15 -33 8 0 18 -2 19 -10
7 -8 -13 -10 -13 -10 2 0 11 -5 15 -15 12 -10 -4 -13 0 -10 13 2 12 -2 20 -10
20 -8 0 -12 -3 -10 -7 2 -4 -2 -7 -9 -7 -7 0 -11 7 -9 16 2 9 -6 22 -19 30
-23 14 -23 14 -4 -7 18 -21 18 -21 -7 -9 -14 6 -23 15 -21 19 5 8 -36 34 -49
30 -4 -1 -6 1 -6 5 3 19 -2 33 -11 33 -5 0 -7 -8 -5 -17 3 -10 -1 -6 -8 9 -11
23 -16 26 -26 15 -11 -10 -11 -8 -1 13 10 20 10 23 0 13 -10 -9 -16 -8 -29 6
-9 9 -12 11 -7 4 6 -10 4 -12 -8 -7 -9 3 -16 13 -16 21 0 8 -4 11 -10 8 -5 -3
-10 0 -10 7 0 9 -3 9 -10 -2 -8 -13 -10 -13 -10 2 0 9 6 19 13 22 6 2 1 4 -13
3 -15 -1 -24 3 -22 11 1 6 -2 12 -8 12 -5 0 -10 -6 -11 -12 0 -7 -5 -3 -11 10
-6 12 -19 22 -29 22 -22 0 -34 16 -17 23 7 3 -2 4 -20 2 -18 -2 -30 0 -27 6 4
5 1 9 -4 9 -6 0 -11 5 -11 11 0 5 5 7 12 3 7 -4 8 -3 4 4 -5 9 -13 9 -26 2
-16 -8 -18 -8 -14 5 4 10 0 15 -15 15 -12 0 -21 5 -21 11 0 5 -4 7 -10 4 -6
-4 -7 1 -3 12 6 15 4 16 -9 6 -17 -15 -29 -7 -21 13 3 9 0 14 -8 12 -8 -2 -13
3 -11 10 1 8 -2 11 -8 7 -6 -3 -8 -11 -5 -16 3 -5 -1 -6 -10 -3 -8 4 -14 13
-13 22 2 8 -5 16 -15 17 -10 2 -14 -1 -11 -7 4 -7 2 -8 -4 -4 -7 4 -12 14 -12
23 0 10 -6 14 -20 10 -10 -3 -18 0 -17 5 1 6 -4 13 -12 16 -10 3 -11 0 -5 -9
7 -12 5 -12 -9 0 -9 7 -17 19 -17 25 0 6 5 4 10 -4 5 -8 10 -10 10 -4 0 18
-12 24 -31 14 -15 -8 -17 -7 -14 9 3 14 -1 18 -16 14 -10 -3 -19 0 -19 6 0 6
-5 11 -11 11 -5 0 -7 -4 -4 -10z m-1165 -234 c0 -3 -4 -8 -10 -11 -5 -3 -10
-1 -10 4 0 6 5 11 10 11 6 0 10 -2 10 -4z m-170 -144 c-8 -3 -22 -10 -30 -16
-8 -6 -7 -1 4 11 10 13 23 20 29 16 7 -4 6 -8 -3 -11z m1975 -1222 c-3 -5 -12
-10 -18 -10 -7 0 -6 4 3 10 19 12 23 12 15 0z m-325 -100 c0 -5 -2 -10 -4 -10
-3 0 -8 5 -11 10 -3 6 -1 10 4 10 6 0 11 -4 11 -10z m233 -17 c-3 -7 -6 -13
-8 -13 -2 0 -5 6 -8 13 -3 8 1 14 8 14 7 0 11 -6 8 -14z m-133 -13 c0 -5 -2
-10 -4 -10 -3 0 -8 5 -11 10 -3 6 -1 10 4 10 6 0 11 -4 11 -10z m-679 -43
c-10 -9 -11 -8 -5 6 3 10 9 15 12 12 3 -3 0 -11 -7 -18z m-473 -172 c-3 -3 -9
2 -12 12 -6 14 -5 15 5 6 7 -7 10 -15 7 -18z"/>
<path d="M476 4727 c3 -10 9 -15 12 -12 3 3 0 11 -7 18 -10 9 -11 8 -5 -6z"/>
<path d="M145 4505 l-20 -17 20 6 c20 6 20 6 1 -9 -11 -8 -14 -15 -8 -15 7 0
3 -9 -8 -20 -12 -12 -18 -25 -15 -30 3 -5 1 -11 -4 -15 -6 -3 -8 -12 -4 -20 3
-9 -1 -23 -8 -32 -10 -12 -10 -15 -1 -9 16 9 15 3 -3 -41 -19 -45 -19 -53 2
-28 14 18 15 18 9 2 -3 -10 -6 -21 -6 -23 0 -2 -6 -4 -14 -4 -8 0 -18 -5 -22
-12 -4 -7 -3 -8 4 -4 16 10 15 -7 -1 -23 -9 -11 -9 -13 0 -7 7 4 13 2 13 -3 0
-6 -4 -11 -9 -11 -4 0 -7 -14 -5 -31 3 -20 0 -28 -8 -23 -7 4 -8 3 -4 -4 4 -7
9 -20 11 -31 3 -15 -1 -18 -18 -14 -21 4 -21 3 2 -10 l24 -14 -24 -17 c-13 -9
-18 -16 -11 -16 7 0 10 -5 7 -10 -4 -6 -10 -8 -15 -5 -4 3 -6 -4 -3 -15 3 -11
10 -20 17 -20 6 0 4 -5 -4 -10 -8 -5 -12 -10 -8 -10 4 0 3 -11 -2 -24 -6 -17
-5 -26 3 -30 9 -3 9 -5 0 -5 -7 -1 -13 -6 -13 -12 0 -5 4 -8 9 -5 11 7 9 -13
-3 -33 -5 -8 -4 -16 4 -21 9 -5 8 -9 -2 -13 -17 -6 -20 22 -5 41 6 8 6 12 -2
12 -6 0 -12 -3 -12 -7 -7 -37 -5 -59 5 -65 8 -6 8 -8 -1 -8 -8 0 -11 -78 -12
-285 -2 -214 1 -285 10 -283 6 2 12 -7 14 -19 1 -12 -2 -20 -7 -17 -5 4 -7 13
-4 21 3 8 2 11 -3 8 -13 -7 -7 -58 8 -63 6 -2 11 2 11 9 0 7 3 9 6 6 10 -10
-17 -38 -29 -30 -6 3 -7 1 -3 -6 4 -6 11 -9 16 -6 4 3 11 -2 14 -11 3 -8 2
-12 -4 -9 -6 3 -10 1 -10 -4 0 -6 6 -11 13 -11 8 0 7 -4 -3 -10 -13 -9 -13
-10 0 -10 13 0 13 -1 0 -10 -11 -7 -11 -10 -2 -10 7 0 10 -4 7 -10 -3 -5 -3
-16 2 -22 11 -18 13 -39 3 -33 -5 3 -12 1 -15 -5 -4 -6 -1 -9 6 -8 6 2 14 -3
17 -11 3 -9 0 -11 -8 -6 -9 5 -11 4 -6 -4 4 -6 2 -20 -5 -29 -12 -14 -10 -14
8 1 16 14 23 15 29 6 4 -7 3 -10 -3 -6 -17 11 -22 -17 -8 -37 10 -13 11 -25 4
-43 -5 -13 -5 -22 0 -19 5 3 11 -1 15 -9 3 -8 1 -17 -4 -20 -7 -4 -7 -26 0
-45 1 -3 2 -9 1 -14 -1 -5 5 -3 14 4 13 11 14 10 9 -5 -5 -11 -4 -16 3 -12 16
10 11 -27 -6 -41 -9 -8 -11 -11 -4 -7 7 3 17 -4 23 -16 9 -17 9 -20 0 -14 -8
5 -11 3 -8 -6 3 -8 10 -13 15 -12 5 1 10 -4 10 -12 0 -7 -7 -11 -16 -8 -12 3
-11 1 3 -11 10 -8 16 -22 13 -31 -4 -9 -1 -15 10 -15 13 0 13 -3 3 -15 -10
-12 -10 -15 0 -15 8 0 10 -3 7 -7 -4 -3 -1 -13 6 -21 10 -13 9 -14 -2 -7 -9 5
-12 4 -7 -3 3 -5 3 -12 -1 -15 -5 -2 -2 -2 6 0 8 2 18 -2 23 -9 14 -22 9 -31
-10 -17 -15 13 -16 12 -4 -3 8 -9 11 -21 8 -26 -6 -10 27 -45 35 -37 3 2 5 -4
5 -15 0 -10 -4 -16 -8 -14 -13 8 -9 -6 6 -22 8 -7 12 -22 9 -33 -3 -13 2 -21
17 -26 18 -6 20 -9 9 -16 -12 -7 -11 -9 1 -9 13 0 13 -1 0 -10 -10 -6 -11 -10
-2 -10 6 0 12 -11 12 -25 0 -27 9 -31 28 -15 9 7 9 7 2 -2 -12 -15 -13 -41 -1
-34 5 3 9 -4 10 -17 1 -47 4 -57 16 -47 7 6 10 -1 10 -25 -1 -19 2 -32 7 -29
4 3 8 0 8 -6 0 -6 5 -8 12 -4 6 4 8 3 5 -4 -10 -14 3 -43 15 -36 6 4 5 -4 -2
-16 -11 -20 -10 -22 4 -17 10 4 15 3 11 -3 -3 -6 -1 -10 4 -10 6 0 11 -13 11
-30 0 -16 5 -30 11 -30 5 0 7 -6 3 -12 -5 -9 -2 -9 9 1 18 15 24 2 7 -15 -8
-8 -6 -15 6 -25 12 -9 15 -10 10 -1 -4 8 -1 12 10 12 14 0 15 2 3 17 -12 14
-12 16 0 8 11 -6 13 -4 8 7 -3 9 -1 20 5 26 6 6 6 12 -1 16 -14 9 -14 26 0 26
5 0 7 -5 3 -12 -4 -7 -3 -8 5 -4 6 4 9 12 6 17 -4 5 0 9 7 9 11 0 10 2 0 9
-11 6 -10 10 3 15 13 5 15 10 6 19 -8 10 -7 17 1 25 8 8 8 15 -1 26 -9 11 -9
17 3 28 10 11 11 19 3 34 -9 16 -8 17 5 6 13 -10 15 -9 13 12 -2 14 3 30 11
37 10 8 11 16 3 30 -11 22 3 60 15 40 4 -6 2 -11 -4 -11 -6 0 -8 -5 -4 -11 12
-20 24 13 12 34 -9 17 -8 19 6 14 14 -6 15 -3 5 14 -8 15 -8 19 0 15 15 -10
14 7 -1 23 -8 9 -8 11 -2 8 7 -4 15 0 18 9 9 22 8 26 -6 18 -7 -4 -8 -3 -4 5
4 6 12 8 18 5 8 -5 9 -1 4 11 -6 16 -4 16 10 4 16 -13 16 -12 5 9 -7 14 -8 22
-1 22 5 0 10 5 10 11 0 5 -4 8 -8 5 -5 -3 -9 1 -9 9 0 8 4 12 9 9 8 -5 12 11
9 30 -1 5 6 3 15 -5 16 -13 16 -12 5 9 -7 14 -8 22 -1 22 5 0 10 5 10 11 0 5
-4 7 -10 4 -5 -3 -10 -4 -10 0 0 3 11 9 23 14 13 5 24 16 24 25 0 8 -3 13 -7
11 -3 -2 -6 5 -6 15 0 15 3 17 16 7 8 -6 12 -7 7 -2 -4 4 1 17 10 28 10 11 13
17 7 14 -7 -4 -14 -1 -17 7 -4 10 1 12 16 9 16 -3 18 -2 8 5 -9 7 -10 11 -2
17 9 5 9 10 0 21 -10 12 -9 13 4 9 8 -4 18 -2 22 4 3 6 1 11 -4 11 -6 0 -11 5
-11 11 0 6 9 8 23 4 12 -3 18 -3 12 2 -15 12 -15 52 0 46 7 -2 16 1 21 8 4 8
3 10 -4 5 -7 -4 -12 -2 -12 3 0 6 5 11 11 11 6 0 9 9 6 19 -3 14 -1 18 9 14
10 -4 12 0 7 13 -5 13 -3 15 8 9 12 -8 12 -6 0 9 -11 13 -11 16 -1 14 7 -2 15
3 18 11 3 9 0 11 -9 6 -12 -7 -12 -5 -1 6 11 12 14 12 23 -1 9 -13 10 -13 6 2
-3 9 0 24 8 34 10 15 11 22 2 33 -10 12 -9 14 4 9 9 -4 20 2 28 14 7 11 8 17
2 13 -6 -3 -11 -1 -11 4 0 6 4 11 9 11 6 0 8 9 6 21 -3 16 0 19 12 15 13 -5
14 -4 3 9 -11 13 -10 14 4 9 20 -8 21 3 1 23 -8 8 -12 20 -8 26 4 7 -2 5 -12
-3 -17 -14 -18 -13 -12 4 5 13 3 17 -7 13 -20 -8 -28 4 -13 21 8 11 8 14 0 9
-6 -4 -14 -3 -18 3 -4 6 -10 8 -14 5 -5 -2 -7 6 -6 19 2 14 -2 23 -11 23 -10
0 -11 -4 -2 -14 8 -11 7 -12 -6 -7 -9 3 -16 12 -16 19 0 7 -3 15 -7 18 -5 2
-2 2 5 1 6 -2 12 1 12 6 0 6 -7 10 -15 10 -8 0 -15 5 -15 10 0 6 -8 10 -17 11
-16 0 -16 1 1 8 17 7 18 8 3 14 -11 4 -15 13 -11 24 5 15 4 15 -5 3 -9 -13
-12 -13 -23 -1 -7 8 -8 11 -2 8 6 -4 10 3 9 16 -1 14 -9 23 -23 25 -12 2 -22
8 -22 13 0 6 6 7 13 3 6 -4 3 3 -8 16 -11 13 -15 21 -9 17 6 -3 11 0 11 8 0 9
-6 14 -13 13 -7 -2 -13 2 -14 7 -1 6 -7 16 -13 24 -9 11 -9 13 0 8 6 -4 14 -3
18 3 3 5 2 10 -3 10 -8 0 -11 22 -15 98 -1 14 -6 21 -14 18 -7 -3 -15 0 -19 6
-4 6 -3 8 3 5 6 -4 16 0 22 7 10 12 8 14 -11 9 -18 -4 -20 -3 -8 6 12 8 12 11
1 11 -11 0 -11 3 -1 15 10 12 10 15 -1 15 -11 0 -11 2 1 10 13 9 13 10 0 10
-13 0 -13 1 0 10 13 9 13 11 0 20 -13 8 -12 10 5 11 15 0 16 2 5 7 -21 10 -25
36 -5 28 9 -3 14 -2 10 3 -3 5 1 12 7 15 7 3 3 3 -9 0 -15 -3 -21 -1 -19 10 1
9 5 19 9 22 4 4 2 13 -4 20 -7 8 -6 14 2 20 7 4 9 3 5 -4 -3 -5 0 -12 6 -15
10 -3 10 -7 -1 -20 -7 -10 -9 -17 -3 -17 16 0 22 28 12 55 -6 17 -6 25 1 25 6
0 7 5 4 10 -3 6 2 10 12 11 16 0 16 1 -2 9 -11 5 -15 9 -8 9 7 1 10 7 7 15 -3
8 0 17 7 22 8 5 10 3 4 -6 -5 -8 -4 -11 2 -7 6 4 9 18 8 32 -2 14 2 28 7 32 7
4 8 1 3 -7 -5 -9 -4 -11 3 -6 16 10 15 26 -2 26 -7 0 -20 8 -27 18 -11 14 -11
15 1 5 19 -18 26 -16 26 6 0 11 -4 17 -8 15 -4 -3 -8 0 -8 5 0 6 -8 11 -19 11
-16 0 -35 30 -32 51 0 4 -13 6 -29 5 -24 -2 -27 1 -19 15 6 11 5 20 -1 24 -10
6 -14 -1 -11 -19 1 -5 -4 -4 -12 2 -8 7 -17 10 -20 7 -4 -3 -5 -2 -2 2 3 3 -4
12 -15 20 -11 8 -20 18 -20 24 0 5 9 0 20 -11 11 -11 26 -20 33 -20 6 0 4 5
-7 11 -10 6 -32 25 -48 43 -16 17 -27 25 -23 19 3 -7 1 -13 -4 -13 -6 0 -11 5
-11 11 0 5 -6 7 -12 3 -9 -5 -9 -2 1 9 14 17 10 21 -21 18 -10 -1 -18 3 -18 9
0 6 6 8 13 4 6 -4 4 2 -6 13 -9 11 -14 23 -10 28 5 4 3 5 -3 2 -6 -4 -22 5
-34 18 -13 14 -29 25 -37 25 -12 0 -18 13 -14 34 1 5 -6 3 -15 -5 -10 -8 -15
-9 -11 -2 4 6 1 14 -5 17 -10 5 -10 7 0 12 6 3 12 10 12 16 0 6 -6 6 -15 -2
-11 -10 -18 -9 -30 3 -8 9 -15 22 -15 30 0 8 -8 21 -17 28 -11 10 -14 10 -9 2
4 -7 3 -13 -3 -13 -5 0 -11 7 -13 16 -3 13 -5 13 -23 -1z m52 -37 c-3 -8 -6
-5 -6 6 -1 11 2 17 5 13 3 -3 4 -12 1 -19z m-52 -46 c2 -13 -1 -21 -8 -19 -7
1 -11 -4 -9 -11 1 -8 -2 -11 -8 -7 -6 3 -7 12 -3 18 8 12 10 18 12 39 2 16 11
4 16 -20z m199 -91 c20 -21 24 -31 15 -36 -7 -5 -10 -4 -5 3 3 6 -5 19 -19 30
-14 11 -25 23 -25 26 0 10 6 7 34 -23z m121 -111 c3 -5 1 -10 -4 -10 -6 0 -11
5 -11 10 0 6 2 10 4 10 3 0 8 -4 11 -10z m125 -115 c11 -13 10 -14 -4 -9 -9 3
-16 10 -16 15 0 13 6 11 20 -6z m27 -557 c2 -18 0 -20 -7 -8 -12 18 -13 30 -2
30 4 0 9 -10 9 -22z m-427 -1148 c0 -5 -2 -10 -4 -10 -3 0 -8 5 -11 10 -3 6
-1 10 4 10 6 0 11 -4 11 -10z m297 -426 c-3 -3 -12 -4 -19 -1 -8 3 -5 6 6 6
11 1 17 -2 13 -5z"/>
<path d="M1330 4495 c-11 -13 -10 -14 4 -9 9 3 16 10 16 15 0 13 -6 11 -20 -6z"/>
<path d="M5506 4491 c-4 -5 -2 -12 3 -15 5 -4 12 -2 15 3 4 5 2 12 -3 15 -5 4
-12 2 -15 -3z"/>
<path d="M1330 4097 c0 -4 -6 -7 -12 -5 -7 1 -24 -4 -37 -11 -12 -7 -31 -11
-41 -8 -12 3 -17 0 -13 -9 3 -9 -4 -12 -28 -9 -30 4 -31 4 -13 -11 10 -9 13
-13 7 -9 -7 3 -13 2 -13 -3 0 -5 -12 -8 -26 -6 -14 1 -23 0 -20 -3 3 -4 -3
-13 -14 -20 -11 -8 -18 -18 -15 -22 2 -5 -3 -17 -11 -27 -9 -10 -13 -14 -10
-8 3 6 -1 11 -7 11 -7 0 -14 -9 -14 -19 -1 -11 3 -16 9 -12 7 4 8 2 4 -5 -6
-9 -11 -9 -21 -1 -11 9 -12 7 -8 -11 4 -14 2 -20 -5 -16 -12 8 -11 -11 3 -33
6 -10 2 -9 -12 3 -20 18 -20 17 -17 -13 2 -18 0 -29 -6 -25 -5 3 -7 0 -4 -8 3
-8 1 -18 -5 -22 -14 -8 -14 -25 0 -25 5 0 7 5 3 12 -4 7 -3 8 4 4 6 -4 9 -13
6 -21 -4 -8 -10 -13 -14 -10 -4 3 -10 -1 -12 -8 -7 -16 2 -38 12 -32 10 6 8
-15 -3 -32 -5 -8 -3 -13 3 -13 6 0 10 -8 7 -17 -2 -10 3 -31 11 -47 7 -15 9
-25 3 -22 -6 4 -11 2 -11 -3 0 -6 10 -11 21 -11 19 0 20 -2 8 -17 -12 -15 -12
-16 4 -10 11 4 16 3 12 -3 -8 -13 4 -50 16 -50 6 0 5 9 -1 23 -11 21 -10 21 4
3 12 -14 13 -23 5 -33 -6 -7 -8 -14 -3 -14 5 -1 16 -2 24 -3 8 0 14 -9 14 -19
-2 -14 1 -15 12 -6 10 9 12 6 9 -11 -3 -18 -2 -20 10 -10 12 10 15 9 16 -6 0
-11 3 -14 6 -6 2 6 9 12 14 12 6 0 5 -8 -1 -20 -7 -14 -7 -20 0 -20 5 0 10 5
10 11 0 8 5 8 15 -1 8 -7 15 -9 15 -4 0 5 4 5 8 -1 4 -5 16 -17 26 -25 18 -13
19 -13 11 0 -5 9 1 7 15 -5 13 -11 20 -15 17 -8 -4 6 -3 14 2 17 5 3 11 -4 14
-15 5 -17 9 -19 26 -10 27 15 31 14 32 -6 0 -12 2 -13 6 -5 4 10 8 10 21 0 9
-7 13 -8 9 -2 -4 7 0 17 8 24 13 11 14 10 10 -3 -9 -22 10 -30 26 -10 12 14
12 16 0 8 -9 -5 -12 -4 -8 2 4 6 20 9 37 7 19 -2 30 1 30 9 0 6 7 3 15 -7 12
-16 15 -17 15 -4 0 8 8 15 18 15 20 -1 79 34 80 48 0 5 6 11 13 14 7 2 9 -1 4
-9 -5 -9 -4 -11 3 -6 7 4 12 14 12 22 0 9 5 12 12 8 8 -5 9 -2 5 9 -3 9 -3 16
1 16 20 -3 30 3 35 21 3 11 9 20 14 19 20 -3 25 2 13 16 -9 11 -9 15 -1 15 7
0 9 5 5 13 -5 7 0 6 11 -3 17 -14 18 -14 6 9 -8 15 -9 21 -2 17 6 -4 11 -2 11
4 0 6 4 9 8 6 4 -2 8 4 8 14 0 11 -6 16 -16 13 -13 -4 -13 -3 0 6 8 5 11 13 7
17 -9 9 13 35 24 28 12 -7 -2 29 -15 38 -6 4 0 8 14 8 19 0 22 2 10 9 -8 6
-18 7 -24 4 -5 -3 -6 -1 -2 6 4 6 13 8 19 5 7 -4 9 -4 5 1 -4 4 -3 13 2 20 7
8 5 12 -5 12 -8 0 -12 -3 -10 -7 2 -4 -2 -7 -9 -7 -7 0 -13 6 -13 13 0 7 4 11
9 8 4 -3 6 5 4 18 -3 13 -5 31 -5 41 -1 12 -6 16 -13 11 -10 -5 -10 -4 -1 6
10 11 8 17 -15 32 -15 10 -22 18 -16 18 5 0 15 -5 20 -10 7 -7 11 -6 11 4 0 8
-3 15 -6 14 -25 -2 -33 3 -22 15 15 19 1 30 -17 14 -13 -9 -14 -9 -8 1 4 7 2
12 -5 12 -7 0 -10 3 -7 6 8 7 -25 42 -34 37 -5 -2 -8 1 -8 6 0 6 5 11 12 11 6
0 8 3 5 6 -4 4 -14 1 -22 -6 -9 -7 -15 -9 -14 -4 3 19 -3 49 -8 37 -2 -7 -9
-13 -15 -13 -6 0 -8 6 -5 14 4 10 0 12 -14 9 -10 -3 -19 0 -19 6 0 6 -7 11
-16 11 -9 0 -12 -5 -8 -12 5 -9 2 -9 -9 1 -19 15 -23 26 -5 15 7 -5 8 -3 3 5
-4 7 -16 10 -27 8 -15 -4 -18 -2 -13 11 5 14 3 13 -14 -2 -14 -13 -21 -14 -27
-5 -5 8 -3 10 7 4 8 -5 11 -4 6 0 -10 11 -48 14 -41 3 3 -4 0 -8 -5 -8 -6 0
-11 5 -11 10 0 6 -5 10 -11 10 -5 0 -8 -3 -6 -8 3 -4 -8 -7 -23 -7 -16 -1 -27
2 -24 6 2 5 -5 7 -16 6 -11 -1 -20 -5 -20 -10z m-313 -363 c-3 -3 -12 -4 -19
-1 -8 3 -5 6 6 6 11 1 17 -2 13 -5z m558 -354 c3 -6 -1 -7 -9 -4 -18 7 -21 14
-7 14 6 0 13 -4 16 -10z m-240 -19 c3 -5 2 -12 -3 -15 -5 -3 -9 1 -9 9 0 17 3
19 12 6z"/>
<path d="M2196 4093 c-6 -14 -5 -15 5 -6 7 7 10 15 7 18 -3 3 -9 -2 -12 -12z"/>
<path d="M1260 4090 c-8 -5 -10 -10 -5 -10 6 0 17 5 25 10 8 5 11 10 5 10 -5
0 -17 -5 -25 -10z"/>
<path d="M35 4060 c-3 -5 -1 -10 4 -10 6 0 11 5 11 10 0 6 -2 10 -4 10 -3 0
-8 -4 -11 -10z"/>
<path d="M5946 3851 c-4 -5 -2 -12 3 -15 5 -4 12 -2 15 3 4 5 2 12 -3 15 -5 4
-12 2 -15 -3z"/>
<path d="M1811 3794 c0 -11 3 -14 6 -6 3 7 2 16 -1 19 -3 4 -6 -2 -5 -13z"/>
<path d="M5491 3741 c-1 -8 -8 -11 -18 -7 -15 5 -14 3 2 -10 20 -16 20 -16 -1
-11 -18 4 -22 1 -19 -18 1 -17 -2 -22 -13 -17 -12 4 -14 1 -9 -13 7 -16 5 -16
-10 -4 -9 8 -14 9 -10 2 4 -7 -4 -22 -18 -36 -15 -13 -28 -32 -29 -43 -2 -10
-9 -18 -15 -16 -6 1 -11 -5 -11 -14 0 -9 5 -12 12 -8 7 4 8 3 4 -4 -4 -7 -13
-12 -21 -12 -9 0 -12 -8 -10 -21 3 -17 1 -19 -10 -9 -8 7 -15 7 -19 1 -3 -5 0
-12 6 -14 8 -3 6 -6 -4 -6 -10 -1 -18 -6 -18 -12 0 -5 -6 -7 -12 -3 -7 4 -10
4 -6 -1 4 -4 2 -15 -4 -24 -10 -13 -10 -14 2 -3 22 19 32 14 13 -6 -10 -11
-21 -17 -25 -15 -5 2 -8 -3 -8 -11 0 -15 -12 -21 -33 -17 -5 1 -6 -3 -3 -8 4
-5 2 -13 -4 -16 -8 -5 -7 -11 1 -21 7 -9 8 -14 3 -13 -26 5 -36 -2 -31 -22 3
-12 3 -18 0 -15 -8 8 -43 -13 -43 -25 0 -6 6 -7 13 -3 8 5 7 2 -2 -9 -10 -13
-17 -14 -27 -6 -10 8 -12 6 -9 -11 3 -17 0 -20 -12 -16 -13 5 -13 4 -4 -7 14
-17 -10 -42 -32 -34 -8 3 -14 -1 -14 -7 0 -15 -54 -86 -65 -86 -4 0 -5 -6 -2
-14 5 -13 -17 -32 -38 -35 -5 -1 -8 -3 -8 -6 0 -3 0 -8 0 -11 0 -4 6 -3 13 2
7 5 4 1 -6 -8 -11 -10 -24 -15 -31 -11 -6 4 -4 -2 4 -13 8 -10 11 -16 6 -12
-5 4 -16 -1 -25 -10 -10 -11 -12 -12 -6 -2 9 13 8 13 -7 1 -10 -7 -15 -18 -11
-24 3 -5 -1 -15 -9 -21 -14 -11 -18 -17 -18 -33 0 -5 -5 -1 -11 7 -9 12 -10
11 -6 -7 4 -16 -1 -23 -20 -27 -13 -4 -21 -11 -18 -17 4 -5 1 -17 -7 -26 -11
-14 -11 -16 3 -11 9 4 16 1 16 -8 0 -7 -4 -11 -9 -8 -4 3 -5 -2 -2 -11 4 -11
10 -12 18 -6 9 8 12 2 10 -20 -2 -26 0 -28 14 -17 12 10 14 10 8 1 -4 -7 -3
-13 3 -13 11 0 9 -19 -3 -39 -6 -10 -5 -12 2 -7 7 4 12 1 12 -6 0 -9 3 -9 10
2 6 9 10 10 10 3 0 -6 -5 -15 -10 -18 -7 -4 -7 -12 0 -24 5 -10 6 -21 2 -25
-3 -4 2 -4 13 0 17 7 18 6 7 -8 -10 -13 -10 -18 -1 -24 8 -5 9 -3 4 6 -5 8 -4
11 3 6 13 -8 5 -36 -11 -36 -6 0 -7 -3 -4 -6 4 -4 14 -1 23 7 16 13 16 12 5
-8 -9 -17 -9 -23 0 -23 8 0 7 -5 -2 -17 -8 -9 -9 -14 -3 -10 7 4 14 0 18 -8 3
-8 0 -17 -6 -21 -7 -5 -8 -2 -3 6 6 9 4 11 -4 6 -9 -6 -8 -13 6 -29 10 -11 12
-17 6 -13 -8 4 -13 1 -13 -9 0 -8 6 -18 13 -21 8 -3 14 -11 14 -19 0 -18 -9
-19 -26 -2 -10 10 -11 9 -6 -5 7 -17 17 -22 40 -19 6 1 1 -6 -10 -15 -20 -16
-20 -16 3 -9 17 5 22 2 22 -11 0 -13 3 -14 15 -4 8 7 15 9 15 4 0 -5 4 -3 9 5
6 9 11 10 15 2 6 -10 -6 -15 -26 -12 -5 0 -8 -3 -8 -9 0 -11 28 -9 48 4 7 4
12 4 11 -1 -3 -20 2 -27 11 -13 5 8 10 10 10 3 0 -6 9 -9 20 -6 11 3 20 1 20
-5 0 -6 10 -14 23 -18 32 -12 40 -11 56 0 11 8 13 8 7 -1 -8 -14 0 -16 50 -13
20 1 33 -4 37 -14 4 -9 12 -16 19 -16 9 0 8 3 -2 10 -9 6 -10 10 -3 10 6 0 18
-7 27 -15 16 -16 30 -20 22 -6 -7 10 20 9 30 -2 12 -12 26 -8 18 5 -4 7 -3 8
4 4 7 -4 12 -14 12 -22 0 -15 21 -15 32 1 5 6 8 3 8 -7 0 -21 16 -32 26 -17 4
8 3 9 -4 5 -7 -4 -12 -2 -12 3 0 14 17 14 25 1 4 -6 11 -8 16 -5 5 4 9 1 9 -5
0 -6 5 -8 10 -5 6 4 7 11 4 17 -4 7 -2 8 5 4 6 -4 8 -13 4 -19 -4 -7 2 -5 12
3 11 9 16 10 11 3 -5 -9 1 -13 19 -13 15 0 24 -4 20 -10 -3 -5 1 -10 10 -10 9
0 14 4 11 8 -3 5 1 9 9 9 8 0 12 -4 10 -8 -3 -4 2 -9 9 -12 8 -3 16 -1 18 5 2
6 10 4 20 -6 11 -10 19 -12 23 -6 5 8 11 7 21 -1 7 -6 12 -15 9 -18 -6 -11 28
-10 43 2 8 6 12 6 12 -1 0 -6 12 -10 28 -10 49 1 63 -2 57 -12 -4 -6 1 -7 11
-3 13 5 15 3 9 -7 -5 -9 -4 -11 4 -6 9 6 9 11 0 22 -6 8 -8 14 -4 14 4 0 15
-10 24 -21 17 -21 18 -21 35 -3 18 17 18 17 12 -4 -7 -20 -5 -21 17 -13 13 5
30 6 37 1 7 -4 20 -6 28 -2 10 3 13 1 8 -6 -5 -8 -2 -10 8 -6 9 3 13 11 10 18
-3 6 1 2 10 -8 8 -10 13 -23 9 -28 -3 -6 4 -5 16 1 11 7 21 8 21 3 0 -4 14 -7
30 -6 17 1 30 -3 30 -8 0 -6 6 -5 15 2 12 10 18 8 33 -10 14 -18 19 -19 19 -7
0 9 -5 13 -10 10 -6 -4 -7 -1 -2 7 5 9 14 4 32 -16 19 -23 22 -24 13 -6 -13
26 -8 28 14 6 12 -12 16 -12 16 -2 0 10 3 9 10 -2 8 -13 10 -13 10 -1 0 11 4
9 15 -5 13 -16 16 -17 25 -4 9 13 10 13 10 0 0 -13 1 -13 10 0 8 12 10 12 10
1 0 -11 3 -11 17 0 14 12 15 12 9 0 -7 -10 -3 -12 14 -6 20 6 22 4 17 -14 -7
-28 1 -27 13 2 7 17 9 18 9 5 1 -10 6 -18 12 -18 5 0 8 4 4 9 -3 5 0 13 6 17
8 5 9 3 4 -6 -6 -10 -4 -12 8 -7 10 4 20 0 26 -11 8 -13 10 -13 11 -3 0 11 4
10 13 -4 10 -12 16 -14 21 -7 4 7 12 12 17 12 6 0 8 -4 5 -8 -3 -5 1 -9 8 -9
8 0 12 7 9 16 -3 11 0 10 11 -3 15 -18 21 -15 17 8 -1 5 6 3 15 -5 10 -8 15
-9 11 -2 -4 7 0 17 10 23 15 9 14 10 -7 5 -25 -5 -25 -5 -2 6 23 12 25 19 22
57 -1 12 4 22 10 22 6 0 8 -5 4 -12 -5 -9 -3 -9 9 1 9 7 14 17 11 23 -3 5 0
17 8 26 12 15 11 16 -5 3 -15 -12 -17 -12 -11 3 3 9 10 16 16 16 5 0 6 5 2 12
-5 7 -2 9 8 6 8 -4 15 0 15 8 0 7 -5 10 -11 7 -6 -3 -6 -1 1 7 6 7 9 19 6 26
-6 17 8 18 27 2 12 -11 12 -10 2 3 -6 9 -8 20 -4 24 4 5 2 5 -5 1 -6 -3 -15
-1 -19 6 -4 7 -4 10 1 6 4 -4 14 -3 22 3 14 12 18 34 5 25 -11 -6 -9 25 3 43
5 10 4 12 -3 7 -11 -6 -16 6 -13 27 0 4 -5 6 -11 5 -7 -2 -12 5 -12 14 1 11
-5 15 -18 13 -15 -3 -17 -1 -9 9 13 15 5 27 -14 20 -9 -4 -13 2 -11 20 3 22 1
24 -11 14 -11 -9 -13 -8 -11 3 2 8 8 17 13 21 6 5 6 8 -2 8 -6 0 -15 -5 -18
-10 -11 -17 -23 -1 -17 22 3 14 2 19 -6 14 -11 -6 -16 6 -13 27 0 4 -3 7 -9 7
-5 0 -10 -5 -10 -12 0 -6 -3 -8 -6 -5 -4 4 -1 14 7 23 13 16 12 17 -8 12 -16
-4 -20 -2 -16 8 3 8 0 14 -6 14 -6 0 -11 6 -11 13 0 6 -16 22 -36 35 -19 12
-32 27 -29 32 3 5 1 11 -5 15 -5 3 -10 16 -10 28 0 18 -2 19 -10 7 -7 -12 -10
-8 -11 15 0 26 -2 27 -9 10 -8 -19 -9 -19 -9 2 -1 12 -9 24 -20 28 -13 4 -18
13 -16 25 2 12 -9 31 -33 51 -20 18 -36 40 -34 48 1 9 -4 5 -13 -9 l-15 -25 6
29 c4 16 3 27 -2 24 -5 -3 -14 0 -21 7 -10 11 -10 15 0 18 7 3 4 6 -6 6 -12 1
-16 5 -11 14 5 7 0 6 -11 -3 -17 -14 -17 -14 -7 5 9 18 7 21 -11 22 -12 1 -23
7 -26 14 -2 6 -12 20 -22 30 -11 11 -19 24 -19 29 0 6 -5 10 -11 10 -5 0 -7 4
-4 10 4 6 -1 7 -11 3 -11 -4 -15 -2 -11 4 7 11 -42 49 -57 45 -5 -2 -4 3 3 12
8 10 9 16 1 21 -6 3 -8 11 -4 16 3 5 0 8 -8 7 -7 -2 -12 2 -11 8 1 7 -4 11
-12 10 -8 0 -14 2 -14 6 -2 18 -44 56 -57 51 -10 -4 -12 0 -8 11 4 9 3 16 -2
15 -20 -3 -34 2 -34 12 0 5 6 7 13 3 7 -5 7 -1 -2 10 -8 10 -23 15 -33 12 -17
-4 -17 -2 -6 12 10 12 10 14 1 8 -7 -4 -13 -3 -13 3 0 5 -9 13 -21 16 -17 6
-18 9 -7 23 10 12 10 14 1 8 -8 -4 -13 -2 -13 4 0 6 -4 9 -9 6 -4 -3 -17 1
-27 9 -13 10 -14 14 -4 12 8 -2 12 -2 7 0 -4 3 -5 8 -2 12 2 5 -7 7 -20 5 -21
-2 -23 0 -15 17 8 15 7 17 -4 13 -8 -3 -23 -1 -33 6 -16 9 -15 10 6 4 21 -5
22 -4 10 9 -8 8 -19 12 -26 10 -7 -3 -18 7 -24 21 -7 14 -19 26 -27 26 -16 0
-52 37 -52 53 0 5 -6 5 -14 -2 -11 -9 -13 -6 -10 14 2 20 -1 24 -10 16 -18
-15 -28 -1 -13 17 10 13 9 14 -10 3 -19 -10 -22 -9 -17 4 4 8 -1 17 -10 21 -9
3 -13 10 -10 15 3 5 -3 6 -12 2 -12 -4 -15 -3 -10 5 5 8 0 12 -13 12 -10 0
-22 6 -24 13 -4 9 -6 9 -6 -2z m-105 -149 c-18 -16 -18 -16 -6 6 6 13 14 21
18 18 3 -4 -2 -14 -12 -24z m-156 -226 c0 -2 -7 -7 -16 -10 -8 -3 -12 -2 -9 4
6 10 25 14 25 6z m790 -108 c10 -21 10 -21 -3 -6 -8 10 -18 14 -22 10 -5 -4
-5 -1 -1 6 10 17 14 15 26 -10z m75 -78 c3 -6 -1 -7 -9 -4 -18 7 -21 14 -7 14
6 0 13 -4 16 -10z m-1025 -20 c0 -5 -2 -10 -4 -10 -3 0 -8 5 -11 10 -3 6 -1
10 4 10 6 0 11 -4 11 -10z m-47 -49 c-15 -22 -30 -38 -32 -36 -3 4 49 75 56
75 2 0 -8 -18 -24 -39z m1366 -255 c15 -16 19 -26 12 -31 -7 -4 -10 -1 -9 7 2
7 -3 12 -10 10 -8 -1 -11 2 -8 7 4 5 -2 14 -11 20 -10 6 -13 11 -7 11 6 0 21
-11 33 -24z m-1248 -554 c5 7 9 8 9 2 0 -6 -3 -14 -6 -17 -9 -8 -44 11 -44 24
0 6 7 3 16 -6 14 -13 19 -14 25 -3z m592 -142 c9 -11 13 -20 7 -20 -5 0 -14 9
-20 20 -6 11 -9 20 -8 20 2 0 11 -9 21 -20z"/>
<path d="M1795 3640 c3 -5 8 -10 11 -10 2 0 4 5 4 10 0 6 -5 10 -11 10 -5 0
-7 -4 -4 -10z"/>
<path d="M643 3433 c0 -9 4 -10 14 -2 7 6 13 12 13 14 0 1 -6 2 -13 2 -8 0
-14 -6 -14 -14z"/>
<path d="M5065 3200 c-3 -6 1 -7 9 -4 18 7 21 14 7 14 -6 0 -13 -4 -16 -10z"/>
<path d="M6576 3192 c-3 -5 1 -9 9 -9 8 0 12 4 9 9 -3 4 -7 8 -9 8 -2 0 -6 -4
-9 -8z"/>
<path d="M1976 3098 c3 -4 0 -8 -6 -8 -6 0 -8 -4 -5 -10 9 -14 -8 -12 -25 3
-8 6 -11 8 -7 3 4 -5 2 -15 -5 -23 -9 -11 -7 -12 8 -7 16 5 16 4 4 -5 -8 -6
-23 -8 -32 -5 -14 4 -18 0 -18 -18 0 -18 -2 -20 -10 -8 -8 13 -10 13 -10 -2 0
-12 -5 -15 -17 -11 -13 5 -15 2 -10 -11 4 -9 3 -15 -2 -11 -5 3 -13 0 -17 -6
-4 -8 -9 -7 -15 2 -6 10 -9 11 -9 2 0 -7 -12 -13 -26 -13 -20 0 -25 -4 -20
-16 5 -12 1 -14 -15 -9 -15 5 -19 4 -15 -4 4 -6 2 -11 -3 -11 -6 0 -11 6 -11
13 -1 7 -6 5 -14 -5 -10 -14 -15 -15 -26 -5 -10 10 -11 9 -5 -2 6 -11 4 -13
-11 -8 -18 7 -18 6 -1 -7 17 -13 16 -14 -10 -13 -15 1 -31 6 -35 12 -5 6 -8 6
-8 -1 0 -7 -7 -15 -16 -18 -8 -3 -13 -2 -10 2 3 5 -2 9 -10 9 -8 0 -13 -6 -10
-13 3 -8 0 -11 -10 -7 -7 3 -14 8 -14 12 0 4 -11 7 -24 7 -14 0 -22 -4 -19 -9
4 -6 -5 -8 -21 -5 -19 4 -24 2 -17 -6 7 -8 4 -12 -9 -12 -10 0 -17 3 -14 7 2
4 -3 10 -12 13 -21 8 -24 8 -24 -5 0 -5 5 -7 10 -4 6 3 10 2 10 -4 0 -5 -9 -9
-20 -8 -12 1 -18 7 -16 14 3 7 0 15 -6 19 -6 4 -8 3 -5 -3 4 -6 -6 -13 -23
-15 -24 -4 -27 -2 -19 9 8 9 8 13 0 13 -6 0 -11 -4 -11 -8 0 -5 -7 -17 -15
-28 -10 -13 -13 -14 -10 -3 4 9 0 16 -7 16 -9 0 -13 -14 -13 -42 0 -25 -4 -42
-11 -42 -7 0 -10 7 -7 16 3 12 2 12 -7 -2 -6 -9 -8 -22 -5 -27 3 -6 -2 -10
-12 -11 -10 0 -13 -3 -5 -6 6 -2 12 -9 12 -14 0 -6 -3 -8 -7 -6 -5 3 -13 -1
-20 -8 -10 -11 -10 -15 0 -18 7 -3 4 -6 -6 -6 -15 -1 -16 -4 -7 -22 7 -11 9
-23 6 -27 -3 -3 -6 0 -6 7 0 7 -5 9 -10 6 -6 -4 -8 -11 -5 -16 6 -8 -8 -13
-27 -10 -10 1 3 -32 16 -41 6 -4 0 -8 -13 -8 -24 0 -24 -1 -6 -14 18 -13 17
-14 -10 -9 -22 3 -26 2 -16 -5 10 -7 12 -15 5 -24 -6 -7 -9 -23 -8 -35 0 -12
-3 -20 -8 -17 -4 3 -6 9 -4 13 3 4 -1 8 -9 8 -10 0 -11 -6 -5 -23 6 -15 5 -26
-2 -30 -7 -5 -8 -3 -3 6 5 9 4 11 -4 6 -9 -6 -9 -11 0 -22 9 -11 8 -15 -4 -20
-9 -3 -14 -14 -12 -25 2 -11 0 -17 -5 -14 -5 3 -11 1 -15 -5 -3 -5 -1 -10 6
-10 7 0 4 -7 -7 -16 -17 -14 -17 -15 -1 -10 11 3 16 2 12 -4 -3 -6 -12 -10
-20 -10 -8 0 -17 -5 -21 -12 -5 -8 -2 -9 12 -4 16 6 16 4 -3 -14 -25 -23 -32
-40 -8 -20 26 21 16 2 -14 -29 -22 -23 -26 -31 -14 -35 9 -4 11 -2 7 6 -5 7
-3 8 5 4 12 -8 7 -20 -10 -22 -22 -3 -23 -5 -9 -14 13 -9 13 -10 0 -10 -13 0
-13 -1 0 -10 12 -7 10 -11 -9 -18 -22 -8 -22 -9 -6 -16 17 -6 16 -8 -6 -33
-13 -14 -17 -23 -9 -19 9 5 8 2 -2 -7 -19 -15 -25 -33 -9 -23 10 7 9 -20 -2
-30 -4 -4 -1 -14 5 -23 10 -13 10 -14 -2 -3 -21 18 -35 15 -19 -5 10 -11 10
-14 2 -9 -8 4 -13 1 -13 -9 0 -10 5 -14 13 -10 6 4 5 1 -3 -7 -8 -7 -15 -29
-14 -48 0 -45 -17 -82 -35 -75 -10 4 -8 -2 5 -16 10 -12 13 -19 5 -14 -9 5
-12 3 -9 -6 3 -8 -2 -23 -11 -34 -15 -19 -15 -19 3 -5 15 11 18 12 12 1 -5 -8
-3 -17 5 -22 11 -7 11 -9 1 -9 -7 0 -10 -5 -6 -12 4 -7 3 -8 -4 -4 -7 4 -12 2
-12 -4 0 -6 -5 -8 -12 -4 -7 4 -8 3 -4 -5 4 -6 11 -9 15 -7 4 3 8 -1 8 -10 0
-10 -7 -12 -21 -8 -12 3 -16 2 -11 -3 15 -12 17 -40 4 -64 -10 -19 -9 -21 7
-15 17 7 17 6 -1 -14 -12 -13 -14 -20 -5 -20 9 0 10 -3 1 -13 -8 -10 -7 -17 2
-27 10 -10 8 -12 -7 -6 -19 6 -19 6 -4 -11 14 -15 14 -22 4 -41 -7 -12 -15
-19 -20 -15 -4 4 -4 0 0 -10 5 -15 9 -15 23 -5 14 11 14 11 4 -3 -7 -9 -10
-19 -6 -23 4 -4 0 -4 -8 -1 -10 4 -16 0 -16 -9 0 -8 5 -12 10 -9 5 3 7 0 5 -8
-3 -8 -1 -23 5 -34 10 -20 10 -20 -14 0 -13 11 -19 13 -12 6 6 -7 9 -20 6 -29
-4 -9 -2 -13 4 -9 6 4 13 1 16 -6 7 -18 -8 -43 -17 -29 -3 6 -1 13 4 15 6 3 5
4 -2 2 -7 -1 -12 -9 -10 -16 2 -8 4 -22 5 -31 1 -10 7 -18 14 -18 8 0 16 -13
19 -30 4 -19 13 -30 23 -30 14 0 14 2 1 10 -13 8 -12 10 3 10 19 0 23 -15 7
-25 -6 -4 -8 -11 -4 -16 4 -6 11 -6 19 1 11 9 13 6 10 -15 -2 -23 1 -26 21
-22 20 3 22 1 13 -14 -8 -15 -5 -20 16 -25 14 -4 24 -9 21 -11 -7 -7 18 -32
27 -26 4 2 7 -2 7 -9 0 -13 26 -34 45 -36 6 0 13 -11 16 -24 3 -13 12 -22 19
-20 11 3 11 0 0 -13 -12 -14 -10 -15 13 -6 23 9 25 8 22 -14 -1 -13 1 -23 5
-22 4 1 17 -8 28 -21 11 -13 24 -24 29 -25 4 -1 7 -6 5 -11 -2 -5 3 -4 12 3
12 10 16 8 21 -9 5 -17 9 -19 21 -9 12 10 13 9 8 -4 -3 -9 1 -24 10 -32 12
-12 16 -13 16 -3 0 10 2 10 9 -1 7 -11 10 -11 15 0 3 8 4 3 2 -11 -5 -22 -4
-23 8 -8 7 10 17 14 21 10 5 -4 5 1 2 10 -5 16 -4 16 15 5 16 -9 22 -9 25 0 2
7 11 9 19 6 10 -3 14 2 14 18 0 18 2 21 9 10 8 -13 12 -13 27 0 10 8 15 9 11
2 -4 -6 -2 -10 5 -9 25 3 39 18 34 35 -6 14 -5 15 6 0 13 -16 38 -15 38 2 0 6
-5 7 -12 3 -7 -4 -8 -3 -4 5 6 9 11 9 22 0 11 -9 14 -8 14 2 0 8 6 5 15 -7 15
-18 15 -18 8 0 -4 13 -3 17 5 12 6 -3 14 -1 18 5 4 7 3 9 -2 6 -6 -3 -16 -1
-24 4 -12 7 -11 8 5 6 11 -1 26 -7 34 -11 10 -6 12 -5 7 2 -4 7 -1 12 8 12 9
0 16 5 16 12 0 6 7 3 16 -8 8 -10 13 -14 10 -7 -4 6 0 14 6 16 10 4 10 6 1 6
-7 1 -13 5 -13 10 0 4 11 7 25 6 14 -2 25 2 25 8 0 7 5 5 10 -3 6 -10 10 -11
10 -2 0 6 5 12 11 12 5 0 7 -5 3 -12 -4 -7 -3 -8 4 -4 7 4 12 13 12 21 0 8 5
17 12 21 7 4 8 3 4 -4 -11 -18 5 -14 27 5 11 10 17 13 14 6 -10 -16 6 -24 23
-12 12 7 12 9 2 9 -27 0 -5 24 24 26 16 1 35 2 42 3 7 0 17 11 22 24 5 12 9
17 9 11 1 -6 7 -11 15 -11 8 0 12 6 8 15 -4 11 -1 13 8 7 10 -6 12 -4 6 10 -6
16 -4 16 11 4 15 -12 16 -12 10 3 -4 13 -2 15 11 11 9 -4 19 -10 22 -14 3 -4
12 0 20 9 13 14 12 15 -4 9 -16 -6 -17 -5 -6 8 7 8 16 13 20 10 5 -3 16 5 24
17 9 12 16 17 16 11 0 -7 -4 -15 -10 -18 -5 -3 -10 -11 -10 -16 0 -6 8 -3 18
7 9 10 17 22 17 27 0 6 7 12 15 14 13 4 13 3 0 -6 -9 -7 -10 -11 -3 -11 6 0
15 5 18 10 4 6 12 8 18 4 7 -3 3 2 -8 11 -19 16 -19 16 7 10 20 -5 29 -3 34 8
3 10 12 13 22 10 11 -5 14 -2 9 10 -4 11 -2 14 8 10 8 -3 12 -10 8 -16 -3 -6
-1 -7 6 -3 9 6 9 11 -1 24 -12 14 -10 14 10 3 18 -10 23 -9 28 4 3 8 10 15 16
15 5 0 6 -6 2 -12 -5 -10 -3 -10 7 0 12 11 12 14 -1 22 -21 13 -3 12 21 -1 19
-10 20 -9 9 11 -10 20 -10 21 8 11 16 -9 19 -7 18 7 -1 11 5 16 18 14 13 -2
16 1 10 10 -5 9 -2 8 11 -2 11 -9 16 -10 11 -2 -4 8 -1 12 9 12 11 0 15 5 12
15 -5 11 -1 12 20 4 22 -8 24 -7 14 5 -9 11 -9 16 1 22 20 13 48 15 48 4 0 -6
14 3 30 20 17 17 35 28 42 24 7 -4 8 -3 4 4 -4 7 2 16 16 21 13 5 31 18 40 30
10 11 24 18 32 15 8 -3 17 0 22 7 4 8 3 10 -4 5 -7 -4 -12 -2 -12 3 0 6 4 11
9 11 5 0 22 5 38 11 26 10 27 12 8 19 -14 6 -15 9 -4 9 8 1 20 -4 27 -11 9 -9
11 -6 7 10 -3 20 -2 21 18 10 20 -10 21 -9 9 5 -11 13 -10 15 13 13 19 -3 23
0 15 9 -7 9 -2 11 19 10 21 -1 28 2 24 12 -4 11 -8 11 -21 1 -12 -10 -14 -10
-8 -1 4 7 16 18 28 24 13 7 18 7 14 1 -3 -6 -1 -14 6 -18 7 -4 10 -4 6 1 -12
13 12 47 28 41 12 -5 14 -1 9 17 -7 22 -7 22 9 2 15 -20 15 -20 16 4 0 19 3
21 14 12 9 -7 17 -8 20 -2 3 5 0 12 -6 14 -10 4 -10 6 0 6 7 1 10 6 6 12 -4 7
1 7 16 -1 12 -6 24 -9 28 -6 3 3 0 6 -6 6 -7 0 -12 5 -12 11 0 5 5 7 10 4 9
-5 14 6 12 26 -1 3 6 6 13 6 12 0 12 -3 2 -16 -10 -14 -10 -14 4 -4 9 7 19 9
24 5 4 -4 2 4 -5 18 -7 14 -9 22 -5 17 5 -4 19 0 31 8 22 14 23 14 18 -2 -5
-17 -5 -17 6 0 6 9 8 22 5 27 -6 9 10 14 42 13 7 -1 10 3 7 8 -3 5 0 9 7 9 7
0 4 6 -7 14 -19 14 -19 14 1 13 11 -1 23 -6 27 -12 4 -5 8 0 8 12 0 26 15 38
26 22 5 -8 3 -9 -6 -4 -9 5 -11 4 -6 -4 10 -16 26 -4 19 15 -3 9 0 14 7 12 7
-2 15 3 18 11 3 9 0 11 -8 6 -9 -5 -11 -4 -6 3 5 9 13 9 28 1 15 -8 19 -8 14
0 -4 6 0 11 8 11 10 0 13 6 9 17 -5 12 -2 15 10 10 9 -3 16 -3 16 1 -1 4 0 9
1 12 8 21 7 39 -2 34 -7 -5 -9 3 -5 22 5 27 4 27 -9 9 -13 -17 -14 -16 -14 19
0 20 -4 35 -8 32 -4 -2 -9 5 -10 17 -5 46 -9 59 -21 67 -10 5 -10 9 -2 11 7 3
9 12 6 22 -4 9 -12 14 -19 10 -8 -5 -8 -3 0 8 15 19 14 51 -2 45 -9 -3 -11 1
-7 11 5 12 3 14 -8 8 -11 -6 -12 -5 -2 5 10 11 15 11 29 -1 16 -12 17 -12 9 1
-6 8 -10 18 -10 22 0 3 -4 10 -9 15 -5 4 -7 3 -3 -3 3 -6 -1 -11 -9 -11 -10 0
-11 4 -4 11 15 15 13 49 -2 41 -7 -4 -4 0 6 9 10 8 23 13 27 10 16 -9 10 3 -8
17 -9 8 -14 9 -10 3 3 -6 0 -11 -7 -11 -11 0 -12 4 -3 18 6 10 14 16 18 13 18
-11 1 55 -20 77 -13 13 -21 19 -17 13 4 -8 -3 -11 -18 -10 -16 1 -22 6 -18 16
5 13 3 13 -10 2 -13 -10 -18 -10 -24 -1 -4 7 -3 9 3 6 5 -3 10 0 10 7 0 10 -8
12 -29 5 -22 -6 -30 -4 -35 7 -3 7 -9 14 -15 14 -5 0 -6 -6 -2 -12 11 -18 -26
11 -48 36 -14 18 -18 18 -33 6 -16 -13 -17 -13 -11 6 4 14 2 21 -8 21 -9 0
-13 -3 -11 -7 2 -4 -2 -7 -10 -7 -8 0 -12 4 -9 9 3 4 -4 8 -16 8 -12 0 -19 4
-16 8 2 4 -4 13 -15 20 -10 7 -19 8 -19 3 0 -5 6 -11 13 -14 6 -2 9 -7 6 -11
-3 -3 -15 3 -27 15 -12 11 -26 18 -31 15 -4 -3 -17 2 -27 10 -10 9 -14 13 -7
10 6 -4 14 -2 18 3 3 6 -5 8 -20 5 -14 -2 -25 0 -25 6 0 5 -7 10 -16 10 -9 0
-12 -5 -8 -12 4 -7 3 -8 -4 -4 -7 4 -12 16 -12 27 0 24 -20 26 -20 2 -1 -14
-4 -13 -14 6 -10 18 -15 20 -19 10 -4 -11 -6 -11 -6 -1 -1 7 -5 10 -11 7 -5
-3 -10 2 -10 12 0 15 -2 16 -10 3 -8 -13 -10 -12 -10 3 0 9 -5 17 -11 17 -5 0
-7 -6 -3 -12 4 -7 -5 0 -21 15 -21 21 -30 24 -37 15 -6 -11 -8 -10 -8 0 0 9
-8 11 -22 8 -13 -3 -17 -3 -10 0 6 3 12 10 12 15 0 6 -4 8 -9 4 -6 -3 -15 3
-21 12 -11 17 -11 17 -6 -1 6 -16 4 -17 -9 -6 -8 7 -12 17 -9 24 3 6 -2 2 -10
-8 -16 -20 -16 -20 -17 0 -1 10 -1 24 1 29 1 6 -4 4 -11 -2 -19 -18 -29 -16
-22 5 3 9 3 14 -2 10 -4 -4 -15 -2 -23 5 -13 11 -14 9 -2 -13 12 -23 12 -24
-3 -11 -10 7 -17 21 -17 29 0 12 -3 13 -12 4 -17 -17 -33 -15 -18 3 10 12 8
14 -9 10 -11 -2 -24 1 -27 7 -4 6 -2 8 4 4 6 -3 13 -3 16 2 3 5 -13 7 -35 6
-33 -2 -38 0 -28 12 7 8 9 17 5 21 -3 3 -6 2 -6 -4 0 -6 -9 -9 -20 -6 -11 3
-17 10 -14 15 4 6 -2 8 -15 3 -15 -4 -21 -2 -21 9 0 20 -20 31 -30 16 -6 -9
-10 -7 -15 9 -7 22 -27 30 -21 9 1 -7 1 -10 -1 -5 -3 4 -9 5 -13 2 -5 -3 -7 4
-5 15 2 11 0 20 -6 20 -5 0 -9 -6 -9 -12 0 -7 -5 -5 -11 4 -5 10 -19 23 -31
29 -11 6 -18 7 -15 2 4 -5 0 -10 -8 -10 -8 0 -14 3 -13 6 2 18 -3 31 -13 31
-5 0 -8 -4 -4 -9 3 -5 1 -13 -5 -16 -6 -4 -10 -3 -9 2 3 20 -2 25 -16 13 -13
-11 -14 -10 -10 2 4 9 0 15 -9 15 -8 0 -13 -4 -10 -9z m132 -63 c-3 -3 -9 2
-12 12 -6 14 -5 15 5 6 7 -7 10 -15 7 -18z m-578 -156 c0 -5 -4 -9 -10 -9 -5
0 -10 5 -10 12 0 9 -3 9 -12 0 -7 -7 -16 -12 -22 -12 -5 0 -1 6 9 14 19 14 45
11 45 -5z m1095 -99 c3 -5 1 -10 -4 -10 -6 0 -11 5 -11 10 0 6 2 10 4 10 3 0
8 -4 11 -10z m425 -190 c0 -5 -2 -10 -4 -10 -3 0 -8 5 -11 10 -3 6 -1 10 4 10
6 0 11 -4 11 -10z m213 -95 c4 -8 3 -16 -1 -19 -4 -3 -9 4 -9 15 -2 23 3 25
10 4z m34 -347 c2 -17 0 -19 -7 -8 -5 8 -6 18 -4 22 8 12 10 10 11 -14z m-743
-762 c-10 -8 -21 -12 -24 -10 -5 6 21 24 34 24 6 0 1 -6 -10 -14z m-267 -158
c-3 -8 -6 -5 -6 6 -1 11 2 17 5 13 3 -3 4 -12 1 -19z m-386 -201 c-10 -9 -11
-8 -5 6 3 10 9 15 12 12 3 -3 0 -11 -7 -18z m-718 -120 c4 3 7 4 7 0 0 -17
-20 -14 -36 6 -19 22 -19 22 2 4 11 -9 24 -14 27 -10z"/>
<path d="M4456 3092 c-3 -5 1 -9 9 -9 8 0 12 4 9 9 -3 4 -7 8 -9 8 -2 0 -6 -4
-9 -8z"/>
<path d="M2950 3040 c0 -5 5 -10 11 -10 5 0 7 5 4 10 -3 6 -8 10 -11 10 -2 0
-4 -4 -4 -10z"/>
<path d="M3606 3032 c-2 -4 -1 -14 4 -22 7 -11 9 -9 7 8 -1 24 -3 26 -11 14z"/>
<path d="M6836 2892 c-3 -5 1 -9 9 -9 8 0 12 4 9 9 -3 4 -7 8 -9 8 -2 0 -6 -4
-9 -8z"/>
<path d="M3980 2758 c0 -24 -18 -32 -37 -16 -10 7 -14 8 -10 1 10 -15 -14 -23
-36 -11 -10 5 -21 7 -25 4 -3 -3 -1 -6 5 -6 6 0 14 -7 17 -16 5 -14 4 -15 -9
-4 -11 9 -15 9 -15 1 0 -7 -4 -9 -10 -6 -5 3 -10 1 -10 -5 0 -7 -7 -10 -14 -7
-10 4 -13 1 -9 -9 4 -10 -2 -17 -16 -21 -19 -5 -25 -15 -22 -35 0 -4 -10 -3
-23 2 -22 8 -23 6 -21 -21 2 -21 -4 -35 -21 -48 -15 -12 -20 -21 -13 -28 6 -6
4 -10 -6 -10 -8 0 -15 5 -15 10 0 6 -2 8 -5 5 -3 -3 -1 -17 4 -31 7 -18 7 -28
-1 -33 -6 -4 -8 -3 -4 4 3 6 3 13 -2 16 -13 8 -12 -37 1 -53 7 -9 8 -12 1 -8
-7 4 -11 -14 -12 -58 0 -36 -4 -70 -8 -76 -4 -7 -3 -9 4 -5 6 3 13 2 17 -4 3
-5 -1 -10 -11 -10 -13 0 -12 -4 7 -21 13 -11 19 -18 12 -15 -6 4 -15 2 -18 -4
-4 -6 -3 -10 2 -9 4 1 14 1 22 0 11 -1 11 -4 0 -18 -10 -11 -10 -14 -1 -9 8 4
12 1 12 -9 0 -11 5 -15 15 -11 8 3 14 0 12 -7 -1 -7 4 -11 11 -9 8 1 11 -2 7
-8 -3 -6 -10 -8 -14 -6 -4 3 -8 -1 -8 -9 0 -8 3 -13 6 -11 3 2 17 0 30 -5 20
-8 22 -11 10 -26 -8 -9 -9 -14 -2 -10 6 4 18 0 26 -8 9 -8 23 -15 31 -15 9 0
16 -6 16 -14 0 -7 7 -19 16 -26 12 -11 15 -11 12 1 -2 8 -7 17 -13 21 -6 5 -5
8 3 8 7 0 18 -11 24 -25 9 -19 14 -22 25 -14 13 11 18 1 14 -24 -1 -5 3 -6 8
-2 6 3 8 13 5 23 -3 9 2 6 10 -8 8 -14 15 -20 16 -14 0 15 51 9 61 -8 7 -11 9
-11 9 0 0 7 4 10 10 7 17 -11 51 -14 45 -5 -3 5 -1 11 5 15 5 3 10 1 10 -4 0
-13 22 -10 32 4 5 6 8 5 8 -2 0 -7 5 -13 11 -13 5 0 7 6 3 13 -6 9 -4 9 8 -1
13 -10 18 -10 24 -1 4 7 3 9 -3 6 -5 -3 -10 0 -10 8 0 8 4 12 9 9 20 -12 47
-12 42 0 -4 9 3 12 21 11 23 -3 24 -1 13 12 -12 14 -11 15 9 5 19 -11 21 -10
18 8 -2 11 -1 19 3 19 4 -1 10 0 15 1 4 1 13 3 20 4 6 0 12 6 12 11 0 15 16
36 23 31 4 -2 16 3 27 11 19 15 19 15 1 9 -16 -5 -17 -4 -6 9 7 8 17 12 22 9
5 -3 8 2 6 12 -2 11 3 19 11 19 19 0 25 43 9 64 -12 14 -11 14 5 2 12 -9 17
-10 17 -2 0 7 5 9 12 5 7 -4 8 -3 4 5 -4 6 -11 9 -15 7 -4 -3 -8 4 -8 15 -2
17 0 18 13 4 20 -20 30 -19 13 1 -10 13 -10 17 2 25 10 6 10 9 2 9 -7 0 -13 7
-13 15 0 8 6 15 13 15 9 0 8 3 -2 9 -11 7 -11 9 0 14 10 4 10 6 2 6 -7 1 -13
8 -13 17 0 8 4 13 8 10 4 -2 8 4 8 14 0 12 -4 16 -11 10 -7 -6 -10 0 -9 18 1
18 -6 32 -20 40 -18 12 -19 13 -2 7 19 -6 19 -5 3 13 -9 10 -17 25 -17 33 0 8
-12 21 -26 30 -24 15 -25 17 -9 32 18 19 13 22 -14 7 -16 -8 -18 -5 -15 23 1
18 0 26 -3 20 -8 -20 -36 -16 -29 3 6 14 4 15 -10 3 -14 -11 -15 -10 -12 7 2
15 -3 19 -25 18 -18 0 -26 4 -23 12 7 17 -19 25 -34 11 -10 -9 -11 -9 -6 0 3
6 1 15 -6 20 -17 10 -39 13 -34 4 9 -14 -34 -5 -47 9 -10 12 -9 12 5 2 11 -9
18 -10 23 -2 4 6 3 10 -2 9 -4 -1 -10 0 -13 1 -19 7 -39 7 -34 -1 3 -5 0 -9
-5 -9 -6 0 -11 6 -11 13 0 7 -3 8 -8 2 -9 -13 -46 -20 -38 -7 3 5 -1 9 -9 9
-8 0 -12 -4 -9 -9 3 -4 0 -8 -5 -8 -6 0 -11 6 -11 13 0 8 -4 7 -10 -3 -9 -13
-11 -13 -20 0 -8 13 -10 13 -10 -2z"/>
<path d="M6500 2722 c0 -6 5 -14 10 -17 6 -4 8 -10 5 -15 -3 -5 9 -16 27 -25
20 -9 27 -11 18 -3 -9 7 -25 26 -38 42 -12 16 -22 24 -22 18z"/>
<path d="M77 2709 c7 -7 15 -10 18 -7 3 3 -2 9 -12 12 -14 6 -15 5 -6 -5z"/>
<path d="M3070 2592 c0 -15 28 -23 36 -9 4 7 4 9 -1 5 -4 -4 -14 -3 -22 3 -8
7 -13 8 -13 1z"/>
<path d="M3719 2573 c-13 -16 -12 -17 4 -4 16 13 21 21 13 21 -2 0 -10 -8 -17
-17z"/>
<path d="M3651 2387 c-8 -10 -7 -14 2 -14 8 0 14 6 14 14 0 7 -1 13 -2 13 -2
0 -8 -6 -14 -13z"/>
<path d="M170 2359 c0 -5 5 -7 10 -4 6 3 10 8 10 11 0 2 -4 4 -10 4 -5 0 -10
-5 -10 -11z"/>
<path d="M5230 2245 c0 -8 2 -15 4 -15 2 0 6 7 10 15 3 8 1 15 -4 15 -6 0 -10
-7 -10 -15z"/>
<path d="M946 2138 c3 -5 10 -6 15 -3 13 9 11 12 -6 12 -8 0 -12 -4 -9 -9z"/>
<path d="M3755 2110 c-3 -6 1 -7 9 -4 18 7 21 14 7 14 -6 0 -13 -4 -16 -10z"/>
<path d="M4356 2112 c-3 -5 1 -9 9 -9 8 0 12 4 9 9 -3 4 -7 8 -9 8 -2 0 -6 -4
-9 -8z"/>
<path d="M4315 2069 c-4 -6 -5 -12 -2 -15 2 -3 7 2 10 11 7 17 1 20 -8 4z"/>
<path d="M4824 1988 c3 -15 26 -23 26 -8 0 6 -4 9 -9 6 -5 -4 -12 -1 -14 4 -3
6 -4 5 -3 -2z"/>
<path d="M4794 1945 c2 -13 0 -24 -3 -23 -15 3 -41 -16 -41 -29 0 -9 -6 -13
-15 -10 -11 5 -12 1 -5 -19 9 -23 8 -24 -13 -13 -20 11 -21 11 -9 -4 12 -14
11 -16 -7 -12 -19 3 -20 2 -9 -18 10 -20 10 -21 -6 -8 -14 12 -16 12 -10 -2 4
-12 1 -15 -15 -12 -19 3 -20 2 -9 -18 11 -21 10 -21 -7 -7 -17 14 -18 13 -11
-5 6 -16 5 -17 -5 -8 -9 9 -16 10 -26 2 -16 -14 -18 -43 -1 -33 7 4 8 3 4 -4
-4 -8 -15 -8 -31 -2 -20 8 -23 6 -18 -7 5 -12 3 -14 -7 -8 -10 6 -12 4 -6 -10
5 -15 4 -16 -9 -5 -13 11 -14 10 -10 -3 4 -8 1 -18 -6 -23 -8 -4 -10 -3 -5 4
4 7 2 12 -3 12 -10 0 -15 -14 -12 -33 1 -4 -8 -3 -19 3 -15 8 -20 8 -20 -1 0
-9 -3 -9 -14 0 -11 9 -13 6 -11 -14 2 -14 -1 -23 -6 -19 -5 3 -7 9 -5 13 3 4
-1 8 -9 8 -8 0 -13 -3 -10 -5 3 -3 0 -11 -6 -19 -9 -10 -15 -10 -25 -2 -9 7
-14 8 -14 1 0 -5 -7 -13 -16 -16 -15 -6 -15 -4 -3 10 13 16 12 16 -8 4 -12 -8
-21 -16 -21 -19 1 -17 -4 -20 -27 -11 -15 6 -27 6 -30 0 -3 -5 -13 -6 -22 -3
-10 4 -14 2 -9 -5 3 -6 1 -14 -5 -18 -7 -4 -9 -3 -5 4 3 6 2 13 -4 17 -5 3
-10 0 -10 -7 -1 -8 -6 -6 -15 6 -14 19 -15 19 -15 2 0 -16 -2 -17 -17 -5 -11
10 -14 10 -9 2 4 -7 3 -13 -3 -13 -5 0 -12 6 -15 13 -4 6 -4 1 -2 -13 5 -24 4
-24 -9 -6 -8 11 -24 20 -35 21 -13 1 -17 -2 -10 -10 6 -7 3 -11 -9 -11 -10 0
-17 5 -15 11 2 5 -11 11 -30 12 -25 1 -36 -3 -39 -15 -4 -14 -5 -13 -6 3 -1
17 -3 18 -11 5 -8 -13 -10 -12 -10 3 0 20 -11 22 -28 5 -9 -9 -12 -9 -12 3 0
12 -2 12 -10 -1 -8 -13 -10 -12 -10 4 0 17 -2 18 -12 5 -7 -8 -12 -13 -11 -11
1 2 -4 10 -10 17 -9 10 -15 10 -26 1 -12 -8 -13 -8 -7 2 6 11 -5 17 -26 13 -5
0 -8 4 -8 10 0 5 -4 8 -9 4 -5 -3 -17 2 -25 11 -9 8 -16 11 -16 5 0 -6 -13 3
-28 20 -20 22 -29 27 -29 16 0 -9 5 -13 10 -10 6 3 7 1 3 -6 -9 -13 -26 -5
-26 12 0 16 -37 19 -64 5 -29 -16 -75 -66 -67 -74 3 -4 0 -4 -7 0 -18 10 -44
-14 -37 -33 5 -13 4 -14 -6 -4 -10 11 -16 8 -26 -15 -12 -26 -13 -26 -8 -2 3
14 2 19 -1 12 -3 -6 -10 -10 -15 -7 -5 4 -6 -1 -2 -11 5 -13 2 -15 -18 -10
-13 3 -18 3 -11 0 20 -9 14 -27 -9 -21 -17 4 -18 3 -8 -9 10 -12 9 -13 -5 -8
-11 4 -16 2 -14 -7 2 -8 -5 -14 -14 -14 -9 0 -20 -4 -25 -9 -5 -5 -2 -6 6 -1
10 6 12 4 7 -4 -5 -7 -14 -10 -21 -7 -8 3 -19 -3 -27 -12 -8 -10 -8 -13 -1 -9
6 4 15 2 19 -4 4 -7 3 -9 -4 -5 -6 3 -17 -1 -25 -9 -20 -20 -28 -19 -20 3 5
14 3 13 -10 -3 -9 -11 -17 -27 -17 -35 0 -12 -2 -12 -9 -2 -6 11 -10 10 -15
-3 -3 -10 -12 -15 -21 -11 -8 3 -17 0 -21 -6 -4 -7 -3 -8 4 -4 7 4 12 2 12 -4
0 -7 7 -9 16 -6 8 3 12 2 9 -4 -3 -5 -21 -7 -41 -6 -27 3 -32 1 -24 -8 13 -16
3 -26 -18 -19 -11 5 -14 2 -10 -8 5 -12 -1 -14 -26 -11 -27 4 -29 2 -16 -9 8
-8 13 -13 11 -12 -2 1 -16 -7 -32 -17 -17 -13 -30 -17 -34 -10 -4 6 -11 8 -16
4 -6 -4 -6 -11 1 -19 9 -11 7 -12 -9 -8 -13 3 -21 1 -21 -6 0 -7 -4 -10 -9 -6
-5 3 -13 0 -17 -6 -4 -7 -3 -9 4 -5 6 3 13 3 16 -2 3 -5 -1 -9 -9 -10 -8 -1
-21 -3 -29 -4 -8 -1 -12 -7 -9 -15 3 -8 -3 -13 -17 -13 -24 0 -53 -24 -42 -35
4 -5 -1 -5 -10 -2 -10 4 -18 3 -18 -1 0 -4 -9 -13 -21 -20 -12 -8 -19 -9 -15
-4 3 5 -1 9 -9 9 -10 0 -11 -5 -4 -18 8 -15 6 -17 -6 -13 -9 4 -22 -1 -31 -12
-14 -18 -14 -18 -8 1 5 18 5 18 -6 2 -6 -9 -15 -15 -21 -12 -5 3 -6 -1 -3 -10
5 -11 2 -14 -12 -8 -13 5 -15 3 -9 -7 6 -10 4 -12 -8 -7 -10 4 -28 -3 -45 -18
-19 -16 -32 -21 -39 -14 -6 6 -10 5 -10 -5 0 -8 4 -13 8 -10 4 2 10 1 13 -4 3
-5 0 -9 -7 -10 -7 -1 -23 -3 -37 -5 -14 -2 -26 -11 -29 -22 -2 -14 -5 -15 -12
-4 -7 11 -9 10 -9 -5 0 -15 -3 -16 -14 -7 -10 8 -16 9 -21 1 -3 -6 -11 -7 -17
-4 -7 4 -8 2 -4 -5 6 -9 12 -9 24 1 15 11 15 11 5 -3 -7 -9 -10 -19 -6 -23 4
-4 -1 -4 -11 0 -15 6 -17 4 -11 -6 5 -9 4 -11 -4 -6 -6 4 -9 13 -5 19 3 7 -4
1 -16 -13 -12 -14 -19 -20 -16 -13 4 6 1 15 -5 19 -8 4 -9 3 -5 -4 4 -7 2 -12
-4 -12 -6 0 -9 -4 -5 -9 3 -5 1 -12 -5 -16 -5 -3 -10 -1 -10 5 0 6 -5 8 -10 5
-6 -4 -7 -11 -4 -17 5 -7 2 -8 -5 -4 -7 5 -10 14 -7 22 8 22 -2 17 -15 -7 -9
-17 -8 -20 3 -13 11 6 11 5 0 -8 -15 -19 -55 -32 -45 -15 3 7 -5 0 -20 -15
-28 -30 -48 -39 -26 -11 13 15 12 15 -9 4 -12 -7 -20 -17 -16 -23 4 -6 3 -8
-3 -5 -6 4 -14 0 -17 -9 -3 -8 -10 -13 -16 -9 -5 3 -19 -3 -31 -13 -11 -11
-29 -18 -40 -15 -13 4 -22 -2 -28 -18 -9 -22 -16 -12 -12 16 1 6 -12 -5 -27
-24 -20 -23 -31 -30 -34 -21 -5 15 -28 5 -28 -11 0 -6 5 -7 10 -4 16 10 11 -1
-7 -16 -10 -8 -14 -9 -10 -2 4 6 3 14 -3 18 -6 3 -13 -1 -16 -9 -3 -9 -10 -16
-16 -16 -5 0 -6 5 -2 11 4 8 0 8 -15 0 -11 -7 -21 -19 -21 -29 0 -13 -2 -14
-9 -3 -5 7 -14 10 -20 7 -6 -4 -9 -10 -7 -14 2 -4 -6 -8 -19 -8 -17 -1 -22 3
-19 15 2 9 -1 4 -8 -10 -8 -15 -19 -24 -27 -21 -9 3 -11 0 -6 -8 6 -10 1 -12
-19 -8 -14 3 -29 1 -33 -5 -4 -6 -1 -7 7 -2 8 5 11 4 6 -3 -3 -6 -15 -9 -26
-7 -14 3 -17 -1 -13 -13 6 -15 5 -15 -10 -3 -15 12 -17 12 -11 -4 5 -13 4 -16
-4 -11 -7 4 -12 2 -12 -4 0 -6 8 -10 17 -8 11 2 17 -2 15 -10 -1 -8 2 -11 8
-7 6 3 7 11 4 17 -5 7 -2 8 5 4 7 -5 10 -15 6 -24 -3 -9 -3 -13 1 -9 4 4 14 1
22 -6 13 -9 14 -9 8 1 -4 6 -2 12 3 12 6 0 11 -6 11 -14 0 -8 7 -17 16 -20 15
-6 15 -4 3 11 -13 16 -12 17 4 4 9 -7 17 -20 17 -27 0 -8 5 -14 11 -14 5 0 7
4 4 10 -3 5 -2 10 3 10 17 0 22 -13 9 -29 -11 -14 -10 -14 6 -2 15 12 20 12
30 1 10 -10 9 -11 -3 -5 -9 5 -12 4 -7 -1 9 -9 13 -10 43 -13 8 0 12 -5 9 -11
-4 -6 1 -7 11 -3 12 4 15 3 10 -5 -4 -7 -2 -13 3 -13 26 -3 30 -4 36 -11 4 -4
13 -4 21 -1 8 3 17 -2 20 -11 5 -13 10 -14 20 -5 10 8 12 7 9 -8 -3 -20 5 -23
53 -23 13 0 21 -4 18 -9 -3 -4 5 -8 17 -8 55 -1 63 -3 47 -13 -9 -6 -17 -5
-23 3 -6 8 -7 8 -4 -3 2 -10 13 -14 31 -12 20 3 26 0 21 -8 -6 -9 -2 -9 13 -1
15 8 23 8 28 -1 5 -7 2 -8 -7 -3 -9 5 -10 5 -4 -2 6 -5 23 -15 39 -22 24 -10
28 -10 20 1 -5 8 -1 5 9 -5 9 -11 17 -14 17 -8 0 6 5 11 11 11 5 0 8 -4 5 -8
-2 -4 4 -13 15 -20 21 -14 25 -3 7 18 -7 8 -4 7 8 -3 11 -9 24 -14 27 -10 4 3
7 1 7 -5 0 -16 27 -15 34 1 3 6 4 3 3 -7 -1 -10 4 -21 12 -24 9 -3 11 0 6 8
-5 9 -4 11 3 6 7 -4 12 -15 13 -24 0 -11 3 -12 6 -4 2 6 9 12 14 12 6 0 7 -5
4 -10 -3 -6 -1 -10 4 -10 6 0 11 4 11 8 0 4 9 8 19 8 11 0 17 -5 14 -10 -4 -5
1 -7 10 -3 9 3 19 1 23 -5 4 -6 3 -8 -4 -4 -6 3 -13 2 -16 -3 -4 -5 5 -8 20
-6 19 2 24 -1 20 -14 -5 -12 -3 -12 8 2 14 18 15 18 25 0 10 -17 10 -17 11 2
1 19 1 19 11 2 8 -14 14 -16 25 -6 10 8 14 8 14 0 0 -6 9 -11 19 -11 11 0 21
-5 23 -11 2 -7 34 -12 80 -12 60 -1 75 -4 67 -13 -8 -9 -5 -11 10 -7 12 3 18
10 14 16 -3 6 -1 7 6 3 6 -4 9 -11 6 -16 -3 -5 -1 -11 5 -15 5 -3 10 -1 10 6
0 8 4 8 15 -1 12 -10 18 -10 32 1 10 8 14 9 10 2 -5 -7 -1 -12 10 -11 10 0 28
-3 41 -6 13 -3 20 -1 17 4 -4 6 3 6 18 1 14 -6 27 -7 30 -4 8 7 48 -7 43 -15
-2 -4 9 -8 25 -8 16 -1 29 3 29 8 0 5 -5 6 -12 2 -7 -5 -8 -3 -3 6 6 10 10 10
20 -3 9 -13 45 -15 263 -15 170 0 250 4 245 11 -4 6 -1 7 8 1 21 -14 160 -12
141 2 -11 8 -12 13 -4 18 7 4 12 2 12 -3 0 -6 4 -11 10 -11 5 0 6 8 3 18 -6
16 -5 16 12 -1 13 -13 20 -15 25 -7 6 9 9 9 13 -1 3 -8 6 -9 6 -4 1 6 18 9 38
9 45 -2 64 7 37 16 -11 5 0 7 28 6 27 0 48 -5 48 -11 0 -5 4 -3 9 5 6 8 8 17
5 21 -2 4 9 4 26 -1 21 -6 30 -5 30 3 0 7 4 6 10 -3 9 -13 10 -13 10 0 0 13 1
13 10 0 8 -12 10 -12 10 5 0 15 2 17 9 6 6 -9 11 -10 15 -2 4 6 12 9 17 6 5
-4 9 2 9 12 1 15 4 13 16 -7 8 -14 13 -17 10 -7 -3 9 -1 17 5 17 6 0 8 3 6 8
-3 4 5 7 18 7 16 0 21 -4 17 -15 -5 -12 -3 -13 10 -3 8 7 27 14 41 15 19 2 23
5 16 14 -8 9 -5 11 9 7 11 -2 23 0 27 7 5 8 10 8 20 0 10 -8 15 -8 20 0 5 8
11 8 20 0 11 -9 17 -5 30 22 9 19 12 23 9 9 l-6 -24 27 21 c34 27 42 27 48 5
4 -16 5 -16 6 1 1 13 7 17 20 13 13 -3 18 0 15 8 -3 7 4 15 15 18 14 3 19 1
15 -6 -5 -8 -2 -7 7 0 16 16 33 17 23 1 -4 -7 -3 -8 5 -4 6 4 9 12 6 17 -4 5
3 9 14 9 12 0 21 6 21 13 0 8 4 7 10 -3 8 -13 10 -12 10 3 0 14 4 16 19 7 17
-9 19 -7 16 12 -4 22 -4 22 10 4 13 -17 19 -15 17 6 -1 3 6 9 14 12 12 5 15 2
10 -11 -4 -12 1 -9 15 7 11 14 18 20 15 14 -3 -6 1 -11 9 -11 7 0 12 8 10 19
-2 11 2 18 11 18 9 0 13 -5 9 -12 -4 -7 1 -4 9 6 9 11 16 14 16 7 0 -7 5 -9
10 -6 6 4 8 11 5 16 -4 5 -1 9 5 9 6 0 8 5 4 12 -4 7 -3 8 5 4 6 -4 8 -13 4
-19 -4 -7 0 -7 10 1 9 8 22 10 28 6 8 -5 9 -3 5 5 -6 8 -2 11 10 9 11 -2 18 2
17 10 -2 6 4 12 13 12 9 0 13 5 9 13 -4 6 0 4 8 -6 15 -18 15 -18 22 2 3 12
11 21 16 21 6 0 7 -5 3 -12 -4 -7 -3 -8 5 -4 6 4 9 12 6 17 -4 5 -1 9 5 9 6 0
8 6 4 13 -6 9 -4 9 7 -1 19 -17 34 -15 19 3 -11 13 -10 14 5 9 14 -6 16 -4 10
7 -7 11 -5 11 10 -1 10 -8 16 -10 12 -4 -4 7 0 15 9 18 24 9 31 7 14 -4 -8 -5
-10 -10 -4 -10 18 0 24 13 12 27 -6 8 -7 13 -2 12 27 -5 55 2 48 13 -5 8 -2 9
9 5 12 -4 17 -1 17 10 0 13 2 14 17 2 11 -10 14 -10 9 -1 -5 8 -1 12 11 12 15
0 16 2 3 10 -13 8 -12 10 4 10 10 0 25 8 33 17 8 10 12 13 9 8 -2 -6 4 -11 14
-11 14 0 16 3 8 13 -8 10 -6 13 6 13 11 0 14 4 10 13 -5 7 0 6 11 -3 17 -14
18 -13 12 2 -4 12 -1 18 9 18 8 0 12 5 8 11 -4 7 2 6 17 -2 22 -11 23 -11 10
5 -12 14 -12 16 2 11 8 -4 18 -1 23 6 4 7 3 10 -4 5 -6 -3 -13 -3 -16 2 -2 4
7 9 20 10 17 1 23 -2 18 -10 -4 -6 9 1 29 17 29 24 34 32 24 44 -10 12 -9 13
2 6 9 -5 19 -2 28 10 7 11 13 13 13 6 0 -7 5 -9 10 -6 6 4 8 11 5 16 -4 5 -1
9 5 9 6 0 8 5 5 10 -9 14 8 12 24 -2 8 -7 12 -8 9 -3 -3 6 -2 21 3 34 8 19 12
21 24 11 13 -11 14 -10 9 4 -4 12 -2 15 9 10 8 -3 18 0 23 7 5 8 3 10 -7 4
-11 -7 -12 -6 -2 7 7 8 9 19 5 24 -4 4 1 2 11 -5 9 -7 18 -11 18 -7 2 10 6 25
9 34 1 4 1 11 0 17 -1 5 2 7 6 3 4 -4 14 -2 23 4 12 10 12 8 -1 -8 -26 -30
-22 -37 5 -11 13 12 22 25 20 30 -2 4 2 7 10 7 8 0 21 8 28 18 11 14 11 15 -1
5 -20 -18 -34 -16 -16 2 8 8 21 15 29 15 8 0 21 8 28 17 10 11 10 14 2 9 -7
-4 -13 -2 -13 3 0 10 21 16 42 12 4 0 4 7 1 16 -5 12 -3 14 8 8 12 -8 12 -6 0
8 -12 15 -12 17 4 11 13 -5 16 -4 11 5 -6 8 -2 11 10 9 14 -2 19 3 18 19 0 13
1 21 4 18 3 -2 14 1 25 6 16 9 17 13 6 21 -10 7 -8 7 9 3 16 -5 22 -2 22 10 0
10 -5 13 -12 9 -7 -4 -8 -3 -4 5 4 6 12 9 17 6 5 -4 17 -1 26 5 14 9 14 10 2
7 -9 -3 -16 1 -16 9 0 8 3 12 5 9 9 -9 32 17 25 29 -4 6 1 5 10 -3 10 -8 20
-11 24 -7 3 3 2 6 -4 6 -6 0 -14 7 -17 16 -6 15 -4 15 11 3 15 -12 16 -12 10
3 -4 13 -2 15 10 11 11 -4 14 -2 9 5 -4 7 -2 12 4 12 6 0 8 5 5 10 -3 5 1 10
9 10 14 0 21 19 17 44 -1 5 4 4 13 -3 16 -13 25 -5 21 21 -2 12 2 15 13 10 15
-5 16 -4 2 13 -9 11 -10 16 -2 11 7 -4 12 -1 12 8 0 10 6 13 18 9 15 -6 16 -5
2 12 -9 11 -10 16 -2 11 7 -4 12 -2 12 4 0 6 5 8 10 5 6 -3 10 1 10 10 0 9 5
13 11 9 7 -4 6 2 -2 17 -12 23 -11 23 6 9 17 -14 18 -13 12 4 -6 16 -5 17 7 7
13 -11 14 -8 6 18 -5 17 -5 30 -2 29 17 -3 40 15 35 28 -4 10 0 12 13 7 12 -4
15 -3 10 5 -4 8 0 12 11 12 15 0 16 2 3 10 -14 9 -7 14 13 11 5 -1 6 3 2 9 -3
6 -11 8 -16 5 -5 -4 -9 1 -9 9 0 9 -7 13 -20 11 -11 -2 -22 0 -25 5 -3 4 -15
6 -27 2 -16 -4 -19 -2 -14 9 4 8 0 5 -8 -5 -9 -11 -16 -15 -16 -8 0 6 -10 16
-21 23 -12 6 -19 7 -15 1 3 -5 -1 -13 -9 -16 -10 -3 -15 -1 -13 7 2 6 -2 12
-7 12 -6 0 -9 -3 -8 -7 2 -5 -2 -8 -7 -8 -6 0 -10 5 -10 10 0 7 -8 6 -22 -1
-20 -11 -21 -10 -11 2 10 12 8 15 -8 15 -10 0 -19 -4 -19 -8 0 -4 -5 -8 -11
-8 -5 0 -8 4 -5 8 3 5 -10 8 -29 8 -19 -1 -35 -4 -35 -9 0 -4 -9 -2 -20 5 -11
7 -20 17 -20 22 0 4 6 4 13 -1 15 -13 47 -13 47 0 0 5 -7 6 -16 3 -9 -3 -21
-3 -27 1 -7 4 -24 6 -39 4 -15 -1 -37 3 -49 10 -18 9 -24 9 -27 0 -3 -8 -9 -6
-18 6 -11 14 -13 14 -9 2 4 -10 0 -16 -10 -16 -9 0 -14 6 -10 14 3 11 -1 13
-15 8 -15 -5 -20 -2 -20 11 0 16 -1 16 -14 -1 -13 -18 -14 -18 -25 3 -11 20
-14 21 -33 8 -21 -15 -48 -11 -48 6 0 6 8 4 18 -3 16 -13 16 -12 3 4 -12 15
-17 16 -26 5 -11 -14 -35 -22 -35 -12 0 4 8 13 18 21 11 10 8 10 -11 -1 -17
-10 -26 -12 -25 -5 2 6 -3 14 -10 16 -8 3 -10 -1 -6 -14 6 -16 5 -16 -9 2 -13
17 -17 18 -33 5 -16 -13 -17 -13 -12 2 6 14 2 15 -20 9 -32 -9 -55 -4 -45 11
4 7 -2 9 -15 6 -12 -4 -20 -3 -17 2 3 4 -4 10 -15 13 -11 3 -20 1 -20 -4 0 -5
-5 -9 -11 -9 -5 0 -7 6 -3 13 5 7 0 6 -11 -3 -10 -8 -16 -10 -12 -4 4 7 0 15
-9 18 -12 4 -15 2 -10 -9 5 -13 2 -14 -17 -3 -12 7 -25 11 -29 10 -4 -1 -5 5
-1 14 5 14 3 15 -17 4 -16 -8 -20 -9 -15 -1 5 8 -1 10 -19 5 -18 -4 -26 -2
-26 7 0 10 -3 10 -12 1 -9 -9 -15 -7 -25 6 -8 9 -12 11 -8 5 3 -7 1 -13 -4
-13 -6 0 -11 7 -11 15 0 8 -5 15 -11 15 -5 0 -8 -4 -5 -8 2 -4 0 -14 -5 -22
-8 -12 -9 -11 -7 4 2 10 -3 21 -11 24 -9 3 -11 0 -7 -9 4 -8 -2 -3 -13 10 -19
21 -21 21 -21 5 -1 -18 -1 -18 -14 -1 -14 17 -32 24 -21 8 3 -5 0 -13 -6 -17
-8 -5 -9 -3 -5 5 5 8 0 14 -13 18 -12 3 -18 10 -14 17 4 6 -1 5 -10 -3 -14
-11 -17 -11 -17 0 0 11 -2 11 -10 -1 -8 -12 -10 -12 -10 -1 0 11 -3 11 -17 0
-9 -8 -14 -9 -10 -3 6 10 -30 34 -58 39 -5 1 -12 3 -15 4 -17 8 -41 8 -46 0
-3 -6 -11 -5 -20 2 -11 9 -21 9 -40 0 -15 -6 -23 -7 -19 -1 3 5 -3 10 -14 10
-15 0 -19 -6 -17 -25z m192 -7 c4 -7 4 -10 -1 -6 -4 4 -15 2 -24 -5 -14 -11
-14 -10 -2 6 16 20 18 21 27 5z m-366 -188 c0 -5 -5 -10 -11 -10 -5 0 -7 5 -4
10 3 6 8 10 11 10 2 0 4 -4 4 -10z m-1010 -84 c0 -2 -8 -10 -17 -17 -16 -13
-17 -12 -4 4 13 16 21 21 21 13z m2700 -16 c0 -5 -2 -10 -4 -10 -3 0 -8 5 -11
10 -3 6 -1 10 4 10 6 0 11 -4 11 -10z m-3650 -659 c0 -5 -7 -12 -16 -15 -14
-5 -15 -4 -4 9 14 17 20 19 20 6z m2949 -284 c-2 -1 -13 -10 -25 -20 -17 -14
-21 -14 -21 -2 0 8 4 12 8 9 4 -2 10 0 14 6 3 5 11 10 17 10 6 0 9 -1 7 -3z
m-3500 -410 c0 -9 -2 -8 -6 1 -2 6 -10 9 -15 6 -7 -4 -8 -2 -4 5 9 13 26 5 25
-12z m2409 -152 c-3 -3 -9 2 -12 12 -6 14 -5 15 5 6 7 -7 10 -15 7 -18z m-661
-120 c0 -8 -4 -12 -9 -9 -5 3 -6 10 -3 15 9 13 12 11 12 -6z"/>
<path d="M881 1907 c-8 -10 -7 -14 2 -14 8 0 14 6 14 14 0 7 -1 13 -2 13 -2 0
-8 -6 -14 -13z"/>
<path d="M5411 1844 c0 -11 3 -14 6 -6 3 7 2 16 -1 19 -3 4 -6 -2 -5 -13z"/>
<path d="M815 1500 c-3 -5 -2 -10 4 -10 5 0 13 5 16 10 3 6 2 10 -4 10 -5 0
-13 -4 -16 -10z"/>
<path d="M2485 1350 c-3 -5 -1 -10 4 -10 6 0 11 5 11 10 0 6 -2 10 -4 10 -3 0
-8 -4 -11 -10z"/>
<path d="M3035 1260 c-3 -5 -1 -10 4 -10 6 0 11 5 11 10 0 6 -2 10 -4 10 -3 0
-8 -4 -11 -10z"/>
<path d="M2143 723 c0 -9 4 -10 14 -2 7 6 13 12 13 14 0 1 -6 2 -13 2 -8 0
-14 -6 -14 -14z"/>
</g>
</svg>
